<svg width="259" height="122" viewBox="0 0 259 122" fill="none" xmlns="http://www.w3.org/2000/svg">
<path d="M128.916 34.8229C130.794 35.2231 132.302 36.1621 133.441 37.64C134.581 39.087 135.15 40.7496 135.15 42.6276C135.15 45.337 134.196 47.4922 132.287 49.0931C130.409 50.6633 127.776 51.4484 124.39 51.4484H109.288V19.0286H123.882C127.176 19.0286 129.747 19.7829 131.594 21.2915C133.472 22.8001 134.411 24.8475 134.411 27.4337C134.411 29.3426 133.903 30.9282 132.887 32.1905C131.902 33.4528 130.578 34.3302 128.916 34.8229ZM117.185 32.1443H122.358C123.651 32.1443 124.636 31.8672 125.313 31.313C126.021 30.728 126.375 29.8814 126.375 28.773C126.375 27.6646 126.021 26.8179 125.313 26.233C124.636 25.648 123.651 25.3555 122.358 25.3555H117.185V32.1443ZM123.004 45.0753C124.328 45.0753 125.344 44.7828 126.052 44.1978C126.791 43.5821 127.161 42.7046 127.161 41.5654C127.161 40.4263 126.776 39.5334 126.006 38.8869C125.267 38.2403 124.236 37.9171 122.912 37.9171H117.185V45.0753H123.004ZM146.242 17.2736V51.4484H138.345V17.2736H146.242ZM162.31 51.8179C159.785 51.8179 157.507 51.2791 155.475 50.2015C153.474 49.1239 151.888 47.5845 150.718 45.5833C149.579 43.5821 149.009 41.2422 149.009 38.5636C149.009 35.9158 149.594 33.5913 150.764 31.5901C151.934 29.5581 153.535 28.0033 155.567 26.9257C157.599 25.8481 159.878 25.3093 162.402 25.3093C164.927 25.3093 167.205 25.8481 169.237 26.9257C171.269 28.0033 172.87 29.5581 174.04 31.5901C175.21 33.5913 175.795 35.9158 175.795 38.5636C175.795 41.2114 175.195 43.5513 173.994 45.5833C172.824 47.5845 171.208 49.1239 169.145 50.2015C167.113 51.2791 164.835 51.8179 162.31 51.8179ZM162.31 44.9829C163.819 44.9829 165.096 44.4287 166.143 43.3204C167.221 42.212 167.759 40.6264 167.759 38.5636C167.759 36.5008 167.236 34.9152 166.189 33.8068C165.173 32.6985 163.911 32.1443 162.402 32.1443C160.863 32.1443 159.585 32.6985 158.569 33.8068C157.553 34.8844 157.045 36.47 157.045 38.5636C157.045 40.6264 157.538 42.212 158.523 43.3204C159.539 44.4287 160.801 44.9829 162.31 44.9829ZM204.046 25.6788V51.4484H196.148V47.9386C195.348 49.0777 194.255 50.0014 192.869 50.7095C191.515 51.3868 190.006 51.7255 188.344 51.7255C186.373 51.7255 184.634 51.2945 183.125 50.4324C181.616 49.5396 180.446 48.2619 179.615 46.5993C178.784 44.9367 178.368 42.9817 178.368 40.7342V25.6788H186.219V39.672C186.219 41.3961 186.666 42.7354 187.559 43.6898C188.451 44.6443 189.652 45.1215 191.161 45.1215C192.7 45.1215 193.916 44.6443 194.809 43.6898C195.702 42.7354 196.148 41.3961 196.148 39.672V25.6788H204.046ZM215.722 44.9367H226.898V51.4484H206.901V45.1677L217.615 32.1905H206.993V25.6788H226.667V31.9596L215.722 44.9367ZM228.288 38.5174C228.288 35.8696 228.78 33.5451 229.765 31.5439C230.781 29.5427 232.151 28.0033 233.876 26.9257C235.6 25.8481 237.524 25.3093 239.648 25.3093C241.465 25.3093 243.05 25.6788 244.405 26.4177C245.791 27.1566 246.853 28.1264 247.592 29.3272V25.6788H255.489V51.4484H247.592V47.8C246.822 49.0008 245.744 49.9706 244.359 50.7095C243.004 51.4484 241.419 51.8179 239.602 51.8179C237.509 51.8179 235.6 51.2791 233.876 50.2015C232.151 49.0931 230.781 47.5383 229.765 45.5371C228.78 43.5051 228.288 41.1652 228.288 38.5174ZM247.592 38.5636C247.592 36.5932 247.038 35.0384 245.929 33.8992C244.852 32.76 243.528 32.1905 241.957 32.1905C240.387 32.1905 239.048 32.76 237.94 33.8992C236.862 35.0076 236.323 36.547 236.323 38.5174C236.323 40.4879 236.862 42.0581 237.94 43.228C239.048 44.3672 240.387 44.9367 241.957 44.9367C243.528 44.9367 244.852 44.3672 245.929 43.228C247.038 42.0888 247.592 40.534 247.592 38.5636Z" fill="white"/>
<path d="M211.581 59.9616V62.1257H207.276V76.1343H204.623V62.1257H200.295V59.9616H211.581ZM226.484 69.4092C226.484 69.8901 226.453 70.3245 226.391 70.7123H216.595C216.672 71.7362 217.052 72.5584 217.735 73.179C218.417 73.7995 219.255 74.1098 220.248 74.1098C221.675 74.1098 222.684 73.5125 223.273 72.318H226.135C225.747 73.497 225.042 74.4666 224.018 75.2267C223.009 75.9714 221.753 76.3437 220.248 76.3437C219.022 76.3437 217.921 76.0722 216.944 75.5293C215.982 74.9708 215.222 74.1951 214.663 73.2022C214.12 72.1939 213.849 71.0304 213.849 69.7117C213.849 68.3931 214.112 67.2374 214.64 66.2445C215.183 65.2361 215.935 64.4605 216.897 63.9175C217.874 63.3745 218.991 63.103 220.248 63.103C221.458 63.103 222.536 63.3668 223.483 63.8942C224.429 64.4217 225.166 65.1663 225.693 66.1281C226.221 67.0745 226.484 68.1682 226.484 69.4092ZM223.715 68.5715C223.7 67.5942 223.351 66.8107 222.668 66.2212C221.985 65.6317 221.14 65.337 220.132 65.337C219.216 65.337 218.433 65.6317 217.781 66.2212C217.13 66.7952 216.742 67.5786 216.618 68.5715H223.715ZM228.676 69.7117C228.676 68.3931 228.94 67.2374 229.467 66.2445C230.01 65.2361 230.755 64.4605 231.701 63.9175C232.648 63.3745 233.733 63.103 234.959 63.103C236.51 63.103 237.79 63.4754 238.799 64.22C239.822 64.9491 240.513 65.9963 240.87 67.3615H238.007C237.775 66.7254 237.402 66.229 236.89 65.8722C236.379 65.5154 235.735 65.337 234.959 65.337C233.873 65.337 233.004 65.7248 232.353 66.5005C231.717 67.2606 231.399 68.331 231.399 69.7117C231.399 71.0924 231.717 72.1706 232.353 72.9463C233.004 73.7219 233.873 74.1098 234.959 74.1098C236.495 74.1098 237.511 73.4349 238.007 72.0853H240.87C240.497 73.3884 239.799 74.4278 238.775 75.2035C237.751 75.9636 236.479 76.3437 234.959 76.3437C233.733 76.3437 232.648 76.0722 231.701 75.5293C230.755 74.9708 230.01 74.1951 229.467 73.2022C228.94 72.1939 228.676 71.0304 228.676 69.7117ZM250.611 63.103C251.588 63.103 252.457 63.3125 253.217 63.7313C253.993 64.1502 254.598 64.7707 255.032 65.5929C255.482 66.4151 255.707 67.408 255.707 68.5715V76.1343H253.077V68.9671C253.077 67.8191 252.79 66.9426 252.216 66.3376C251.642 65.717 250.859 65.4068 249.866 65.4068C248.873 65.4068 248.082 65.717 247.493 66.3376C246.919 66.9426 246.632 67.8191 246.632 68.9671V76.1343H243.979V58.9144H246.632V64.8017C247.081 64.2588 247.648 63.8399 248.33 63.5452C249.028 63.2504 249.788 63.103 250.611 63.103Z" fill="white"/>
<path d="M8.36048 76.584L27.9478 46.099C29.1484 44.2305 31.8612 44.1782 33.1329 45.999L53.8323 75.6366" stroke="white" stroke-width="4.54022"/>
<path d="M42.5966 39.0587L48.1679 49.0654C48.83 50.2545 50.5908 50.0855 51.0146 48.7921L52.7499 43.4965C53.1956 42.1366 55.0838 42.0435 55.6611 43.3529L58.3317 49.4106C58.8903 50.6776 60.6996 50.6438 61.2104 49.3568L65.2978 39.0587" stroke="white" stroke-width="4.11457"/>
<path d="M35.3607 47.9973L51.4082 24.6278C52.6583 22.8073 55.3517 22.8251 56.5776 24.662L90.2367 75.0953" stroke="white" stroke-width="4.54022"/>
<path d="M1.99993 78.0726L20.6001 73.8212C20.8282 73.769 21.0651 73.7688 21.2932 73.8206L39.7298 78.0048C39.927 78.0496 40.1311 78.0556 40.3305 78.0225L65.8204 73.7962C66.0362 73.7605 66.257 73.7704 66.4687 73.8255L82.3484 77.9568C82.639 78.0324 82.9452 78.0226 83.2303 77.9285L95.9208 73.742" stroke="white" stroke-width="3.24798" stroke-linecap="round"/>
</svg>
