<svg width="169" height="79" viewBox="0 0 169 79" fill="none" xmlns="http://www.w3.org/2000/svg">
<path d="M84.1287 22.2414C85.3441 22.5004 86.3203 23.108 87.0575 24.0644C87.7946 25.0008 88.1632 26.0766 88.1632 27.2919C88.1632 29.0452 87.5456 30.4398 86.3104 31.4759C85.095 32.492 83.3916 33 81.2 33H71.4276V12.0207H80.8713C83.0031 12.0207 84.6667 12.5088 85.8621 13.485C87.0774 14.4613 87.6851 15.7862 87.6851 17.4598C87.6851 18.695 87.3563 19.7211 86.6989 20.5379C86.0613 21.3548 85.2046 21.9226 84.1287 22.2414ZM76.5379 20.508H79.8851C80.7218 20.508 81.3594 20.3287 81.7977 19.9701C82.2559 19.5916 82.4851 19.0437 82.4851 18.3264C82.4851 17.6092 82.2559 17.0613 81.7977 16.6827C81.3594 16.3042 80.7218 16.1149 79.8851 16.1149H76.5379V20.508ZM80.3035 28.8759C81.1602 28.8759 81.8176 28.6866 82.2759 28.308C82.754 27.9096 82.9931 27.3418 82.9931 26.6046C82.9931 25.8674 82.7441 25.2896 82.246 24.8713C81.7678 24.4529 81.1004 24.2437 80.2437 24.2437H76.5379V28.8759H80.3035ZM95.341 10.885V33H90.2307V10.885H95.341ZM105.739 33.2391C104.105 33.2391 102.631 32.8904 101.316 32.1931C100.021 31.4958 98.9946 30.4996 98.2375 29.2046C97.5004 27.9096 97.1318 26.3954 97.1318 24.6621C97.1318 22.9487 97.5103 21.4444 98.2674 20.1494C99.0245 18.8345 100.061 17.8283 101.375 17.131C102.69 16.4337 104.165 16.085 105.798 16.085C107.432 16.085 108.907 16.4337 110.221 17.131C111.536 17.8283 112.572 18.8345 113.33 20.1494C114.087 21.4444 114.465 22.9487 114.465 24.6621C114.465 26.3755 114.077 27.8897 113.3 29.2046C112.543 30.4996 111.497 31.4958 110.162 32.1931C108.847 32.8904 107.372 33.2391 105.739 33.2391ZM105.739 28.8161C106.715 28.8161 107.542 28.4575 108.219 27.7402C108.916 27.023 109.265 25.9969 109.265 24.6621C109.265 23.3272 108.926 22.3011 108.249 21.5839C107.592 20.8667 106.775 20.508 105.798 20.508C104.802 20.508 103.975 20.8667 103.318 21.5839C102.661 22.2812 102.332 23.3073 102.332 24.6621C102.332 25.9969 102.651 27.023 103.288 27.7402C103.946 28.4575 104.762 28.8161 105.739 28.8161ZM132.746 16.3241V33H127.636V30.7287C127.118 31.4659 126.411 32.0636 125.514 32.5218C124.638 32.9602 123.661 33.1793 122.585 33.1793C121.31 33.1793 120.185 32.9004 119.208 32.3425C118.232 31.7647 117.475 30.9379 116.937 29.8621C116.399 28.7862 116.13 27.5211 116.13 26.0667V16.3241H121.211V25.3793C121.211 26.495 121.5 27.3617 122.077 27.9793C122.655 28.5969 123.432 28.9057 124.408 28.9057C125.405 28.9057 126.192 28.5969 126.769 27.9793C127.347 27.3617 127.636 26.495 127.636 25.3793V16.3241H132.746ZM140.302 28.7862H147.534V33H134.594V28.9356L141.527 20.5379H134.654V16.3241H147.385V20.3885L140.302 28.7862ZM148.434 24.6322C148.434 22.9188 148.753 21.4145 149.39 20.1195C150.048 18.8245 150.934 17.8283 152.05 17.131C153.166 16.4337 154.411 16.085 155.785 16.085C156.961 16.085 157.987 16.3241 158.864 16.8023C159.76 17.2804 160.448 17.908 160.926 18.685V16.3241H166.036V33H160.926V30.6391C160.428 31.4161 159.73 32.0437 158.834 32.5218C157.957 33 156.931 33.2391 155.756 33.2391C154.401 33.2391 153.166 32.8904 152.05 32.1931C150.934 31.4759 150.048 30.4697 149.39 29.1747C148.753 27.8598 148.434 26.3456 148.434 24.6322ZM160.926 24.6621C160.926 23.387 160.567 22.3808 159.85 21.6437C159.153 20.9065 158.296 20.5379 157.28 20.5379C156.264 20.5379 155.397 20.9065 154.68 21.6437C153.982 22.3609 153.634 23.3571 153.634 24.6322C153.634 25.9073 153.982 26.9234 154.68 27.6805C155.397 28.4176 156.264 28.7862 157.28 28.7862C158.296 28.7862 159.153 28.4176 159.85 27.6805C160.567 26.9433 160.926 25.9372 160.926 24.6621Z" fill="#1E46F8"/>
<path d="M137.623 38.6873V40.0877H134.837V49.1528H133.12V40.0877H130.319V38.6873H137.623ZM147.267 44.801C147.267 45.1122 147.247 45.3933 147.207 45.6442H140.867C140.917 46.3068 141.163 46.8389 141.605 47.2404C142.047 47.642 142.589 47.8428 143.231 47.8428C144.155 47.8428 144.807 47.4563 145.189 46.6833H147.041C146.79 47.4462 146.333 48.0736 145.671 48.5656C145.018 49.0474 144.205 49.2884 143.231 49.2884C142.438 49.2884 141.725 49.1127 141.093 48.7613C140.47 48.3999 139.979 47.898 139.617 47.2555C139.266 46.6029 139.09 45.85 139.09 44.9967C139.09 44.1434 139.261 43.3955 139.602 42.753C139.953 42.1005 140.44 41.5985 141.063 41.2472C141.695 40.8958 142.418 40.7201 143.231 40.7201C144.014 40.7201 144.712 40.8908 145.324 41.2321C145.937 41.5734 146.414 42.0553 146.755 42.6777C147.096 43.2901 147.267 43.9978 147.267 44.801ZM145.475 44.2589C145.465 43.6264 145.239 43.1194 144.797 42.738C144.356 42.3565 143.808 42.1657 143.156 42.1657C142.564 42.1657 142.057 42.3565 141.635 42.738C141.213 43.1094 140.962 43.6164 140.882 44.2589H145.475ZM148.685 44.9967C148.685 44.1434 148.856 43.3955 149.197 42.753C149.548 42.1005 150.03 41.5985 150.643 41.2472C151.255 40.8958 151.958 40.7201 152.751 40.7201C153.755 40.7201 154.583 40.9611 155.236 41.4429C155.898 41.9148 156.345 42.5924 156.576 43.4758H154.724C154.573 43.0642 154.332 42.743 154.001 42.5121C153.669 42.2812 153.253 42.1657 152.751 42.1657C152.048 42.1657 151.486 42.4167 151.064 42.9187C150.653 43.4106 150.447 44.1033 150.447 44.9967C150.447 45.8902 150.653 46.5879 151.064 47.0898C151.486 47.5918 152.048 47.8428 152.751 47.8428C153.745 47.8428 154.402 47.4061 154.724 46.5327H156.576C156.335 47.3759 155.883 48.0486 155.22 48.5505C154.558 49.0424 153.735 49.2884 152.751 49.2884C151.958 49.2884 151.255 49.1127 150.643 48.7613C150.03 48.3999 149.548 47.898 149.197 47.2555C148.856 46.6029 148.685 45.85 148.685 44.9967ZM162.879 40.7201C163.512 40.7201 164.074 40.8557 164.566 41.1267C165.068 41.3978 165.459 41.7993 165.74 42.3314C166.032 42.8634 166.177 43.5059 166.177 44.2589V49.1528H164.475V44.5149C164.475 43.772 164.29 43.2048 163.918 42.8133C163.547 42.4117 163.04 42.2109 162.397 42.2109C161.755 42.2109 161.243 42.4117 160.861 42.8133C160.49 43.2048 160.304 43.772 160.304 44.5149V49.1528H158.588V38.0096H160.304V41.8194C160.595 41.468 160.962 41.197 161.404 41.0062C161.855 40.8155 162.347 40.7201 162.879 40.7201Z" fill="#1E46F8"/>
<path d="M6.11584 49.2684L18.7911 29.5412C19.568 28.3321 21.3235 28.2982 22.1464 29.4765L35.5413 48.6554" stroke="#1E46F8" stroke-width="2.93803"/>
<path d="M28.2705 24.9851L31.8758 31.4605C32.3042 32.2301 33.4436 32.1207 33.7179 31.2837L34.8408 27.8569C35.1292 26.9768 36.3511 26.9166 36.7247 27.764L38.4529 31.6839C38.8143 32.5038 39.9852 32.482 40.3157 31.6491L42.9607 24.9851" stroke="#1E46F8" stroke-width="2.66259"/>
<path d="M23.588 30.7692L33.9726 15.6465C34.7816 14.4684 36.5245 14.4799 37.3178 15.6686L59.099 48.3047" stroke="#1E46F8" stroke-width="2.93803"/>
<path d="M1.99986 50.2314L14.0363 47.4803C14.1839 47.4465 14.3372 47.4464 14.4848 47.4799L26.4154 50.1876C26.543 50.2165 26.675 50.2204 26.8041 50.199L43.2989 47.4641C43.4385 47.441 43.5815 47.4474 43.7184 47.4831L53.9944 50.1565C54.1825 50.2054 54.3806 50.1991 54.5651 50.1382L62.7773 47.429" stroke="#1E46F8" stroke-width="2.10181" stroke-linecap="round"/>
</svg>
