<svg width="792" height="613" viewBox="0 0 792 613" fill="none" xmlns="http://www.w3.org/2000/svg">
<path fill-rule="evenodd" clip-rule="evenodd" d="M561.353 141.633C611.008 179.355 604.762 257.102 598.167 319.545C592.523 372.982 567.592 421.41 528.089 456.592C492.052 488.688 444.192 495.807 396.285 499.346C344.352 503.182 289.676 508.673 247.233 477.338C199.636 442.198 162.462 386.845 163.091 327.182C163.705 268.861 204.511 219.653 250.308 185.285C289.024 156.232 339.247 165.844 387.018 159.14C447.131 150.704 512.349 104.406 561.353 141.633Z" fill="#BEBBF6"/>
<g clip-path="url(#clip0_612_634)">
<path d="M737.708 256.58C739.545 248.931 737.798 240.009 731.861 234.978C731.745 243.542 728.665 251.788 723.165 258.258C721.035 260.745 718.412 263.285 718.309 266.586C718.245 268.641 719.227 270.614 720.581 272.135C721.935 273.657 723.643 274.795 725.331 275.917L725.579 276.363C731.012 270.77 735.87 264.23 737.708 256.58Z" fill="#F0F0F0"/>
<path d="M731.742 235.089C734.019 241.18 734.357 247.849 732.71 254.147C732.379 255.51 731.839 256.81 731.111 258.001C730.365 259.138 729.335 260.05 728.127 260.643C727.011 261.218 725.805 261.676 724.846 262.518C724.361 262.957 723.973 263.495 723.706 264.098C723.44 264.7 723.301 265.354 723.3 266.015C723.253 267.662 723.79 269.228 724.366 270.741C725.007 272.42 725.698 274.155 725.55 275.994C725.532 276.216 725.871 276.232 725.889 276.009C726.147 272.81 724.018 270.107 723.68 267.004C723.523 265.556 723.792 264.05 724.841 262.995C725.758 262.071 727.002 261.599 728.136 261.026C729.323 260.465 730.357 259.617 731.148 258.554C731.933 257.405 732.521 256.128 732.886 254.777C733.756 251.75 734.154 248.602 734.066 245.449C733.984 241.85 733.3 238.292 732.043 234.928C731.965 234.72 731.665 234.882 731.742 235.089Z" fill="white"/>
<path d="M733.357 252.151C734.43 252.29 735.516 252.035 736.422 251.431C737.328 250.828 737.994 249.916 738.301 248.858C738.363 248.643 738.039 248.536 737.978 248.75C737.693 249.736 737.073 250.586 736.228 251.146C735.384 251.706 734.371 251.939 733.373 251.804C733.156 251.775 733.141 252.122 733.357 252.151Z" fill="white"/>
<path d="M728.73 260.427C727.36 258.656 726.694 256.423 726.866 254.173C726.883 253.95 726.543 253.935 726.526 254.157C726.352 256.499 727.049 258.821 728.479 260.661C728.615 260.836 728.866 260.601 728.73 260.427Z" fill="white"/>
<path d="M733.574 242.043C733.148 242.078 732.721 242.004 732.329 241.828C731.938 241.652 731.596 241.38 731.333 241.035C731.199 240.858 730.949 241.094 731.082 241.27C731.374 241.648 731.752 241.949 732.184 242.144C732.616 242.339 733.088 242.424 733.559 242.39C733.604 242.39 733.647 242.374 733.68 242.343C733.713 242.312 733.733 242.27 733.737 242.224C733.738 242.178 733.722 242.133 733.692 242.1C733.662 242.066 733.619 242.045 733.574 242.043Z" fill="white"/>
<path d="M706.187 239.93C706.268 240.043 706.349 240.156 706.428 240.271C707.505 241.795 708.459 243.405 709.281 245.087C709.346 245.216 709.411 245.348 709.473 245.478C711.409 249.551 712.589 253.955 712.95 258.466C713.092 260.262 713.101 262.066 712.975 263.862C712.801 266.344 712.419 269.02 713.04 271.347C713.102 271.59 713.179 271.83 713.27 272.063L725.026 276.637C725.058 276.634 725.089 276.633 725.121 276.63L725.582 276.834C725.595 276.742 725.606 276.646 725.619 276.554C725.627 276.501 725.632 276.446 725.64 276.393C725.644 276.357 725.648 276.321 725.654 276.289C725.655 276.277 725.657 276.265 725.657 276.255C725.663 276.223 725.665 276.193 725.67 276.163C725.735 275.627 725.797 275.09 725.854 274.551C725.855 274.548 725.855 274.548 725.854 274.545C726.333 270.444 726.334 266.3 725.857 262.199C725.841 262.076 725.826 261.952 725.805 261.827C725.558 259.998 725.164 258.193 724.629 256.429C724.333 255.464 723.989 254.515 723.599 253.585C722.586 251.186 721.21 248.964 719.521 247.001C716.153 243.089 711.596 240.319 706.571 239.954C706.443 239.944 706.317 239.936 706.187 239.93Z" fill="#F0F0F0"/>
<path d="M706.157 240.092C711.568 243.556 715.772 248.673 718.172 254.714C718.711 256.005 719.047 257.375 719.169 258.774C719.244 260.14 718.959 261.501 718.344 262.717C717.793 263.862 717.1 264.968 716.831 266.23C716.703 266.878 716.71 267.547 716.853 268.192C716.996 268.836 717.27 269.443 717.659 269.972C718.594 271.316 719.946 272.237 721.299 273.09C722.801 274.038 724.375 274.998 725.342 276.557C725.459 276.746 725.74 276.549 725.623 276.361C723.941 273.648 720.647 272.798 718.546 270.528C717.566 269.469 716.893 268.101 717.108 266.614C717.296 265.313 718.01 264.172 718.578 263.017C719.195 261.84 719.52 260.527 719.525 259.192C719.474 257.792 719.189 256.411 718.684 255.109C717.593 252.157 716.054 249.4 714.123 246.936C711.935 244.112 709.29 241.692 706.302 239.778C706.117 239.66 705.973 239.974 706.157 240.092Z" fill="white"/>
<path d="M717.511 252.723C718.45 252.174 719.167 251.303 719.534 250.265C719.901 249.227 719.895 248.089 719.516 247.055C719.439 246.846 719.117 246.959 719.195 247.168C719.549 248.13 719.555 249.19 719.211 250.156C718.867 251.122 718.196 251.931 717.319 252.436C717.129 252.547 717.322 252.832 717.511 252.723Z" fill="white"/>
<path d="M718.699 262.174C716.56 261.602 714.711 260.228 713.521 258.326C713.403 258.138 713.123 258.334 713.24 258.523C714.483 260.499 716.409 261.925 718.636 262.515C718.848 262.571 718.91 262.23 718.699 262.174Z" fill="white"/>
<path d="M711.722 244.518C711.402 244.808 711.017 245.012 710.601 245.112C710.185 245.212 709.751 245.205 709.338 245.091C709.127 245.032 709.066 245.374 709.276 245.432C709.732 245.556 710.211 245.563 710.671 245.453C711.131 245.344 711.558 245.121 711.914 244.805C711.95 244.778 711.975 244.738 711.983 244.693C711.991 244.648 711.982 244.602 711.958 244.563C711.933 244.526 711.893 244.5 711.849 244.491C711.805 244.483 711.759 244.493 711.722 244.518Z" fill="white"/>
<path d="M690.643 412.725C651.228 412.725 619.161 379.997 619.161 339.769C619.161 299.542 651.228 266.814 690.643 266.814C694.81 266.813 698.969 267.181 703.074 267.913C703.125 267.922 703.174 267.942 703.218 267.97C703.262 267.998 703.3 268.035 703.329 268.079C703.359 268.122 703.381 268.171 703.392 268.223C703.403 268.274 703.404 268.328 703.395 268.38C703.386 268.432 703.367 268.482 703.34 268.527C703.312 268.572 703.275 268.61 703.233 268.641C703.19 268.671 703.142 268.693 703.092 268.704C703.041 268.715 702.988 268.717 702.937 268.707C698.878 267.983 694.764 267.62 690.643 267.62C651.663 267.62 619.951 299.986 619.951 339.769C619.951 379.553 651.663 411.918 690.643 411.918C729.622 411.918 761.334 379.553 761.334 339.769C761.352 321.788 754.773 304.451 742.893 291.172C742.823 291.093 742.787 290.989 742.792 290.882C742.797 290.776 742.843 290.676 742.92 290.604C742.997 290.532 743.099 290.495 743.204 290.499C743.308 290.504 743.406 290.55 743.477 290.629C755.489 304.056 762.142 321.587 762.124 339.769C762.124 379.997 730.058 412.725 690.643 412.725Z" fill="#E4E4E4"/>
<path d="M722.16 291.835C729.971 291.835 736.303 285.373 736.303 277.401C736.303 269.429 729.971 262.967 722.16 262.967C714.35 262.967 708.018 269.429 708.018 277.401C708.018 285.373 714.35 291.835 722.16 291.835Z" fill="#6C63FF"/>
<path d="M720.231 284.913C719.987 284.913 719.746 284.855 719.528 284.744C719.309 284.632 719.119 284.47 718.973 284.271L715.114 279.02C714.99 278.852 714.9 278.66 714.849 278.456C714.798 278.251 714.786 278.039 714.816 277.83C714.845 277.621 714.914 277.42 715.019 277.239C715.125 277.058 715.264 276.899 715.429 276.773C715.594 276.646 715.782 276.554 715.983 276.502C716.183 276.449 716.391 276.438 716.595 276.468C716.8 276.498 716.997 276.568 717.174 276.676C717.352 276.783 717.508 276.925 717.631 277.094L720.156 280.529L726.639 270.603C726.871 270.251 727.231 270.006 727.639 269.923C728.048 269.841 728.471 269.927 728.818 270.162C729.164 270.398 729.405 270.764 729.487 271.181C729.57 271.597 729.487 272.03 729.257 272.385L721.54 284.198C721.401 284.412 721.213 284.588 720.993 284.713C720.773 284.837 720.526 284.906 720.275 284.913C720.26 284.913 720.246 284.913 720.231 284.913Z" fill="white"/>
<path d="M688.804 328.448L666.994 266.524L667.547 266.321L663.536 254.932L662.983 255.135L656.287 236.122C656.037 235.412 655.652 234.759 655.155 234.201C654.658 233.643 654.058 233.19 653.389 232.868C652.72 232.546 651.996 232.362 651.257 232.326C650.519 232.29 649.78 232.403 649.085 232.659L609.658 247.123C608.963 247.378 608.323 247.771 607.776 248.278C607.229 248.786 606.785 249.398 606.47 250.081C606.155 250.763 605.974 251.503 605.939 252.256C605.904 253.01 606.014 253.764 606.265 254.474L610.933 267.73L610.06 268.074L613.04 275.973L613.74 275.698L614.358 277.455L613.614 277.747L616.594 285.646L617.164 285.422L638.781 346.799C639.03 347.51 639.414 348.164 639.911 348.723C640.408 349.282 641.008 349.736 641.678 350.057C642.347 350.379 643.072 350.563 643.81 350.598C644.549 350.634 645.288 350.52 645.984 350.263L685.41 335.799C686.814 335.282 687.96 334.217 688.596 332.839C689.232 331.461 689.307 329.882 688.804 328.448Z" fill="#3F3D56"/>
<path d="M643.91 348.222C643.355 348.221 642.813 348.045 642.36 347.719C641.906 347.393 641.561 346.932 641.373 346.398L608.513 253.099C608.271 252.411 608.307 251.654 608.612 250.994C608.917 250.333 609.466 249.823 610.139 249.576L618.528 246.499L618.516 246.798C618.494 247.318 618.598 247.836 618.819 248.305C619.039 248.774 619.37 249.181 619.78 249.489C620.191 249.798 620.67 249.998 621.175 250.073C621.679 250.148 622.194 250.095 622.674 249.919L641.291 243.089C641.74 242.879 642.135 242.564 642.443 242.169C642.751 241.774 642.963 241.311 643.063 240.817C643.162 240.331 643.147 239.829 643.02 239.35C642.892 238.871 642.655 238.43 642.329 238.062L642.132 237.839L650.797 234.66C651.47 234.414 652.212 234.451 652.859 234.762C653.506 235.073 654.006 235.634 654.248 236.32L685.599 325.336C686.239 327.16 686.144 329.168 685.335 330.92C684.526 332.672 683.069 334.025 681.284 334.682L644.824 348.058C644.531 348.166 644.222 348.222 643.91 348.222Z" fill="white"/>
<path d="M640.698 282.046C646.587 282.046 651.361 277.174 651.361 271.164C651.361 265.153 646.587 260.281 640.698 260.281C634.809 260.281 630.035 265.153 630.035 271.164C630.035 277.174 634.809 282.046 640.698 282.046Z" fill="#6C63FF"/>
<path d="M667.121 286.989L630.194 300.537C630.079 300.579 629.956 300.598 629.834 300.592C629.711 300.587 629.591 300.556 629.48 300.503C629.369 300.45 629.269 300.375 629.187 300.282C629.104 300.19 629.04 300.081 628.999 299.964C628.957 299.846 628.939 299.721 628.945 299.596C628.951 299.471 628.981 299.348 629.033 299.235C629.086 299.122 629.16 299.02 629.25 298.936C629.341 298.852 629.448 298.787 629.563 298.745L666.49 285.198C666.722 285.113 666.978 285.126 667.201 285.234C667.425 285.342 667.597 285.535 667.681 285.773C667.764 286.01 667.752 286.271 667.647 286.499C667.542 286.727 667.353 286.904 667.121 286.989Z" fill="#E6E6E6"/>
<path d="M656.155 295.579L644.009 300.035C643.893 300.078 643.771 300.097 643.648 300.091C643.526 300.085 643.406 300.055 643.295 300.002C643.184 299.948 643.084 299.873 643.001 299.781C642.919 299.688 642.855 299.58 642.814 299.462C642.772 299.344 642.754 299.219 642.76 299.094C642.766 298.969 642.796 298.847 642.848 298.733C642.9 298.62 642.974 298.519 643.065 298.435C643.156 298.351 643.262 298.286 643.377 298.244L655.524 293.788C655.756 293.702 656.013 293.715 656.237 293.822C656.46 293.93 656.633 294.124 656.717 294.361C656.801 294.599 656.788 294.861 656.683 295.089C656.577 295.318 656.387 295.494 656.155 295.579Z" fill="#E6E6E6"/>
<path d="M659.044 303.782L646.897 308.238C646.782 308.28 646.66 308.299 646.538 308.293C646.415 308.287 646.295 308.257 646.184 308.203C646.074 308.15 645.974 308.075 645.892 307.982C645.809 307.89 645.746 307.782 645.704 307.664C645.663 307.546 645.644 307.422 645.65 307.297C645.656 307.172 645.686 307.049 645.738 306.936C645.79 306.823 645.864 306.722 645.955 306.638C646.045 306.554 646.151 306.489 646.266 306.446L658.413 301.99C658.645 301.905 658.902 301.917 659.126 302.025C659.349 302.133 659.522 302.326 659.606 302.564C659.69 302.802 659.677 303.063 659.572 303.292C659.466 303.52 659.276 303.697 659.044 303.782Z" fill="#E6E6E6"/>
<path d="M660.523 307.983L648.377 312.439C648.262 312.482 648.139 312.501 648.017 312.495C647.894 312.49 647.774 312.459 647.663 312.406C647.552 312.353 647.452 312.278 647.37 312.185C647.287 312.092 647.223 311.984 647.182 311.866C647.14 311.748 647.122 311.623 647.128 311.498C647.134 311.373 647.164 311.251 647.216 311.137C647.269 311.024 647.342 310.923 647.433 310.839C647.524 310.755 647.631 310.69 647.746 310.648L659.892 306.192C660.008 306.149 660.13 306.13 660.253 306.136C660.375 306.142 660.495 306.172 660.606 306.225C660.717 306.278 660.817 306.353 660.9 306.446C660.982 306.539 661.046 306.647 661.088 306.765C661.129 306.883 661.147 307.008 661.141 307.133C661.135 307.258 661.105 307.38 661.053 307.493C661.001 307.607 660.927 307.708 660.836 307.792C660.745 307.876 660.639 307.941 660.523 307.983Z" fill="#E6E6E6"/>
<path d="M664.391 297.124L638.621 306.578C638.505 306.621 638.383 306.64 638.261 306.634C638.138 306.628 638.018 306.598 637.907 306.545C637.796 306.491 637.696 306.416 637.614 306.324C637.531 306.231 637.467 306.123 637.426 306.005C637.384 305.887 637.366 305.762 637.372 305.637C637.378 305.512 637.408 305.389 637.46 305.276C637.512 305.163 637.586 305.062 637.677 304.977C637.768 304.893 637.874 304.828 637.99 304.786L663.76 295.332C663.875 295.29 663.998 295.271 664.12 295.276C664.243 295.282 664.363 295.313 664.474 295.366C664.585 295.419 664.685 295.494 664.767 295.587C664.85 295.679 664.914 295.788 664.955 295.905C664.997 296.023 665.015 296.148 665.009 296.273C665.003 296.398 664.973 296.521 664.921 296.634C664.868 296.747 664.794 296.849 664.703 296.933C664.613 297.017 664.506 297.082 664.391 297.124Z" fill="#E6E6E6"/>
<path d="M659.2 318.182L654.79 319.8C654.394 319.945 653.958 319.924 653.578 319.741C653.198 319.558 652.904 319.228 652.762 318.824C652.62 318.42 652.64 317.975 652.819 317.587C652.999 317.199 653.321 316.899 653.717 316.754L658.127 315.136C658.523 314.991 658.959 315.012 659.339 315.195C659.719 315.378 660.013 315.708 660.155 316.112C660.297 316.516 660.277 316.96 660.098 317.349C659.918 317.737 659.596 318.037 659.2 318.182Z" fill="#6C63FF"/>
<path d="M624.446 246.8C624.785 246.8 625.06 246.52 625.06 246.174C625.06 245.829 624.785 245.548 624.446 245.548C624.108 245.548 623.833 245.829 623.833 246.174C623.833 246.52 624.108 246.8 624.446 246.8Z" fill="white"/>
<path d="M553.913 281.38C560.787 273.122 571.94 267.917 582.223 270.616C572.962 277.652 566.438 287.806 563.805 299.279C562.806 303.708 562.146 308.74 558.623 311.519C556.431 313.248 553.484 313.721 550.73 313.407C547.977 313.093 545.356 312.068 542.771 311.051L542.083 311.129C543.812 300.438 547.039 289.638 553.913 281.38Z" fill="#F0F0F0"/>
<path d="M582.197 270.841C573.708 273.161 566.151 278.152 560.6 285.105C559.379 286.58 558.393 288.243 557.679 290.031C557.039 291.796 556.874 293.704 557.2 295.556C557.471 297.29 557.944 299.031 557.797 300.801C557.708 301.706 557.433 302.582 556.99 303.371C556.547 304.16 555.945 304.845 555.224 305.38C553.462 306.76 551.319 307.413 549.202 307.976C546.851 308.602 544.4 309.214 542.51 310.865C542.282 311.065 541.991 310.691 542.219 310.491C545.506 307.618 550.175 307.862 553.837 305.744C555.546 304.756 556.973 303.236 557.28 301.191C557.549 299.403 557.063 297.607 556.774 295.855C556.429 294.052 556.523 292.191 557.045 290.434C557.668 288.615 558.589 286.916 559.77 285.412C562.375 281.982 565.492 278.992 569.007 276.55C573.004 273.741 577.443 271.65 582.13 270.368C582.421 270.289 582.485 270.762 582.197 270.841Z" fill="white"/>
<path d="M562.258 282.759C561.242 281.65 560.645 280.209 560.573 278.692C560.502 277.175 560.962 275.681 561.869 274.478C562.054 274.236 562.432 274.517 562.248 274.76C561.4 275.879 560.972 277.27 561.041 278.682C561.111 280.095 561.672 281.435 562.625 282.462C562.831 282.685 562.464 282.981 562.258 282.759Z" fill="white"/>
<path d="M556.95 294.696C559.989 294.827 562.964 293.784 565.283 291.775C565.513 291.576 565.804 291.95 565.574 292.149C563.157 294.235 560.058 295.314 556.896 295.17C556.595 295.157 556.65 294.682 556.95 294.696Z" fill="white"/>
<path d="M573.124 274.362C573.43 274.875 573.856 275.302 574.363 275.605C574.871 275.909 575.444 276.079 576.032 276.1C576.333 276.11 576.278 276.584 575.978 276.574C575.329 276.548 574.696 276.359 574.135 276.026C573.573 275.692 573.101 275.223 572.758 274.659C572.721 274.609 572.705 274.546 572.712 274.484C572.719 274.422 572.749 274.364 572.795 274.324C572.844 274.285 572.906 274.267 572.968 274.274C573.029 274.281 573.085 274.313 573.124 274.362Z" fill="white"/>
<path d="M597.512 303.819C597.324 303.819 597.136 303.818 596.945 303.82C594.412 303.823 591.884 304.036 589.385 304.457C589.192 304.487 588.996 304.52 588.803 304.555C582.794 305.634 577.033 307.843 571.813 311.069C569.737 312.355 567.76 313.8 565.899 315.392C563.329 317.59 560.714 320.183 557.672 321.352C557.356 321.478 557.032 321.583 556.704 321.668L542.23 311.979C542.208 311.94 542.183 311.904 542.161 311.865L541.566 311.506C541.656 311.417 541.752 311.326 541.842 311.237C541.894 311.186 541.95 311.136 542.002 311.084C542.038 311.05 542.074 311.017 542.104 310.984C542.116 310.973 542.128 310.961 542.138 310.953C542.168 310.921 542.2 310.894 542.228 310.864C542.761 310.358 543.298 309.855 543.84 309.355C543.84 309.355 543.842 309.352 543.848 309.351C547.986 305.55 552.471 302.069 557.331 299.394C557.477 299.313 557.625 299.229 557.778 299.153C559.975 297.96 562.265 296.951 564.623 296.138C565.915 295.697 567.229 295.324 568.559 295.018C571.996 294.236 575.533 294.011 579.039 294.35C586.028 295.028 592.727 297.979 597.176 303.402C597.29 303.54 597.401 303.677 597.512 303.819Z" fill="#6C63FF"/>
<path d="M597.359 303.985C589.213 300.622 580.235 299.963 571.701 302.104C569.856 302.531 568.088 303.253 566.463 304.242C564.911 305.258 563.653 306.679 562.821 308.359C562.015 309.909 561.365 311.59 560.204 312.914C559.599 313.582 558.863 314.112 558.044 314.47C557.224 314.827 556.34 315.004 555.449 314.988C553.228 315.008 551.132 314.212 549.109 313.361C546.863 312.416 544.544 311.398 542.062 311.555C541.761 311.574 541.75 311.097 542.05 311.078C546.369 310.804 549.953 313.867 554.126 314.427C556.073 314.688 558.11 314.351 559.561 312.908C560.831 311.645 561.502 309.912 562.305 308.335C563.093 306.685 564.265 305.256 565.719 304.174C567.29 303.104 569.027 302.314 570.857 301.838C574.961 300.7 579.214 300.228 583.461 300.439C588.309 300.652 593.086 301.71 597.585 303.567C597.864 303.682 597.636 304.1 597.359 303.985Z" fill="white"/>
<path d="M574.409 301.249C574.252 299.739 574.626 298.221 575.463 296.966C576.301 295.711 577.549 294.801 578.984 294.399C579.274 294.318 579.411 294.775 579.12 294.856C577.783 295.228 576.621 296.076 575.843 297.246C575.065 298.416 574.722 299.832 574.877 301.237C574.911 301.543 574.443 301.553 574.409 301.249Z" fill="white"/>
<path d="M563.129 307.518C565.478 309.49 568.469 310.486 571.506 310.307C571.807 310.289 571.818 310.766 571.518 310.784C568.357 310.964 565.247 309.922 562.807 307.864C562.574 307.668 562.898 307.323 563.129 307.518Z" fill="white"/>
<path d="M588.039 301.221C587.98 301.819 588.068 302.421 588.294 302.975C588.521 303.529 588.878 304.017 589.335 304.396C589.57 304.589 589.246 304.934 589.012 304.742C588.51 304.322 588.116 303.782 587.864 303.171C587.613 302.559 587.512 301.894 587.571 301.234C587.571 301.171 587.595 301.111 587.637 301.065C587.68 301.02 587.737 300.992 587.799 300.989C587.861 300.988 587.921 301.011 587.966 301.055C588.01 301.098 588.037 301.158 588.039 301.221Z" fill="white"/>
<path d="M760.208 440.104C767.703 441.98 776.444 440.196 781.375 434.137C772.983 434.018 764.903 430.875 758.565 425.261C756.128 423.088 753.639 420.411 750.404 420.305C748.391 420.24 746.458 421.243 744.967 422.624C743.477 424.006 742.361 425.75 741.263 427.472L740.825 427.725C746.306 433.27 752.713 438.228 760.208 440.104Z" fill="#F0F0F0"/>
<path d="M781.265 434.015C775.297 436.339 768.763 436.685 762.592 435.003C761.257 434.665 759.983 434.114 758.816 433.371C757.702 432.61 756.809 431.558 756.228 430.325C755.664 429.187 755.216 427.956 754.39 426.977C753.96 426.482 753.433 426.086 752.843 425.814C752.252 425.542 751.612 425.401 750.964 425.399C749.35 425.352 747.816 425.899 746.334 426.488C744.688 427.141 742.989 427.846 741.187 427.695C740.969 427.677 740.954 428.024 741.172 428.042C744.307 428.305 746.955 426.132 749.995 425.787C751.414 425.626 752.889 425.901 753.923 426.972C754.828 427.908 755.291 429.177 755.852 430.335C756.402 431.546 757.233 432.602 758.274 433.41C759.4 434.211 760.652 434.811 761.975 435.183C764.941 436.071 768.025 436.477 771.114 436.387C774.641 436.304 778.127 435.606 781.423 434.323C781.627 434.243 781.468 433.936 781.265 434.015Z" fill="white"/>
<path d="M764.548 435.664C764.412 436.759 764.662 437.868 765.253 438.792C765.844 439.716 766.738 440.396 767.775 440.71C767.985 440.773 768.09 440.443 767.88 440.38C766.914 440.089 766.081 439.456 765.533 438.594C764.984 437.732 764.755 436.698 764.888 435.68C764.916 435.458 764.576 435.444 764.548 435.664Z" fill="white"/>
<path d="M756.439 430.941C758.175 429.543 760.362 428.863 762.567 429.038C762.785 429.056 762.8 428.709 762.582 428.691C760.288 428.514 758.013 429.225 756.21 430.685C756.038 430.824 756.269 431.079 756.439 430.941Z" fill="white"/>
<path d="M774.452 435.886C774.418 435.451 774.491 435.014 774.663 434.615C774.835 434.216 775.102 433.866 775.439 433.598C775.613 433.461 775.382 433.206 775.21 433.342C774.839 433.64 774.545 434.026 774.353 434.467C774.162 434.907 774.079 435.389 774.112 435.87C774.112 435.916 774.128 435.96 774.158 435.993C774.188 436.027 774.23 436.048 774.275 436.051C774.32 436.053 774.363 436.037 774.397 436.006C774.43 435.975 774.45 435.932 774.452 435.886Z" fill="white"/>
<path d="M776.522 407.934C776.412 408.016 776.301 408.098 776.188 408.18C774.695 409.279 773.117 410.253 771.469 411.091C771.343 411.158 771.214 411.224 771.086 411.287C767.096 413.263 762.781 414.467 758.36 414.836C756.601 414.981 754.834 414.99 753.073 414.861C750.642 414.683 748.02 414.293 745.74 414.927C745.502 414.991 745.267 415.069 745.038 415.162L740.557 427.161C740.56 427.194 740.56 427.225 740.564 427.258L740.363 427.729C740.454 427.742 740.548 427.753 740.638 427.766C740.69 427.774 740.744 427.779 740.796 427.787C740.831 427.791 740.867 427.796 740.898 427.802C740.91 427.803 740.922 427.805 740.931 427.805C740.962 427.811 740.992 427.813 741.021 427.818C741.546 427.884 742.073 427.947 742.6 428.006C742.603 428.007 742.603 428.007 742.607 428.006C746.625 428.495 750.685 428.496 754.703 428.008C754.823 427.992 754.945 427.977 755.067 427.956C756.859 427.703 758.629 427.302 760.357 426.756C761.302 426.453 762.232 426.103 763.143 425.704C765.494 424.671 767.671 423.266 769.594 421.542C773.427 418.105 776.141 413.454 776.499 408.326C776.508 408.194 776.516 408.066 776.522 407.934Z" fill="#F0F0F0"/>
<path d="M776.363 407.902C772.969 413.425 767.956 417.716 762.037 420.165C760.771 420.716 759.429 421.059 758.059 421.183C756.721 421.259 755.387 420.969 754.196 420.341C753.074 419.779 751.99 419.071 750.753 418.797C750.118 418.666 749.463 418.674 748.831 418.819C748.2 418.965 747.605 419.245 747.087 419.642C745.77 420.596 744.868 421.976 744.032 423.356C743.103 424.889 742.163 426.497 740.635 427.483C740.45 427.603 740.642 427.889 740.827 427.77C743.485 426.053 744.318 422.691 746.542 420.548C747.58 419.547 748.92 418.86 750.377 419.079C751.652 419.271 752.77 420 753.901 420.58C755.055 421.209 756.341 421.541 757.649 421.546C759.021 421.494 760.374 421.204 761.65 420.688C764.542 419.575 767.244 418.004 769.657 416.033C772.424 413.8 774.796 411.1 776.671 408.051C776.787 407.862 776.478 407.715 776.363 407.902Z" fill="white"/>
<path d="M763.988 419.491C764.526 420.449 765.379 421.181 766.396 421.555C767.414 421.93 768.528 421.924 769.541 421.537C769.746 421.458 769.635 421.13 769.43 421.209C768.488 421.571 767.449 421.577 766.503 421.226C765.556 420.875 764.764 420.19 764.269 419.295C764.161 419.1 763.881 419.298 763.988 419.491Z" fill="white"/>
<path d="M754.728 420.703C755.288 418.52 756.634 416.633 758.498 415.419C758.682 415.298 758.49 415.012 758.305 415.132C756.369 416.4 754.972 418.367 754.393 420.639C754.338 420.856 754.673 420.918 754.728 420.703Z" fill="white"/>
<path d="M772.027 413.582C771.743 413.256 771.543 412.863 771.445 412.438C771.347 412.013 771.354 411.57 771.466 411.149C771.523 410.933 771.189 410.871 771.131 411.086C771.011 411.552 771.003 412.041 771.111 412.51C771.218 412.979 771.436 413.415 771.746 413.778C771.773 413.815 771.812 413.84 771.856 413.849C771.9 413.857 771.945 413.848 771.983 413.824C772.02 413.797 772.045 413.757 772.053 413.712C772.062 413.667 772.052 413.62 772.027 413.582Z" fill="white"/>
<path d="M790.241 366.579L778.812 386.209L779.246 386.443L775.376 393.932L774.571 393.496L772.027 397.861L772.659 398.232L768.512 405.56L767.794 405.137L730.501 469.192C729.523 470.869 727.933 472.081 726.081 472.562C724.228 473.043 722.264 472.755 720.62 471.76L651.291 429.716C649.648 428.718 648.461 427.095 647.989 425.205C647.517 423.314 647.8 421.309 648.775 419.631L708.515 317.018C709.493 315.342 711.083 314.13 712.936 313.649C714.788 313.167 716.752 313.456 718.396 314.451L787.726 356.495C789.367 357.493 790.554 359.116 791.026 361.006C791.498 362.897 791.215 364.901 790.241 366.579Z" fill="#3F3D56"/>
<path d="M723.091 467.799L653.518 425.607C653.011 425.299 652.645 424.799 652.5 424.217C652.355 423.634 652.442 423.016 652.742 422.499L712.879 319.203C713.18 318.686 713.671 318.313 714.242 318.164C714.813 318.016 715.418 318.105 715.925 318.412L785.498 360.603C786.004 360.911 786.37 361.411 786.515 361.994C786.661 362.577 786.574 363.195 786.273 363.712L726.137 467.008C725.835 467.524 725.345 467.898 724.774 468.046C724.203 468.194 723.598 468.106 723.091 467.799Z" fill="white"/>
<path d="M751.67 337.875C752.008 337.875 752.283 337.595 752.283 337.249C752.283 336.903 752.008 336.623 751.67 336.623C751.331 336.623 751.056 336.903 751.056 337.249C751.056 337.595 751.331 337.875 751.67 337.875Z" fill="white"/>
<path d="M747.874 411.87L689.798 376.65C689.615 376.541 689.456 376.396 689.329 376.223C689.202 376.051 689.11 375.854 689.057 375.645C689.005 375.436 688.993 375.219 689.023 375.005C689.053 374.792 689.124 374.586 689.232 374.401C689.34 374.215 689.483 374.053 689.652 373.924C689.822 373.795 690.014 373.702 690.219 373.649C690.424 373.596 690.638 373.585 690.847 373.617C691.056 373.648 691.257 373.721 691.438 373.832L749.514 409.052C749.697 409.161 749.856 409.307 749.983 409.479C750.11 409.651 750.202 409.848 750.255 410.057C750.307 410.266 750.319 410.483 750.289 410.697C750.259 410.91 750.188 411.116 750.08 411.301C749.972 411.487 749.829 411.649 749.66 411.778C749.49 411.907 749.298 412 749.093 412.053C748.888 412.106 748.674 412.117 748.465 412.085C748.256 412.054 748.055 411.981 747.874 411.87Z" fill="#E6E6E6"/>
<path d="M724.684 406.412L705.581 394.827C705.4 394.717 705.242 394.572 705.115 394.4C704.989 394.227 704.897 394.031 704.845 393.823C704.793 393.614 704.782 393.397 704.812 393.184C704.842 392.971 704.913 392.766 705.021 392.581C705.129 392.396 705.271 392.234 705.44 392.106C705.609 391.977 705.801 391.883 706.005 391.83C706.21 391.777 706.423 391.765 706.631 391.796C706.84 391.827 707.041 391.899 707.222 392.009L726.325 403.594C726.506 403.704 726.665 403.849 726.791 404.022C726.917 404.194 727.009 404.39 727.061 404.599C727.113 404.807 727.124 405.024 727.094 405.237C727.064 405.45 726.993 405.655 726.885 405.84C726.777 406.025 726.635 406.187 726.466 406.316C726.297 406.445 726.105 406.538 725.901 406.591C725.696 406.644 725.484 406.656 725.275 406.625C725.066 406.594 724.866 406.522 724.684 406.412Z" fill="#E6E6E6"/>
<path d="M717.174 419.313L698.071 407.728C697.705 407.506 697.44 407.145 697.335 406.724C697.23 406.303 697.293 405.856 697.511 405.482C697.728 405.109 698.082 404.839 698.495 404.731C698.908 404.624 699.345 404.689 699.711 404.91L718.814 416.495C718.996 416.605 719.154 416.75 719.28 416.923C719.406 417.095 719.498 417.291 719.55 417.5C719.602 417.708 719.613 417.925 719.583 418.138C719.553 418.351 719.482 418.556 719.374 418.741C719.267 418.926 719.124 419.088 718.956 419.217C718.787 419.346 718.594 419.439 718.39 419.492C718.186 419.546 717.973 419.557 717.764 419.526C717.556 419.495 717.355 419.423 717.174 419.313Z" fill="#E6E6E6"/>
<path d="M713.327 425.921L694.224 414.336C694.042 414.227 693.883 414.082 693.757 413.909C693.63 413.737 693.538 413.541 693.485 413.332C693.433 413.123 693.421 412.906 693.452 412.692C693.482 412.479 693.553 412.274 693.66 412.088C693.768 411.903 693.911 411.741 694.08 411.612C694.249 411.483 694.442 411.39 694.647 411.337C694.851 411.284 695.064 411.273 695.273 411.304C695.482 411.335 695.683 411.408 695.864 411.519L714.967 423.103C715.15 423.213 715.309 423.358 715.436 423.53C715.563 423.703 715.655 423.899 715.708 424.108C715.761 424.317 715.772 424.535 715.742 424.748C715.712 424.962 715.641 425.167 715.533 425.353C715.425 425.538 715.282 425.7 715.113 425.829C714.943 425.958 714.751 426.052 714.546 426.105C714.341 426.157 714.128 426.168 713.918 426.137C713.709 426.105 713.508 426.032 713.327 425.921Z" fill="#E6E6E6"/>
<path d="M731.695 419.269L691.165 394.69C690.801 394.467 690.538 394.106 690.434 393.686C690.33 393.266 690.394 392.82 690.611 392.448C690.828 392.075 691.18 391.805 691.592 391.697C692.003 391.59 692.44 391.653 692.806 391.873L733.336 416.451C733.518 416.561 733.677 416.706 733.804 416.878C733.931 417.051 734.024 417.247 734.076 417.456C734.129 417.665 734.141 417.883 734.111 418.096C734.081 418.31 734.01 418.515 733.902 418.701C733.794 418.886 733.651 419.048 733.481 419.177C733.312 419.306 733.119 419.4 732.914 419.453C732.709 419.506 732.496 419.517 732.287 419.485C732.078 419.454 731.877 419.38 731.695 419.269Z" fill="#E6E6E6"/>
<path d="M723.97 450.681L717.034 446.475C716.412 446.097 715.963 445.482 715.785 444.766C715.607 444.05 715.715 443.292 716.084 442.657C716.454 442.022 717.055 441.563 717.757 441.38C718.458 441.197 719.201 441.306 719.824 441.683L726.76 445.889C727.383 446.267 727.833 446.881 728.011 447.598C728.19 448.314 728.082 449.073 727.713 449.709C727.343 450.344 726.741 450.803 726.039 450.986C725.337 451.168 724.593 451.058 723.97 450.681Z" fill="#6C63FF"/>
<path d="M736.911 382.385C744.763 382.385 751.129 375.889 751.129 367.875C751.129 359.861 744.763 353.364 736.911 353.364C729.059 353.364 722.694 359.861 722.694 367.875C722.694 375.889 729.059 382.385 736.911 382.385Z" fill="#6C63FF"/>
<path d="M503.813 426.84H696.213V313.155C696.212 312.303 695.88 311.487 695.29 310.884C694.7 310.282 693.9 309.943 693.065 309.942H506.961C506.127 309.943 505.326 310.282 504.736 310.884C504.146 311.487 503.814 312.303 503.813 313.155V426.84Z" fill="#CACACA"/>
<path d="M690.269 314.386H509.758V418.978H690.269V314.386Z" fill="white"/>
<path d="M503.646 423.764V437.792C503.646 438.374 503.758 438.95 503.976 439.487C504.194 440.025 504.514 440.513 504.917 440.924C505.32 441.335 505.798 441.661 506.324 441.884C506.851 442.107 507.415 442.221 507.985 442.221H578.998V469.907H578.055C577.981 469.907 577.907 469.922 577.839 469.951C577.771 469.98 577.709 470.022 577.656 470.076C577.604 470.129 577.562 470.193 577.534 470.262C577.506 470.332 577.491 470.407 577.491 470.483V472.408C577.491 472.484 577.506 472.559 577.534 472.628C577.562 472.698 577.604 472.762 577.656 472.815C577.709 472.869 577.771 472.911 577.839 472.94C577.907 472.969 577.981 472.984 578.055 472.984H622.139C622.213 472.984 622.286 472.969 622.355 472.94C622.423 472.911 622.485 472.869 622.537 472.815C622.59 472.762 622.631 472.698 622.66 472.628C622.688 472.559 622.703 472.484 622.703 472.408V470.483C622.703 470.407 622.688 470.332 622.66 470.262C622.631 470.193 622.59 470.129 622.537 470.076C622.485 470.022 622.423 469.98 622.355 469.951C622.286 469.922 622.213 469.907 622.139 469.907H621.195V442.221H692.209C692.779 442.221 693.343 442.107 693.869 441.884C694.396 441.661 694.874 441.335 695.277 440.924C695.68 440.513 696 440.025 696.218 439.487C696.436 438.95 696.548 438.374 696.548 437.792V423.764L503.646 423.764Z" fill="#3F3D56"/>
<path d="M664.148 349.365H578.665C578.127 349.365 577.61 349.147 577.229 348.758C576.848 348.369 576.634 347.842 576.634 347.292C576.634 346.742 576.848 346.214 577.229 345.825C577.61 345.436 578.127 345.218 578.665 345.218H664.148C664.687 345.218 665.204 345.436 665.585 345.825C665.966 346.214 666.18 346.742 666.18 347.292C666.18 347.842 665.966 348.369 665.585 348.758C665.204 349.147 664.687 349.365 664.148 349.365Z" fill="#E6E6E6"/>
<path d="M635.466 358.727H607.348C606.809 358.727 606.292 358.508 605.911 358.119C605.53 357.731 605.316 357.203 605.316 356.653C605.316 356.103 605.53 355.575 605.911 355.187C606.292 354.798 606.809 354.579 607.348 354.579H635.466C636.005 354.579 636.521 354.798 636.903 355.187C637.284 355.575 637.498 356.103 637.498 356.653C637.498 357.203 637.284 357.731 636.903 358.119C636.521 358.508 636.005 358.727 635.466 358.727Z" fill="#E6E6E6"/>
<path d="M635.466 377.716H607.348C606.809 377.716 606.292 377.498 605.911 377.109C605.53 376.72 605.316 376.192 605.316 375.642C605.316 375.092 605.53 374.565 605.911 374.176C606.292 373.787 606.809 373.568 607.348 373.568H635.466C636.005 373.568 636.521 373.787 636.903 374.176C637.284 374.565 637.498 375.092 637.498 375.642C637.498 376.192 637.284 376.72 636.903 377.109C636.521 377.498 636.005 377.716 635.466 377.716Z" fill="#E6E6E6"/>
<path d="M635.466 387.442H607.348C607.081 387.442 606.817 387.388 606.57 387.284C606.324 387.18 606.1 387.027 605.911 386.835C605.723 386.642 605.573 386.413 605.471 386.162C605.369 385.91 605.316 385.641 605.316 385.368C605.316 385.096 605.369 384.826 605.471 384.575C605.573 384.323 605.723 384.094 605.911 383.902C606.1 383.709 606.324 383.557 606.57 383.452C606.817 383.348 607.081 383.294 607.348 383.294H635.466C635.733 383.294 635.997 383.348 636.243 383.452C636.49 383.557 636.714 383.709 636.902 383.902C637.091 384.094 637.241 384.323 637.343 384.575C637.445 384.826 637.498 385.096 637.498 385.368C637.498 385.641 637.445 385.91 637.343 386.162C637.241 386.413 637.091 386.642 636.902 386.835C636.714 387.027 636.49 387.18 636.243 387.284C635.997 387.388 635.733 387.442 635.466 387.442Z" fill="#E6E6E6"/>
<path d="M651.235 368.088H591.579C591.04 368.088 590.523 367.87 590.142 367.481C589.761 367.092 589.547 366.565 589.547 366.015C589.547 365.465 589.761 364.937 590.142 364.548C590.523 364.159 591.04 363.941 591.579 363.941H651.235C651.774 363.941 652.291 364.159 652.672 364.548C653.053 364.937 653.267 365.465 653.267 366.015C653.267 366.565 653.053 367.092 652.672 367.481C652.291 367.87 651.774 368.088 651.235 368.088Z" fill="#E6E6E6"/>
<path d="M662.725 407.356H652.516C651.599 407.356 650.721 406.984 650.073 406.323C649.425 405.661 649.061 404.764 649.061 403.829C649.061 402.894 649.425 401.997 650.073 401.336C650.721 400.674 651.599 400.303 652.516 400.303H662.725C663.642 400.303 664.52 400.674 665.168 401.336C665.816 401.997 666.18 402.894 666.18 403.829C666.18 404.764 665.816 405.661 665.168 406.323C664.52 406.984 663.642 407.356 662.725 407.356Z" fill="#6C63FF"/>
<path d="M551.785 381.761C561.6 381.761 569.557 373.64 569.557 363.623C569.557 353.606 561.6 345.485 551.785 345.485C541.97 345.485 534.013 353.606 534.013 363.623C534.013 373.64 541.97 381.761 551.785 381.761Z" fill="#6C63FF"/>
<path d="M759.748 473.731H504.116C503.991 473.731 503.872 473.68 503.784 473.59C503.696 473.5 503.647 473.378 503.647 473.251C503.647 473.124 503.696 473.003 503.784 472.913C503.872 472.823 503.991 472.772 504.116 472.771H759.748C759.873 472.772 759.992 472.823 760.08 472.913C760.168 473.003 760.217 473.124 760.217 473.251C760.217 473.378 760.168 473.5 760.08 473.59C759.992 473.68 759.873 473.731 759.748 473.731Z" fill="#CACACA"/>
<path d="M599.929 312.164C600.299 312.164 600.599 311.858 600.599 311.48C600.599 311.103 600.299 310.797 599.929 310.797C599.559 310.797 599.26 311.103 599.26 311.48C599.26 311.858 599.559 312.164 599.929 312.164Z" fill="white"/>
</g>
<g clip-path="url(#clip1_612_634)">
<path d="M545.753 375.268H452.605C449.216 375.264 445.967 373.888 443.571 371.441C441.175 368.995 439.827 365.678 439.823 362.218V212.207C439.827 208.747 441.175 205.429 443.571 202.983C445.967 200.536 449.216 199.16 452.605 199.156H545.753C549.142 199.16 552.391 200.536 554.787 202.983C557.183 205.429 558.531 208.747 558.535 212.207V362.218C558.531 365.678 557.183 368.995 554.787 371.441C552.391 373.888 549.142 375.264 545.753 375.268Z" fill="#E6E6E6"/>
<path d="M547.297 206.943H452.43C451.369 206.945 450.352 207.376 449.602 208.141C448.852 208.907 448.43 209.946 448.428 211.029V362.996C448.43 364.079 448.852 365.117 449.602 365.883C450.352 366.648 451.369 367.079 452.43 367.081H547.297C548.358 367.08 549.375 366.649 550.125 365.883C550.876 365.117 551.298 364.079 551.299 362.996V211.029C551.298 209.946 550.876 208.907 550.125 208.141C549.375 207.376 548.358 206.945 547.297 206.943Z" fill="white"/>
<path d="M454.882 199.156C454.882 198.891 454.986 198.638 455.169 198.45C455.352 198.263 455.601 198.158 455.86 198.158H462.509C462.769 198.158 463.017 198.263 463.201 198.45C463.384 198.637 463.487 198.891 463.487 199.156C463.487 199.421 463.384 199.675 463.201 199.862C463.017 200.049 462.769 200.154 462.509 200.154H455.86C455.601 200.154 455.352 200.049 455.169 199.862C454.986 199.675 454.882 199.421 454.882 199.156Z" fill="#E6E6E6"/>
<path d="M465.834 199.156C465.834 198.891 465.938 198.638 466.121 198.45C466.304 198.263 466.553 198.158 466.812 198.158H473.461C473.721 198.158 473.969 198.263 474.153 198.45C474.336 198.637 474.439 198.891 474.439 199.156C474.439 199.421 474.336 199.675 474.153 199.862C473.969 200.049 473.721 200.154 473.461 200.154H466.812C466.553 200.154 466.304 200.049 466.121 199.862C465.938 199.675 465.834 199.421 465.834 199.156Z" fill="#E6E6E6"/>
<path d="M531.546 199.156C531.546 198.891 531.65 198.638 531.833 198.45C532.016 198.263 532.265 198.158 532.524 198.158H539.173C539.433 198.158 539.681 198.263 539.865 198.45C540.048 198.637 540.151 198.891 540.151 199.156C540.151 199.421 540.048 199.675 539.865 199.862C539.681 200.049 539.433 200.154 539.173 200.154H532.524C532.265 200.154 532.016 200.049 531.833 199.862C531.65 199.675 531.546 199.421 531.546 199.156Z" fill="#E6E6E6"/>
<path d="M513.01 363.951C513.01 365.001 512.99 366.047 512.943 367.081H452.43C451.369 367.08 450.352 366.649 449.602 365.883C448.852 365.117 448.43 364.079 448.428 362.996V286.505C466.449 289.478 482.844 298.904 494.678 313.094C506.512 327.285 513.01 345.313 513.01 363.951Z" fill="#F2F2F2"/>
<path d="M510.955 245.996H488.386C487.359 245.996 486.527 246.846 486.527 247.895V250.264C486.527 251.312 487.359 252.162 488.386 252.162H510.955C511.982 252.162 512.814 251.312 512.814 250.264V247.895C512.814 246.846 511.982 245.996 510.955 245.996Z" fill="#6C63FF"/>
<path d="M525.299 258.328H474.043C473.016 258.328 472.183 259.178 472.183 260.227V262.596C472.183 263.644 473.016 264.494 474.043 264.494H525.299C526.326 264.494 527.158 263.644 527.158 262.596V260.227C527.158 259.178 526.326 258.328 525.299 258.328Z" fill="#E6E6E6"/>
<path d="M525.299 270.661H474.043C473.016 270.661 472.183 271.511 472.183 272.559V274.928C472.183 275.977 473.016 276.827 474.043 276.827H525.299C526.326 276.827 527.158 275.977 527.158 274.928V272.559C527.158 271.511 526.326 270.661 525.299 270.661Z" fill="#E6E6E6"/>
<path d="M516.522 356.695C516.228 356.709 515.937 356.63 515.688 356.47C515.44 356.309 515.246 356.074 515.132 355.797C515.019 355.52 514.991 355.214 515.054 354.921C515.116 354.627 515.266 354.36 515.482 354.156L515.58 353.757C515.567 353.725 515.554 353.693 515.541 353.662C515.245 352.948 514.749 352.339 514.115 351.912C513.481 351.485 512.738 351.259 511.979 351.261C511.219 351.264 510.478 351.496 509.847 351.928C509.216 352.36 508.725 352.972 508.434 353.689C507.271 356.547 505.791 359.41 505.427 362.433C505.266 363.768 505.334 365.123 505.627 366.435C502.897 360.354 501.479 353.746 501.47 347.056C501.469 345.378 501.561 343.701 501.744 342.032C501.895 340.665 502.104 339.307 502.372 337.959C503.836 330.645 506.978 323.789 511.54 317.955C513.748 316.725 515.534 314.833 516.657 312.535C517.064 311.709 517.351 310.827 517.51 309.917C517.261 309.95 517.008 309.971 516.759 309.988C516.681 309.992 516.6 309.996 516.522 310L516.493 310.002C516.219 310.014 515.948 309.946 515.711 309.804C515.475 309.663 515.283 309.455 515.16 309.205C515.036 308.955 514.986 308.674 515.016 308.396C515.045 308.118 515.153 307.854 515.325 307.637C515.433 307.502 515.541 307.367 515.648 307.232C515.812 307.023 515.979 306.819 516.142 306.611C516.161 306.591 516.179 306.57 516.195 306.548C516.383 306.31 516.571 306.077 516.759 305.839C516.416 305.296 515.955 304.841 515.411 304.509C513.529 303.384 510.932 304.163 509.572 305.902C508.208 307.64 507.951 310.079 508.424 312.252C508.89 314.1 509.661 315.854 510.703 317.438C510.601 317.571 510.495 317.701 510.393 317.834C508.526 320.284 506.9 322.915 505.536 325.689C505.868 322.581 505.472 319.438 504.382 316.517C503.276 313.794 501.205 311.502 499.38 309.148C497.189 306.321 492.695 307.555 492.309 311.139C492.305 311.173 492.302 311.208 492.298 311.243C492.569 311.399 492.834 311.564 493.094 311.74C493.42 311.962 493.673 312.28 493.819 312.651C493.965 313.023 493.998 313.431 493.913 313.822C493.828 314.212 493.63 314.568 493.343 314.842C493.057 315.115 492.697 315.295 492.309 315.356L492.27 315.362C492.366 316.359 492.537 317.347 492.78 318.318C493.485 321.028 494.731 323.56 496.439 325.755C498.147 327.95 500.281 329.762 502.707 331.076C502.867 331.159 503.022 331.242 503.181 331.322C501.811 335.285 500.952 339.414 500.625 343.604C500.44 346.076 500.45 348.559 500.657 351.03L500.645 350.942C500.122 348.195 498.687 345.717 496.582 343.925C493.455 341.303 489.037 340.337 485.664 338.229C485.306 337.994 484.889 337.869 484.463 337.868C484.037 337.867 483.619 337.99 483.26 338.223C482.9 338.456 482.613 338.79 482.433 339.184C482.253 339.578 482.187 340.017 482.243 340.448C482.247 340.478 482.252 340.509 482.257 340.54C482.76 340.749 483.249 340.99 483.723 341.261C483.994 341.417 484.259 341.583 484.518 341.758C484.844 341.98 485.097 342.298 485.243 342.67C485.389 343.041 485.422 343.449 485.337 343.84C485.253 344.231 485.054 344.587 484.768 344.86C484.482 345.134 484.121 345.313 483.734 345.374L483.694 345.38C483.665 345.384 483.641 345.389 483.612 345.393C484.472 347.487 485.678 349.415 487.177 351.092C489.03 353.122 491.27 354.744 493.758 355.859C496.247 356.974 498.932 357.558 501.65 357.575H501.654C502.391 360.848 503.46 364.034 504.843 367.081H516.236C516.277 366.952 516.314 366.819 516.351 366.689C515.296 366.757 514.237 366.693 513.198 366.498C514.043 365.439 514.889 364.371 515.734 363.312C515.753 363.292 515.771 363.272 515.787 363.25C516.216 362.708 516.649 362.17 517.077 361.628L517.078 361.627C517.101 359.966 516.913 358.308 516.522 356.695ZM503.475 330.492L503.481 330.484L503.475 330.5V330.492ZM500.951 353.719L500.853 353.494C500.857 353.331 500.857 353.168 500.853 353.002C500.853 352.956 500.845 352.91 500.845 352.864C500.882 353.152 500.915 353.439 500.955 353.727L500.951 353.719Z" fill="#6C63FF"/>
<path d="M542.555 220.36H457.172C456.987 220.356 456.811 220.278 456.682 220.143C456.553 220.008 456.48 219.827 456.48 219.638C456.48 219.45 456.553 219.269 456.682 219.134C456.811 218.999 456.987 218.921 457.172 218.917H542.555C542.74 218.921 542.916 218.999 543.045 219.134C543.174 219.269 543.247 219.45 543.247 219.638C543.247 219.827 543.174 220.008 543.045 220.143C542.916 220.278 542.74 220.356 542.555 220.36Z" fill="#CACACA"/>
<path d="M461.727 216.831C462.874 216.831 463.804 215.861 463.804 214.663C463.804 213.466 462.874 212.496 461.727 212.496C460.58 212.496 459.65 213.466 459.65 214.663C459.65 215.861 460.58 216.831 461.727 216.831Z" fill="#3F3D56"/>
<path d="M468.902 216.831C470.049 216.831 470.979 215.861 470.979 214.663C470.979 213.466 470.049 212.496 468.902 212.496C467.755 212.496 466.825 213.466 466.825 214.663C466.825 215.861 467.755 216.831 468.902 216.831Z" fill="#3F3D56"/>
<path d="M476.077 216.831C477.224 216.831 478.154 215.861 478.154 214.663C478.154 213.466 477.224 212.496 476.077 212.496C474.93 212.496 474 213.466 474 214.663C474 215.861 474.93 216.831 476.077 216.831Z" fill="#3F3D56"/>
<path d="M539.218 213.333H534.57C534.478 213.335 534.39 213.374 534.326 213.441C534.261 213.508 534.225 213.598 534.225 213.692C534.225 213.786 534.261 213.877 534.326 213.944C534.39 214.011 534.478 214.05 534.57 214.052H539.218C539.31 214.05 539.398 214.011 539.462 213.944C539.527 213.877 539.563 213.786 539.563 213.692C539.563 213.598 539.527 213.508 539.462 213.441C539.398 213.374 539.31 213.335 539.218 213.333Z" fill="#3F3D56"/>
<path d="M539.218 214.682H534.57C534.478 214.683 534.39 214.722 534.326 214.789C534.261 214.857 534.225 214.947 534.225 215.041C534.225 215.135 534.261 215.225 534.326 215.293C534.39 215.36 534.478 215.398 534.57 215.4H539.218C539.31 215.398 539.398 215.36 539.462 215.293C539.527 215.225 539.563 215.135 539.563 215.041C539.563 214.947 539.527 214.857 539.462 214.789C539.398 214.722 539.31 214.683 539.218 214.682Z" fill="#3F3D56"/>
<path d="M539.218 216.029H534.57C534.478 216.031 534.39 216.069 534.326 216.137C534.261 216.204 534.225 216.294 534.225 216.388C534.225 216.482 534.261 216.573 534.326 216.64C534.39 216.707 534.478 216.746 534.57 216.747H539.218C539.31 216.746 539.398 216.707 539.462 216.64C539.527 216.573 539.563 216.482 539.563 216.388C539.563 216.294 539.527 216.204 539.462 216.137C539.398 216.069 539.31 216.031 539.218 216.029Z" fill="#3F3D56"/>
<path d="M400.683 286.562H351.18C350.48 286.563 349.809 286.848 349.314 287.354C348.82 287.861 348.542 288.547 348.543 289.262V369.102H403.328V289.262C403.328 288.907 403.259 288.556 403.127 288.228C402.994 287.901 402.799 287.603 402.553 287.352C402.308 287.102 402.016 286.903 401.695 286.767C401.375 286.632 401.031 286.562 400.683 286.562ZM376.098 331.926C374.55 331.919 373.068 331.288 371.973 330.17C370.878 329.053 370.26 327.539 370.253 325.958V316.749C370.254 315.168 370.871 313.651 371.967 312.533C373.063 311.415 374.549 310.786 376.098 310.786C377.648 310.786 379.134 311.415 380.23 312.533C381.326 313.651 381.943 315.168 381.944 316.749V325.958C381.937 327.539 381.318 329.053 380.224 330.17C379.129 331.288 377.646 331.919 376.098 331.926Z" fill="#E6E6E6"/>
<path d="M348.373 366.549V374.252C348.374 374.651 348.529 375.034 348.806 375.316C349.082 375.598 349.457 375.757 349.848 375.758H402.022C402.413 375.756 402.787 375.596 403.063 375.314C403.339 375.033 403.495 374.651 403.497 374.252V366.549L348.373 366.549Z" fill="#CCCCCC"/>
<path d="M482.656 161.962H271.049C269.231 161.965 267.488 162.704 266.203 164.016C264.917 165.329 264.194 167.108 264.191 168.964V314.752C264.193 316.609 264.916 318.389 266.202 319.701C267.487 321.014 269.231 321.752 271.049 321.754H482.656C484.475 321.752 486.218 321.014 487.504 319.701C488.79 318.389 489.513 316.609 489.515 314.752V168.964C489.512 167.108 488.788 165.329 487.503 164.016C486.217 162.704 484.474 161.965 482.656 161.962Z" fill="#E6E6E6"/>
<path d="M480.89 167.02H272.817C271.844 167.022 270.911 167.418 270.223 168.121C269.536 168.825 269.15 169.778 269.149 170.772V312.947C269.151 313.939 269.538 314.891 270.226 315.593C270.913 316.295 271.845 316.69 272.817 316.691H480.89C481.862 316.69 482.794 316.295 483.482 315.593C484.169 314.891 484.556 313.939 484.558 312.947V170.772C484.558 169.778 484.172 168.825 483.484 168.121C482.796 167.418 481.864 167.022 480.89 167.02Z" fill="white"/>
<path d="M484.558 170.772V312.947C484.556 313.939 484.169 314.891 483.482 315.593C482.794 316.295 481.862 316.69 480.89 316.691H407.519C399.402 309.006 392.743 299.859 387.876 289.708C387.556 289.054 387.251 288.392 386.961 287.722C382.526 277.897 379.841 267.344 379.031 256.558C378.977 255.896 378.932 255.234 378.901 254.565C378.802 252.852 378.756 251.116 378.756 249.372C378.742 237.774 380.887 226.279 385.078 215.498C385.329 214.829 385.596 214.167 385.871 213.505C394.305 193.274 409.544 176.786 428.839 167.02H480.89C481.864 167.022 482.796 167.418 483.484 168.121C484.172 168.825 484.558 169.778 484.558 170.772Z" fill="#6C63FF"/>
<path d="M470.431 186.608H275.738C275.535 186.603 275.342 186.518 275.201 186.37C275.059 186.223 274.98 186.024 274.98 185.817C274.98 185.611 275.059 185.412 275.201 185.264C275.342 185.116 275.535 185.031 275.738 185.027H470.431C470.633 185.031 470.826 185.116 470.968 185.264C471.109 185.412 471.189 185.611 471.189 185.817C471.189 186.024 471.109 186.223 470.968 186.37C470.826 186.518 470.633 186.603 470.431 186.608Z" fill="#CACACA"/>
<path d="M288.991 180.991C291.497 180.991 293.528 178.871 293.528 176.255C293.528 173.64 291.497 171.52 288.991 171.52C286.485 171.52 284.453 173.64 284.453 176.255C284.453 178.871 286.485 180.991 288.991 180.991Z" fill="#3F3D56"/>
<path d="M304.665 180.991C307.171 180.991 309.203 178.871 309.203 176.255C309.203 173.64 307.171 171.52 304.665 171.52C302.159 171.52 300.128 173.64 300.128 176.255C300.128 178.871 302.159 180.991 304.665 180.991Z" fill="#3F3D56"/>
<path d="M320.34 180.991C322.846 180.991 324.877 178.871 324.877 176.255C324.877 173.64 322.846 171.52 320.34 171.52C317.834 171.52 315.803 173.64 315.803 176.255C315.803 178.871 317.834 180.991 320.34 180.991Z" fill="#3F3D56"/>
<path d="M460.993 172.693H449.859C449.638 172.698 449.428 172.79 449.273 172.951C449.119 173.112 449.032 173.329 449.032 173.554C449.032 173.78 449.119 173.996 449.273 174.157C449.428 174.318 449.638 174.41 449.859 174.415H460.993C461.214 174.41 461.424 174.318 461.579 174.157C461.733 173.996 461.82 173.78 461.82 173.554C461.82 173.329 461.733 173.112 461.579 172.951C461.424 172.79 461.214 172.698 460.993 172.693Z" fill="#3F3D56"/>
<path d="M460.993 175.924H449.859C449.638 175.929 449.428 176.021 449.273 176.182C449.119 176.343 449.032 176.56 449.032 176.785C449.032 177.01 449.119 177.227 449.273 177.388C449.428 177.549 449.638 177.641 449.859 177.646H460.993C461.214 177.641 461.424 177.549 461.579 177.388C461.733 177.227 461.82 177.01 461.82 176.785C461.82 176.56 461.733 176.343 461.579 176.182C461.424 176.021 461.214 175.929 460.993 175.924Z" fill="#3F3D56"/>
<path d="M460.993 179.151H449.859C449.638 179.155 449.428 179.248 449.273 179.409C449.119 179.57 449.032 179.786 449.032 180.012C449.032 180.237 449.119 180.453 449.273 180.614C449.428 180.775 449.638 180.868 449.859 180.872H460.993C461.214 180.868 461.424 180.775 461.579 180.614C461.733 180.453 461.82 180.237 461.82 180.012C461.82 179.786 461.733 179.57 461.579 179.409C461.424 179.248 461.214 179.155 460.993 179.151Z" fill="#3F3D56"/>
<path d="M335.35 232.789H308.124C307.097 232.789 306.265 233.639 306.265 234.687V237.646C306.265 238.695 307.097 239.545 308.124 239.545H335.35C336.377 239.545 337.21 238.695 337.21 237.646V234.687C337.21 233.639 336.377 232.789 335.35 232.789Z" fill="#6C63FF"/>
<path d="M351.066 246.3H292.408C291.381 246.3 290.549 247.15 290.549 248.199V251.158C290.549 252.206 291.381 253.056 292.408 253.056H351.066C352.093 253.056 352.926 252.206 352.926 251.158V248.199C352.926 247.15 352.093 246.3 351.066 246.3Z" fill="#E6E6E6"/>
<path d="M351.066 259.812H292.408C291.381 259.812 290.549 260.662 290.549 261.711V264.67C290.549 265.719 291.381 266.569 292.408 266.569H351.066C352.093 266.569 352.926 265.719 352.926 264.67V261.711C352.926 260.662 352.093 259.812 351.066 259.812Z" fill="#E6E6E6"/>
<path d="M295.64 308.54C295.644 311.323 295.159 314.084 294.206 316.691H272.817C271.845 316.689 270.913 316.294 270.226 315.592C269.538 314.89 269.151 313.939 269.149 312.946V285.48C270.345 285.283 271.553 285.184 272.764 285.184C275.768 285.184 278.743 285.788 281.518 286.962C284.294 288.135 286.816 289.856 288.94 292.024C291.064 294.193 292.749 296.768 293.899 299.602C295.048 302.436 295.64 305.473 295.64 308.54Z" fill="#6C63FF"/>
<path opacity="0.2" d="M484.748 215.498V213.505H452.028V190.406H450.084V213.505H412.582V190.406H410.638V213.505H385.871C385.596 214.167 385.329 214.829 385.078 215.498H410.638V254.565H378.901C378.931 255.234 378.977 255.896 379.031 256.558H410.638V287.722H386.961C387.251 288.392 387.556 289.053 387.876 289.707H410.638V315.905H412.582V289.707H450.084V315.905H452.028V289.707H484.748V287.722H452.028C452.028 283.63 452.818 279.577 454.352 275.796C455.886 272.015 458.134 268.579 460.968 265.686C463.803 262.792 467.168 260.496 470.871 258.93C474.575 257.364 478.544 256.558 482.552 256.558H484.748V254.565H452.028V215.498H484.748ZM450.084 287.722H412.582V256.558H450.084V287.722ZM450.084 254.565H412.582V253.786C412.582 243.631 416.533 233.893 423.566 226.712C430.599 219.532 440.138 215.498 450.084 215.498L450.084 254.565Z" fill="black"/>
<path d="M458.404 301.941C457.986 301.961 457.573 301.849 457.22 301.621C456.867 301.393 456.591 301.059 456.43 300.666C456.269 300.272 456.23 299.837 456.319 299.421C456.408 299.004 456.62 298.625 456.927 298.335C456.978 298.127 457.015 297.977 457.066 297.769C457.048 297.723 457.03 297.678 457.011 297.633C455.135 293.066 448.777 293.097 446.917 297.671C445.266 301.731 443.164 305.797 442.647 310.089C442.419 311.987 442.515 313.91 442.931 315.774C439.053 307.138 437.04 297.752 437.027 288.252C437.026 285.868 437.156 283.486 437.415 281.117C437.63 279.175 437.928 277.246 438.309 275.332C440.387 264.944 444.849 255.207 451.329 246.922C454.465 245.175 457.001 242.488 458.596 239.224C459.173 238.051 459.581 236.798 459.808 235.506C459.454 235.553 459.094 235.582 458.741 235.606C458.63 235.612 458.514 235.618 458.404 235.624L458.363 235.626C457.974 235.644 457.588 235.546 457.252 235.346C456.916 235.145 456.644 234.849 456.469 234.495C456.294 234.14 456.223 233.741 456.265 233.346C456.306 232.951 456.459 232.576 456.704 232.268C456.857 232.076 457.01 231.884 457.163 231.692C457.395 231.396 457.633 231.106 457.865 230.81C457.891 230.782 457.917 230.752 457.94 230.721C458.207 230.384 458.474 230.052 458.74 229.715C458.254 228.943 457.599 228.296 456.827 227.826C454.153 226.227 450.464 227.334 448.533 229.803C446.596 232.272 446.231 235.736 446.903 238.821C447.478 241.462 448.73 243.884 450.14 246.187C449.995 246.377 449.844 246.56 449.699 246.75C447.048 250.23 444.738 253.966 442.802 257.906C443.273 253.492 442.711 249.027 441.162 244.879C439.592 241.013 436.65 237.756 434.059 234.414C430.947 230.399 424.565 232.151 424.016 237.241C424.011 237.29 424.006 237.339 424.001 237.388C424.386 237.61 424.762 237.845 425.131 238.094C425.594 238.41 425.953 238.861 426.16 239.389C426.368 239.917 426.415 240.496 426.294 241.051C426.174 241.606 425.892 242.111 425.485 242.5C425.079 242.889 424.567 243.143 424.017 243.23L423.96 243.239C424.097 244.655 424.34 246.058 424.685 247.437C425.686 251.285 427.455 254.881 429.882 257.999C432.308 261.117 435.339 263.69 438.784 265.556C439.01 265.674 439.231 265.793 439.457 265.905C437.511 271.534 436.291 277.398 435.826 283.349C435.563 286.86 435.579 290.387 435.873 293.895L435.855 293.77C435.113 289.869 433.075 286.349 430.085 283.805C425.644 280.08 419.37 278.709 414.579 275.715C412.273 274.274 409.318 276.136 409.72 278.866C409.727 278.91 409.733 278.953 409.74 278.997C410.454 279.294 411.149 279.636 411.822 280.021C412.207 280.243 412.583 280.478 412.952 280.727C413.415 281.043 413.774 281.494 413.981 282.022C414.189 282.55 414.235 283.129 414.115 283.684C413.995 284.239 413.713 284.744 413.306 285.133C412.9 285.522 412.388 285.776 411.838 285.863L411.781 285.871C411.741 285.877 411.706 285.883 411.665 285.889C412.885 288.864 414.598 291.602 416.728 293.984C419.36 296.866 422.54 299.17 426.074 300.753C429.609 302.336 433.422 303.166 437.282 303.191H437.288C438.335 307.839 439.853 312.364 441.817 316.691H457.998C458.056 316.508 458.108 316.318 458.161 316.135C456.663 316.231 455.159 316.139 453.683 315.862C454.884 314.358 456.084 312.843 457.285 311.339C457.312 311.311 457.337 311.281 457.36 311.25C457.969 310.48 458.584 309.716 459.193 308.946L459.193 308.946C459.226 306.586 458.96 304.232 458.404 301.942L458.404 301.941ZM439.874 264.727L439.883 264.715L439.874 264.739V264.727ZM436.29 297.714L436.151 297.394C436.157 297.163 436.157 296.932 436.151 296.696C436.151 296.63 436.14 296.565 436.14 296.5C436.192 296.909 436.238 297.317 436.296 297.726L436.29 297.714Z" fill="#2F2E41"/>
<path d="M314.319 263.304V241.101C314.319 237.693 312.993 234.424 310.632 232.014C308.272 229.604 305.07 228.25 301.732 228.25H255.659C252.321 228.25 249.119 229.604 246.759 232.014C244.399 234.424 243.073 237.693 243.073 241.101V362.907C243.073 366.315 244.399 369.584 246.759 371.994C249.119 374.404 252.321 375.757 255.659 375.757H301.732C303.385 375.757 305.022 375.425 306.549 374.779C308.076 374.133 309.463 373.187 310.632 371.994C311.801 370.8 312.728 369.384 313.361 367.825C313.993 366.266 314.319 364.595 314.319 362.907V279.108C314.529 279.108 314.731 279.023 314.88 278.871C315.029 278.719 315.113 278.512 315.113 278.297V264.114C315.113 263.899 315.029 263.693 314.88 263.541C314.731 263.389 314.529 263.304 314.319 263.304Z" fill="#E6E6E6"/>
<path d="M311.64 241.189V362.82C311.64 365.346 310.664 367.77 308.924 369.566C307.183 371.362 304.819 372.384 302.345 372.411C302.31 372.414 302.276 372.416 302.242 372.415H255.944C253.451 372.415 251.061 371.404 249.299 369.604C247.536 367.805 246.546 365.364 246.546 362.82V241.189C246.546 238.644 247.536 236.204 249.299 234.404C251.061 232.605 253.451 231.594 255.944 231.594H261.562C261.286 232.286 261.181 233.037 261.256 233.781C261.331 234.525 261.584 235.239 261.992 235.859C262.401 236.48 262.952 236.988 263.599 237.34C264.245 237.692 264.966 237.876 265.698 237.877H292.093C292.825 237.875 293.545 237.69 294.19 237.337C294.835 236.985 295.386 236.476 295.794 235.856C296.202 235.236 296.454 234.523 296.529 233.78C296.605 233.037 296.5 232.286 296.225 231.594H302.242C304.734 231.594 307.125 232.605 308.887 234.404C310.65 236.204 311.64 238.644 311.64 241.189Z" fill="white"/>
<path d="M302.46 368.661C302.46 369.921 302.422 371.171 302.345 372.411C302.31 372.414 302.276 372.416 302.242 372.415H255.944C253.451 372.415 251.061 371.404 249.299 369.604C247.536 367.805 246.546 365.364 246.546 362.819V308.616C261.63 309.392 275.846 316.057 286.253 327.233C296.659 338.409 302.462 353.24 302.46 368.661Z" fill="#F2F2F2"/>
<path d="M243.327 275.725C243.043 275.724 242.771 275.609 242.57 275.404C242.369 275.199 242.256 274.921 242.256 274.631V267.193C242.256 266.902 242.369 266.624 242.57 266.419C242.77 266.214 243.043 266.099 243.327 266.099C243.611 266.099 243.884 266.214 244.085 266.419C244.286 266.624 244.399 266.902 244.399 267.193V274.631C244.398 274.921 244.285 275.199 244.084 275.404C243.884 275.609 243.611 275.724 243.327 275.725Z" fill="#E6E6E6"/>
<path d="M284.777 269.786H273.408C272.381 269.786 271.549 270.636 271.549 271.684V274.643C271.549 275.692 272.381 276.542 273.408 276.542H284.777C285.804 276.542 286.637 275.692 286.637 274.643V271.684C286.637 270.636 285.804 269.786 284.777 269.786Z" fill="#6C63FF"/>
<path d="M300.494 283.298H257.692C256.665 283.298 255.833 284.148 255.833 285.196V288.155C255.833 289.204 256.665 290.054 257.692 290.054H300.494C301.52 290.054 302.353 289.204 302.353 288.155V285.196C302.353 284.148 301.52 283.298 300.494 283.298Z" fill="#E6E6E6"/>
<path d="M300.494 296.81H257.692C256.665 296.81 255.833 297.66 255.833 298.708V301.667C255.833 302.716 256.665 303.566 257.692 303.566H300.494C301.52 303.566 302.353 302.716 302.353 301.667V298.708C302.353 297.66 301.52 296.81 300.494 296.81Z" fill="#E6E6E6"/>
<path d="M290.195 365.493C289.999 365.502 289.805 365.45 289.639 365.343C289.474 365.236 289.344 365.079 289.269 364.895C289.193 364.71 289.175 364.506 289.217 364.31C289.258 364.115 289.358 363.937 289.502 363.801L289.567 363.535C289.559 363.514 289.55 363.492 289.541 363.471C289.344 362.995 289.013 362.59 288.591 362.305C288.169 362.02 287.673 361.87 287.167 361.872C286.661 361.874 286.167 362.028 285.746 362.316C285.326 362.604 284.998 363.012 284.805 363.489C284.03 365.394 283.044 367.302 282.801 369.317C282.694 370.207 282.739 371.11 282.934 371.984C281.114 367.932 280.17 363.527 280.163 359.069C280.163 357.95 280.224 356.833 280.346 355.721C280.447 354.809 280.586 353.905 280.765 353.006C281.74 348.131 283.834 343.562 286.875 339.674C288.347 338.854 289.537 337.594 290.285 336.062C290.556 335.511 290.748 334.924 290.854 334.317C290.688 334.339 290.519 334.353 290.353 334.364C290.301 334.367 290.247 334.37 290.195 334.373L290.176 334.373C289.993 334.382 289.812 334.336 289.655 334.242C289.497 334.148 289.369 334.009 289.287 333.843C289.205 333.676 289.172 333.489 289.191 333.303C289.211 333.118 289.282 332.942 289.398 332.798C289.469 332.708 289.541 332.618 289.613 332.528C289.722 332.389 289.833 332.252 289.942 332.114C289.955 332.1 289.966 332.086 289.977 332.072C290.103 331.913 290.228 331.758 290.353 331.599C290.124 331.237 289.817 330.934 289.455 330.713C288.2 329.963 286.469 330.482 285.563 331.641C284.654 332.8 284.483 334.425 284.798 335.873C285.109 337.105 285.622 338.274 286.317 339.33C286.249 339.419 286.178 339.505 286.11 339.594C284.866 341.226 283.782 342.98 282.874 344.829C283.095 342.757 282.831 340.662 282.104 338.716C281.367 336.901 279.987 335.373 278.771 333.805C278.449 333.383 278.012 333.069 277.516 332.901C277.019 332.733 276.485 332.719 275.981 332.861C275.476 333.003 275.024 333.294 274.682 333.699C274.34 334.103 274.123 334.601 274.058 335.131C274.056 335.154 274.053 335.177 274.051 335.201C274.231 335.305 274.408 335.415 274.581 335.532C274.799 335.68 274.967 335.892 275.064 336.139C275.162 336.387 275.184 336.659 275.127 336.919C275.07 337.18 274.938 337.417 274.747 337.599C274.557 337.782 274.317 337.901 274.058 337.942L274.032 337.946C274.096 338.61 274.21 339.269 274.372 339.916C274.842 341.722 275.672 343.409 276.81 344.873C277.949 346.336 279.371 347.543 280.988 348.419C281.094 348.474 281.198 348.53 281.304 348.582C280.391 351.224 279.818 353.976 279.6 356.768C279.477 358.416 279.484 360.071 279.622 361.717L279.614 361.659C279.265 359.828 278.309 358.176 276.906 356.982C274.822 355.235 271.878 354.591 269.629 353.186C269.391 353.029 269.113 352.946 268.829 352.945C268.545 352.944 268.267 353.027 268.027 353.182C267.787 353.338 267.596 353.56 267.476 353.822C267.356 354.085 267.312 354.377 267.349 354.665L267.359 354.726C267.694 354.865 268.02 355.026 268.336 355.207C268.516 355.311 268.693 355.421 268.866 355.538C269.083 355.686 269.252 355.898 269.349 356.146C269.446 356.393 269.468 356.665 269.412 356.926C269.355 357.186 269.223 357.423 269.032 357.605C268.842 357.788 268.601 357.907 268.343 357.948L268.317 357.952C268.297 357.955 268.281 357.958 268.262 357.96C268.835 359.356 269.638 360.641 270.638 361.759C271.873 363.112 273.365 364.193 275.024 364.936C276.682 365.679 278.472 366.068 280.283 366.08H280.286C280.778 368.261 281.49 370.384 282.411 372.415H290.005C290.032 372.329 290.056 372.24 290.081 372.154C289.378 372.199 288.672 372.156 287.98 372.026C288.543 371.32 289.106 370.609 289.67 369.903C289.682 369.89 289.694 369.876 289.705 369.861C289.991 369.5 290.279 369.142 290.565 368.78L290.565 368.78C290.581 367.673 290.456 366.568 290.195 365.493ZM281.5 348.03L281.504 348.024L281.5 348.035V348.03ZM279.818 363.509L279.753 363.359C279.755 363.251 279.755 363.143 279.753 363.031C279.753 363.001 279.747 362.97 279.747 362.94C279.772 363.131 279.793 363.323 279.821 363.515L279.818 363.509Z" fill="#2F2E41"/>
<path d="M243.113 261.286C242.829 261.285 242.557 261.17 242.356 260.965C242.155 260.76 242.042 260.482 242.042 260.192V252.754C242.042 252.463 242.154 252.185 242.355 251.98C242.556 251.775 242.829 251.66 243.113 251.66C243.397 251.66 243.67 251.775 243.871 251.98C244.071 252.185 244.184 252.463 244.184 252.754V260.192C244.184 260.482 244.071 260.76 243.87 260.965C243.669 261.17 243.397 261.285 243.113 261.286Z" fill="#E6E6E6"/>
<path d="M271.612 232.845C271.613 232.555 271.726 232.277 271.926 232.072C272.127 231.867 272.4 231.751 272.684 231.751H279.969C280.253 231.751 280.526 231.866 280.727 232.071C280.928 232.277 281.041 232.555 281.041 232.845C281.041 233.135 280.928 233.413 280.727 233.618C280.526 233.823 280.253 233.939 279.969 233.939H272.684C272.4 233.938 272.127 233.823 271.926 233.618C271.726 233.413 271.613 233.135 271.612 232.845Z" fill="white"/>
<path d="M243.327 288.414C243.043 288.413 242.771 288.298 242.57 288.093C242.369 287.888 242.256 287.61 242.256 287.32V279.881C242.256 279.591 242.369 279.313 242.57 279.108C242.77 278.903 243.043 278.788 243.327 278.788C243.611 278.788 243.884 278.903 244.085 279.108C244.286 279.313 244.399 279.591 244.399 279.881V287.32C244.398 287.61 244.285 287.888 244.084 288.093C243.884 288.298 243.611 288.413 243.327 288.414Z" fill="#E6E6E6"/>
<path d="M284.041 233.939C284.632 233.939 285.112 233.449 285.112 232.845C285.112 232.241 284.632 231.751 284.041 231.751C283.449 231.751 282.969 232.241 282.969 232.845C282.969 233.449 283.449 233.939 284.041 233.939Z" fill="white"/>
<path d="M569.298 375.755L201.699 375.889C201.563 375.889 201.434 375.834 201.339 375.736C201.243 375.639 201.19 375.506 201.19 375.368C201.19 375.23 201.243 375.098 201.339 375C201.434 374.903 201.563 374.848 201.699 374.847L569.298 374.713C569.433 374.713 569.563 374.768 569.659 374.865C569.755 374.963 569.808 375.096 569.808 375.234C569.808 375.372 569.755 375.505 569.659 375.602C569.563 375.7 569.433 375.755 569.298 375.755Z" fill="#CACACA"/>
<path d="M358.374 260.895L356.44 261.318C356.427 260.492 356.327 259.67 356.139 258.867C355.964 259.851 355.593 260.788 355.051 261.621L343.961 264.039L333.314 252.567C333.298 246.831 336.418 242.472 342.011 242.472C342.348 242.472 342.698 242.489 343.051 242.522C346.073 242.006 349.174 242.707 351.7 244.477C354.226 246.248 355.981 248.95 356.594 252.015C360.559 256.001 359.121 258.344 358.374 260.895Z" fill="#2F2E41"/>
<path d="M363.826 395.05H367.848L369.762 379.208L363.825 379.209L363.826 395.05Z" fill="#FFB6B6"/>
<path d="M362.828 393.024L369.187 392.636V395.418L375.232 399.681C375.531 399.891 375.756 400.194 375.874 400.544C375.993 400.894 375.998 401.274 375.89 401.627C375.782 401.981 375.566 402.29 375.274 402.51C374.982 402.729 374.628 402.848 374.265 402.848H366.695L365.39 400.096L364.881 402.848H362.026L362.828 393.024Z" fill="#2F2E41"/>
<path d="M316.699 390.579L320.198 392.606L329.519 379.792L324.355 376.801L316.699 390.579Z" fill="#FFB6B6"/>
<path d="M316.811 388.315L322.529 391.182L321.184 393.601L324.382 400.355C324.54 400.688 324.589 401.065 324.523 401.429C324.456 401.793 324.278 402.126 324.013 402.379C323.748 402.633 323.411 402.793 323.05 402.836C322.69 402.88 322.325 402.805 322.01 402.622L315.425 398.808L315.62 395.757L313.847 397.894L311.365 396.455L316.811 388.315Z" fill="#2F2E41"/>
<path d="M378.694 263.67C378.179 263.746 377.686 263.937 377.251 264.228C376.815 264.52 376.448 264.906 376.174 265.358C375.9 265.81 375.727 266.318 375.666 266.847C375.606 267.375 375.659 267.91 375.823 268.415L369.668 273.854L371.993 278.48L380.58 270.673C381.392 270.336 382.055 269.706 382.443 268.903C382.831 268.1 382.916 267.18 382.684 266.317C382.452 265.453 381.917 264.707 381.182 264.219C380.446 263.732 379.561 263.536 378.694 263.67Z" fill="#FFB6B6"/>
<path d="M372.496 282.375C370.443 285.55 365.841 288.617 359.011 291.335C358.634 291.489 358.23 291.562 357.825 291.548C357.419 291.535 357.021 291.435 356.655 291.256C354.077 290.059 352.425 285.607 352.27 285.175L347.278 278.3C347.19 278.2 344.856 275.495 345.123 272.836C345.183 272.279 345.36 271.741 345.643 271.261C345.926 270.78 346.307 270.368 346.761 270.052C350.54 267.192 359.009 277.125 360.108 278.446L365.635 275.008L369.662 273.173L372.913 269.134L377.491 273.913L373.374 280.6C373.154 281.226 372.859 281.823 372.496 282.375Z" fill="#2F2E41"/>
<path d="M358.14 294.557C358.14 294.557 369.967 313.792 367.825 315.98C365.682 318.168 362.347 318.742 362.347 318.742L354.968 308.979L358.14 294.557Z" fill="#2F2E41"/>
<path d="M347.682 268.287L353.257 272.137C355.848 273.926 357.796 276.529 358.807 279.552C359.818 282.574 359.836 285.851 358.859 288.884L357.289 293.755L347.682 268.287Z" fill="#2F2E41"/>
<path d="M337.825 320.793L337.08 323.443L334.537 355.402L321.832 379.577L327.895 383.999L345.221 361.003L352.074 338.171L362.835 388.716L370.92 388.126L365.305 318.046L354.65 298.32L337.825 320.793Z" fill="#2F2E41"/>
<path d="M346.734 269.255L354.493 275.729C356.195 277.149 357.422 279.077 358 281.243C358.263 282.227 358.388 283.243 358.371 284.263L358.14 298.32L365.253 317.73C365.253 317.73 345.968 325.168 343.397 318.605C340.825 312.042 346.734 269.255 346.734 269.255Z" fill="#6C63FF"/>
<path d="M349.055 322.012C339.42 322.012 337.073 322.086 336.92 322.054L336.768 322.023V316.107L339.111 305.478C338.837 302.179 338.196 297.828 338.254 294.102C338.464 280.636 337.815 267.483 337.815 267.483L342.914 262.677L345.231 264.216L349.528 268.603C354.523 281.153 358.486 292.968 358.511 293.727L358.825 306.791L357.539 312.042C351.723 316.233 357.037 322.012 349.055 322.012Z" fill="#2F2E41"/>
<path opacity="0.2" d="M339.976 279.214L338.805 286.678L346.734 290.017L339.976 279.214Z" fill="black"/>
<path d="M347.964 261.277C352.251 261.277 355.727 257.729 355.727 253.351C355.727 248.974 352.251 245.426 347.964 245.426C343.677 245.426 340.201 248.974 340.201 253.351C340.201 257.729 343.677 261.277 347.964 261.277Z" fill="#FFB6B6"/>
<path opacity="0.2" d="M334.957 293.565C337.023 296.008 339.825 297.68 342.923 298.32C346.022 298.959 349.24 298.529 352.073 297.098L353.763 296.244L334.957 293.565Z" fill="black"/>
<path d="M361.969 291.741C361.623 291.344 361.196 291.029 360.717 290.818C360.239 290.608 359.721 290.507 359.201 290.523C358.68 290.54 358.169 290.672 357.704 290.911C357.239 291.151 356.831 291.491 356.509 291.909L348.671 289.663L346.172 294.193L357.285 297.206C358.008 297.712 358.888 297.93 359.758 297.818C360.628 297.706 361.427 297.272 362.005 296.598C362.582 295.924 362.898 295.058 362.891 294.163C362.885 293.267 362.557 292.406 361.969 291.741Z" fill="#FFB6B6"/>
<path d="M343.265 296.768C339.539 296.768 334.497 294.538 328.511 290.217C328.178 289.981 327.896 289.677 327.683 289.324C327.471 288.971 327.332 288.577 327.277 288.166C326.835 285.31 329.564 281.45 329.831 281.08L332.699 273.038C332.732 272.907 333.657 269.428 335.977 268.19C336.466 267.934 337.003 267.79 337.551 267.766C338.1 267.742 338.647 267.84 339.155 268.052C343.575 269.695 340.124 282.384 339.65 284.048L345.506 286.862L349.225 289.283L354.317 289.826L352.935 296.36L345.2 296.537C344.567 296.695 343.917 296.773 343.265 296.768Z" fill="#2F2E41"/>
<path d="M357.273 248.138C356.651 248.963 354.51 249.693 351.968 250.282C351.972 250.228 351.972 250.174 351.972 250.12C351.959 249.294 351.858 248.472 351.671 247.669C351.495 248.653 351.125 249.59 350.582 250.423C350.542 250.485 350.501 250.547 350.456 250.609C348.275 251.049 345.968 251.389 344.16 251.617C345.403 256.188 350.168 259.937 349.652 262.715L335.691 265.627C335.776 264.472 335.686 263.311 335.422 262.185C335.155 263.671 334.45 265.039 333.399 266.104L332.213 266.353L331.86 264.573C328.797 257.063 333.066 249.374 340.061 245.396C341.309 243.487 343.245 242.16 345.448 241.705L347.19 241.34C348.29 241.11 349.422 241.104 350.524 241.322C351.625 241.539 352.674 241.976 353.611 242.607C354.547 243.238 355.352 244.051 355.98 245C356.609 245.949 357.048 247.015 357.273 248.138Z" fill="#2F2E41"/>
<path d="M390.625 391.823L390.831 387.084C392.983 385.909 395.384 385.289 397.824 385.276C394.465 388.08 394.885 393.484 392.608 397.254C391.889 398.425 390.921 399.415 389.776 400.151C388.632 400.888 387.339 401.352 385.995 401.509L383.184 403.266C382.799 401.071 382.884 398.816 383.434 396.658C383.983 394.5 384.985 392.489 386.369 390.764C387.155 389.804 388.057 388.949 389.052 388.219C389.725 390.031 390.625 391.823 390.625 391.823Z" fill="#F2F2F2"/>
</g>
<g clip-path="url(#clip2_612_634)">
<path d="M36.1178 545.214L42.2932 545.214L45.2308 520.914L36.1165 520.914L36.1178 545.214Z" fill="#FFB6B6"/>
<path d="M35.9004 551.786L54.8906 551.786V551.541C54.8904 547.376 51.5812 544 47.4991 544L44.0298 541.315L37.5578 544.001L35.9001 544.001L35.9004 551.786Z" fill="#2F2E41"/>
<path d="M63.4955 545.214L69.6708 545.214L72.6085 520.914L63.4942 520.914L63.4955 545.214Z" fill="#FFB6B6"/>
<path d="M63.2781 551.786L82.2683 551.786V551.541C82.268 547.376 78.9589 544 74.8768 544L71.4075 541.315L64.9355 544.001L63.2778 544.001L63.2781 551.786Z" fill="#2F2E41"/>
<path d="M66.4382 409.602L30.8096 410.367C30.8096 410.367 24.4045 421.08 29.2947 436.192L28.7469 440.401L30.9971 446.905L32.1223 466.8L30.9971 469.861L31.7472 475.6C31.7472 475.6 28.7469 513.478 36.2476 532.608L45.2485 532.225L48.6239 482.314L46.7487 478.661L47.1237 477.131L51.6242 454.175L56.1246 466.035V472.625L60.25 477.513C60.25 477.513 58.7499 522.66 62.8753 531.843H72.9525L76.7516 470.626L73.0013 435.045L73.7513 432.749L72.6262 431.601L73.3763 427.775L66.4382 409.602Z" fill="#2F2E41"/>
<path d="M51.2492 339.777L40.3731 337.099L37.3728 344.368C37.3728 344.368 21.8498 352.785 21.0997 364.263C21.0997 364.263 18.996 373.446 20.8712 377.654C22.7464 381.863 30.6221 395.254 30.6221 395.254C30.6221 395.254 23.4964 418.593 25.3716 419.74C27.2468 420.888 71.8762 418.593 71.8762 416.297C71.8762 414.001 64.4487 389.898 64.4487 389.898L62.8753 348.577L52.7493 344.751L51.2492 339.777Z" fill="#3F3D56"/>
<path d="M22.2542 433.96C24.5305 432.789 25.4461 429.958 24.2991 427.636C24.1837 427.402 24.0477 427.186 23.9015 426.982L29.9534 384.652L21.5749 384.925L17.192 426.169C15.6035 427.544 15.0767 429.892 16.0555 431.873C17.2025 434.196 19.9777 435.13 22.2542 433.96Z" fill="#FFB6B6"/>
<path d="M101.755 413.982C102.671 411.555 101.486 408.83 99.1074 407.895C98.868 407.801 98.6253 407.734 98.3821 407.682L75.0029 372.171L68.9745 378.113L92.8756 411.677C92.6033 413.784 93.7588 415.885 95.7884 416.682C98.1669 417.617 100.838 416.408 101.755 413.982Z" fill="#FFB6B6"/>
<path d="M37.5217 373.975C39.889 365.678 35.9571 357.213 27.4868 357.254C25.0386 357.266 23.1365 357.991 22.6094 359.997C20.7643 367.018 19.7583 377.617 19.7583 377.617L17.5695 388.902L18.8952 391.245L16.1315 398.808L17.4721 402.385L17.7619 420.656L24.5126 420.273L31.9506 406.345L34.7948 404.62C34.7948 404.62 32.5111 382.1 37.0536 375.616L37.5217 373.975Z" fill="#3F3D56"/>
<path d="M67.7596 353.556C63.8122 345.911 53.7064 344.1 47.6417 350.132C45.8888 351.876 45.0142 353.745 46.0012 355.562C49.4557 361.92 57.463 368.766 57.463 368.766L67.3239 384.938L69.873 385.684L73.0351 393.082L79.8111 401.209L88.7859 406.038L94.0365 400.681L92.9215 393.796L79.41 375.43C79.41 375.43 69.6883 362.951 68.54 355.068L67.7596 353.556Z" fill="#3F3D56"/>
<path d="M49.1826 337.54C48.9342 337.571 48.6865 337.594 48.4402 337.605C47.6737 337.648 46.9165 337.604 46.1867 337.477C43.9693 337.115 41.9548 336.043 40.4004 334.472C38.7571 332.814 37.6324 330.601 37.3284 328.082C36.6162 322.136 40.7668 316.719 46.5957 315.992C52.3409 315.272 57.5781 319.371 58.4141 325.181C58.4273 325.271 58.4408 325.357 58.4502 325.447C59.1621 331.397 55.0155 336.811 49.1826 337.54Z" fill="#FFB6B6"/>
<path d="M60.811 324.783C59.3011 325.545 56.8339 323.15 55.889 324.528C55.7355 324.23 55.566 323.942 55.3985 323.67C55.247 323.426 55.0302 322.906 54.7793 322.817C55.0968 323.598 55.0267 324.657 54.6973 325.563C53.2079 326.131 51.2582 324.874 49.8797 323.388C47.7151 321.057 44.1806 327.034 45.0163 330.127C43.9527 328.802 41.6447 329.549 40.8626 331.064C40.0809 332.575 41.4017 333.786 41.6842 335.472L39.552 335.196C38.2067 333.859 38.3008 331.607 37.193 330.058C35.3426 327.465 34.6257 324.82 36.0167 322.144C37.2506 319.778 37.3659 316.716 39.6295 315.352C38.6405 314.859 42.1577 315.629 41.2182 314.022C40.2746 312.417 45.3044 312.223 45.6324 313.082C47.0697 311.327 48.5194 310.17 50.2874 311.577C52.0238 312.96 51.8441 314.414 53.8834 314.284C54.8403 314.223 54.7352 316.043 55.3041 316.837C55.8697 317.626 58.0681 318.133 58.1751 318.048C58.7558 317.585 60.7313 321.531 60.7313 321.531C60.7313 321.531 62.3332 324.011 60.811 324.783Z" fill="#2F2E41"/>
<path d="M193.891 393.647C158.163 393.647 129.2 423.195 129.2 459.643C129.2 496.091 158.163 525.638 193.891 525.638C229.618 525.638 279.064 489.501 258.581 459.643C238.099 429.785 229.618 393.647 193.891 393.647Z" fill="#F2F2F2"/>
<path d="M107.307 396.787C107.887 396.787 108.359 397.268 108.359 397.86V432.199C108.359 432.791 107.887 433.272 107.307 433.272C106.727 433.272 106.255 432.791 106.255 432.199V397.86C106.255 397.268 106.727 396.787 107.307 396.787Z" fill="#3F3D56"/>
<path d="M284.023 371.033C284.603 371.033 285.075 371.514 285.075 372.106V380.691C285.075 381.282 284.603 381.764 284.023 381.764C283.443 381.764 282.971 381.282 282.971 380.691V372.106C282.971 371.514 283.443 371.033 284.023 371.033Z" fill="#3F3D56"/>
<path d="M284.023 396.787C284.603 396.787 285.075 397.268 285.075 397.86V414.493C285.075 415.085 284.603 415.566 284.023 415.566C283.443 415.566 282.971 415.085 282.971 414.493V397.86C282.971 397.268 283.443 396.787 284.023 396.787Z" fill="#3F3D56"/>
<path d="M284.023 420.395C284.603 420.395 285.075 420.876 285.075 421.468V438.101C285.075 438.693 284.603 439.174 284.023 439.174C283.443 439.174 282.971 438.693 282.971 438.101V421.468C282.971 420.876 283.443 420.395 284.023 420.395Z" fill="#3F3D56"/>
<path d="M189.683 337.23C190.263 337.23 190.735 337.711 190.735 338.303V354.936C190.735 355.528 190.263 356.009 189.683 356.009C189.103 356.009 188.631 355.528 188.631 354.936V338.303C188.631 337.711 189.103 337.23 189.683 337.23Z" fill="#3F3D56"/>
<path d="M28.537 543.064C27.4504 543.134 26.85 541.756 27.672 540.954L27.7538 540.622C27.743 540.595 27.7322 540.569 27.7213 540.542C26.6225 537.869 22.8985 537.888 21.809 540.565C20.842 542.941 19.6109 545.321 19.3077 547.833C19.1719 548.942 19.233 550.072 19.4742 551.16C17.2084 546.111 16.016 540.597 16.016 535.052C16.016 533.659 16.0908 532.266 16.2436 530.876C16.3693 529.74 16.5426 528.61 16.7668 527.49C17.9795 521.44 20.6054 515.677 24.393 510.863C26.2138 509.848 27.7322 508.26 28.6494 506.358C28.9789 505.672 29.2371 504.934 29.3594 504.182C29.1522 504.209 28.5781 500.99 28.7343 500.792C28.4456 500.345 27.9287 500.123 27.6133 499.687C26.0448 497.517 23.8838 497.896 22.7556 500.844C20.3457 502.085 20.3223 504.143 21.8011 506.122C22.7419 507.381 22.8711 509.085 23.6966 510.433C23.6117 510.544 23.5233 510.652 23.4384 510.763C21.8811 512.8 20.5341 514.991 19.3986 517.292C19.7196 514.734 19.2458 511.653 18.4381 509.667C17.5186 507.405 15.7953 505.499 14.2776 503.543C12.4547 501.193 8.71667 502.219 8.3955 505.197C8.39239 505.226 8.38936 505.255 8.38638 505.284C8.6118 505.413 8.83265 505.551 9.04837 505.697C10.2788 506.527 9.85355 508.473 8.39563 508.702L8.36263 508.707C8.44416 509.536 8.58345 510.357 8.78723 511.165C6.84031 518.846 11.0436 521.643 17.0453 521.769C17.1777 521.838 17.3069 521.908 17.4393 521.973C16.8312 523.72 16.3455 525.512 15.9854 527.328C15.6627 528.932 15.4385 530.554 15.3128 532.183C15.1565 534.238 15.1701 536.303 15.34 538.355L15.3298 538.282C14.8984 536.022 13.6959 533.912 11.9498 532.45C9.3487 530.27 5.67386 529.467 2.86773 527.715C1.51693 526.871 -0.213985 527.961 0.0217686 529.559L0.0332279 529.636C0.45105 529.809 0.858667 530.01 1.25274 530.235C1.47815 530.365 1.69897 530.503 1.91472 530.648C3.14515 531.478 2.71991 533.424 1.26198 533.654L1.22895 533.659C1.20516 533.662 1.18478 533.666 1.16106 533.669C1.87781 535.406 2.8765 537.017 4.1266 538.407C5.34396 545.112 10.5725 545.748 16.1655 543.796H16.1689C16.7803 546.513 17.6737 549.167 18.8219 551.697H28.2995C28.3335 551.589 28.364 551.479 28.3946 551.371C27.5182 551.427 26.6349 551.375 25.7721 551.212C26.4753 550.331 27.1785 549.444 27.8816 548.564C27.8986 548.547 27.9122 548.529 27.9258 548.512C28.2825 548.062 28.6426 547.615 28.9993 547.164L28.9994 547.163C29.0218 545.781 28.859 544.402 28.537 543.064Z" fill="#F2F2F2"/>
<path d="M297.057 551.725C297.057 552.08 296.778 552.364 296.431 552.364H0.699677C0.3526 552.364 0.073822 552.08 0.073822 551.725C0.073822 551.371 0.3526 551.087 0.699677 551.087H296.431C296.778 551.087 297.057 551.371 297.057 551.725Z" fill="#CCCCCC"/>
<path d="M222.175 455.194H258.581V454.121H222.175C219.013 454.121 216.44 451.496 216.44 448.27V423.158H215.388V448.27C215.388 452.088 218.433 455.194 222.175 455.194Z" fill="#6C63FF"/>
<path d="M152.71 509.63H235.511V510.703H152.71V509.63Z" fill="#6C63FF"/>
<path d="M100.174 448.019H144.402C146.789 448.019 148.73 446.038 148.73 443.603V399.034C148.73 396.6 146.789 394.619 144.402 394.619H100.174C97.7877 394.619 95.846 396.6 95.846 399.034V443.603C95.846 446.038 97.7877 448.019 100.174 448.019Z" fill="#E6E6E6"/>
<path d="M136.165 395.934C142.392 395.934 147.441 401.084 147.441 407.437V442.657C147.441 444.892 145.665 446.703 143.475 446.703H116.431C105.775 446.703 97.1357 437.89 97.1357 427.019V399.98C97.1357 397.745 98.9112 395.934 101.101 395.934L136.165 395.934Z" fill="white"/>
<path d="M110.443 408.886H134.226C134.68 408.886 135.049 408.51 135.049 408.047C135.049 407.584 134.68 407.208 134.226 407.208H110.443C109.989 407.208 109.62 407.584 109.62 408.047C109.62 408.51 109.989 408.886 110.443 408.886Z" fill="#E6E6E6"/>
<path d="M110.443 426.788H134.226C134.68 426.788 135.049 426.411 135.049 425.948C135.049 425.485 134.68 425.109 134.226 425.109H110.443C109.989 425.109 109.62 425.485 109.62 425.948C109.62 426.411 109.989 426.788 110.443 426.788Z" fill="#E6E6E6"/>
<path d="M100.785 417.843H143.884C144.338 417.843 144.707 417.466 144.707 417.003C144.707 416.541 144.338 416.164 143.884 416.164H100.785C100.331 416.164 99.9621 416.541 99.9621 417.003C99.9621 417.466 100.331 417.843 100.785 417.843Z" fill="#E6E6E6"/>
<path d="M100.345 434.066H115.915C116.368 434.066 116.737 433.689 116.737 433.227C116.737 432.764 116.368 432.387 115.915 432.387H100.345C99.8911 432.387 99.522 432.764 99.522 433.227C99.522 433.689 99.8911 434.066 100.345 434.066Z" fill="#E6E6E6"/>
<path d="M193.072 536.82H228.192C230.087 536.82 231.629 535.247 231.629 533.314V497.923C231.629 495.989 230.087 494.417 228.192 494.417H193.072C191.177 494.417 189.635 495.989 189.635 497.923V533.314C189.635 535.247 191.177 536.82 193.072 536.82Z" fill="#E6E6E6"/>
<path d="M221.651 495.461C226.596 495.461 230.605 499.551 230.605 504.595V532.563C230.605 534.337 229.195 535.775 227.456 535.775H205.981C197.519 535.775 190.659 528.777 190.659 520.145V498.674C190.659 496.9 192.069 495.461 193.808 495.461L221.651 495.461Z" fill="white"/>
<path d="M201.226 505.746H220.112C220.472 505.746 220.765 505.447 220.765 505.079C220.765 504.712 220.472 504.413 220.112 504.413H201.226C200.866 504.413 200.573 504.712 200.573 505.079C200.573 505.447 200.866 505.746 201.226 505.746Z" fill="#E6E6E6"/>
<path d="M201.226 519.961H220.112C220.472 519.961 220.765 519.662 220.765 519.294C220.765 518.926 220.472 518.627 220.112 518.627H201.226C200.866 518.627 200.573 518.926 200.573 519.294C200.573 519.662 200.866 519.961 201.226 519.961Z" fill="#E6E6E6"/>
<path d="M193.557 512.858H227.781C228.141 512.858 228.434 512.558 228.434 512.191C228.434 511.823 228.141 511.524 227.781 511.524H193.557C193.197 511.524 192.904 511.823 192.904 512.191C192.904 512.558 193.197 512.858 193.557 512.858Z" fill="#E6E6E6"/>
<path d="M193.207 525.74H205.571C205.931 525.74 206.224 525.441 206.224 525.074C206.224 524.706 205.931 524.407 205.571 524.407H193.207C192.847 524.407 192.554 524.706 192.554 525.074C192.554 525.441 192.847 525.74 193.207 525.74Z" fill="#E6E6E6"/>
<path d="M217.619 422.887H243.591C244.992 422.887 246.133 421.724 246.133 420.294V394.121C246.133 392.691 244.992 391.528 243.591 391.528H217.619C216.217 391.528 215.077 392.691 215.077 394.121V420.294C215.077 421.724 216.217 422.887 217.619 422.887Z" fill="#E6E6E6"/>
<path d="M238.754 392.3C242.411 392.3 245.375 395.325 245.375 399.055V419.738C245.375 421.051 244.333 422.114 243.047 422.114H227.165C220.907 422.114 215.834 416.939 215.834 410.555V394.676C215.834 393.364 216.877 392.3 218.163 392.3L238.754 392.3Z" fill="white"/>
<path d="M223.649 399.906H237.615C237.882 399.906 238.099 399.685 238.099 399.413C238.099 399.141 237.882 398.92 237.615 398.92H223.649C223.382 398.92 223.165 399.141 223.165 399.413C223.165 399.685 223.382 399.906 223.649 399.906Z" fill="#E6E6E6"/>
<path d="M223.649 410.419H237.615C237.882 410.419 238.099 410.197 238.099 409.926C238.099 409.654 237.882 409.433 237.615 409.433H223.649C223.382 409.433 223.165 409.654 223.165 409.926C223.165 410.197 223.382 410.419 223.649 410.419Z" fill="#E6E6E6"/>
<path d="M217.977 405.166H243.287C243.553 405.166 243.77 404.945 243.77 404.673C243.77 404.401 243.553 404.18 243.287 404.18H217.977C217.711 404.18 217.494 404.401 217.494 404.673C217.494 404.945 217.711 405.166 217.977 405.166Z" fill="#E6E6E6"/>
<path d="M217.719 414.693H226.862C227.128 414.693 227.345 414.472 227.345 414.2C227.345 413.928 227.128 413.707 226.862 413.707H217.719C217.452 413.707 217.235 413.928 217.235 414.2C217.235 414.472 217.452 414.693 217.719 414.693Z" fill="#E6E6E6"/>
<path d="M141.823 455.887C138.918 455.887 136.563 453.485 136.563 450.522C136.563 447.558 138.918 445.156 141.823 445.156C144.727 445.156 147.082 447.558 147.082 450.522C147.082 453.485 144.727 455.887 141.823 455.887Z" fill="#6C63FF"/>
<path d="M215.98 428.523C213.075 428.523 210.721 426.121 210.721 423.157C210.721 420.194 213.075 417.792 215.98 417.792C218.885 417.792 221.239 420.194 221.239 423.157C221.239 426.121 218.885 428.523 215.98 428.523Z" fill="#6C63FF"/>
<path d="M190.735 502.03C187.83 502.03 185.476 499.628 185.476 496.665C185.476 493.702 187.83 491.299 190.735 491.299C193.64 491.299 195.994 493.702 195.994 496.665C195.994 499.628 193.64 502.03 190.735 502.03Z" fill="#6C63FF"/>
<path d="M179.374 353.258C175.754 353.258 172.819 350.327 172.819 346.711C172.819 343.096 175.754 340.165 179.374 340.165C182.994 340.165 185.929 343.096 185.929 346.711C185.929 350.327 182.994 353.258 179.374 353.258Z" fill="#F2F2F2"/>
<path d="M126.826 344.472H162.109C163.319 344.472 164.304 343.467 164.304 342.232C164.304 340.997 163.319 339.993 162.109 339.993H126.826C125.615 339.993 124.631 340.997 124.631 342.232C124.631 343.467 125.615 344.472 126.826 344.472Z" fill="#F2F2F2"/>
<path d="M99.2912 352.052H162.109C163.319 352.052 164.304 351.047 164.304 349.812C164.304 348.577 163.319 347.573 162.109 347.573H99.2912C98.0808 347.573 97.0959 348.577 97.0959 349.812C97.0959 351.047 98.0808 352.052 99.2912 352.052Z" fill="#F2F2F2"/>
<path d="M274.252 380.77C271.909 380.77 270.01 378.873 270.01 376.534C270.01 374.194 271.909 372.297 274.252 372.297C276.595 372.297 278.495 374.194 278.495 376.534C278.495 378.873 276.595 380.77 274.252 380.77Z" fill="#F2F2F2"/>
<path d="M240.244 375.084H263.078C263.862 375.084 264.499 374.434 264.499 373.635C264.499 372.836 263.862 372.186 263.078 372.186H240.244C239.46 372.186 238.823 372.836 238.823 373.635C238.823 374.434 239.46 375.084 240.244 375.084Z" fill="#F2F2F2"/>
<path d="M222.424 379.99H263.078C263.862 379.99 264.499 379.34 264.499 378.541C264.499 377.742 263.862 377.091 263.078 377.091H222.424C221.64 377.091 221.003 377.742 221.003 378.541C221.003 379.34 221.64 379.99 222.424 379.99Z" fill="#F2F2F2"/>
<path d="M146.975 531.54C144.632 531.54 142.732 529.643 142.732 527.304C142.732 524.964 144.632 523.067 146.975 523.067C149.318 523.067 151.217 524.964 151.217 527.304C151.217 529.643 149.318 531.54 146.975 531.54Z" fill="#F2F2F2"/>
<path d="M112.966 525.854H135.801C136.584 525.854 137.221 525.204 137.221 524.405C137.221 523.606 136.584 522.956 135.801 522.956H112.966C112.183 522.956 111.546 523.606 111.546 524.405C111.546 525.204 112.183 525.854 112.966 525.854Z" fill="#F2F2F2"/>
<path d="M95.1462 530.76H135.801C136.584 530.76 137.221 530.11 137.221 529.311C137.221 528.512 136.584 527.861 135.801 527.861H95.1462C94.3628 527.861 93.7254 528.512 93.7254 529.311C93.7254 530.11 94.3628 530.76 95.1462 530.76Z" fill="#F2F2F2"/>
<path d="M197.967 394.635H199.019V445.607H197.967V394.635Z" fill="#E6E6E6"/>
<path d="M198.493 448.826C196.75 448.826 195.337 447.385 195.337 445.607C195.337 443.829 196.75 442.388 198.493 442.388C200.235 442.388 201.648 443.829 201.648 445.607C201.648 447.385 200.235 448.826 198.493 448.826Z" fill="#E6E6E6"/>
<path d="M150.632 485.848C148.889 485.848 147.476 484.406 147.476 482.628C147.476 480.851 148.889 479.409 150.632 479.409C152.375 479.409 153.788 480.851 153.788 482.628C153.788 484.406 152.375 485.848 150.632 485.848Z" fill="#E6E6E6"/>
<path d="M235.834 441.851C234.092 441.851 232.679 440.41 232.679 438.632C232.679 436.854 234.092 435.413 235.834 435.413C237.577 435.413 238.99 436.854 238.99 438.632C238.99 440.41 237.577 441.851 235.834 441.851Z" fill="#E6E6E6"/>
<path d="M237.001 438.636L254.258 439.169L254.226 440.243L236.969 439.71L237.001 438.636Z" fill="#E6E6E6"/>
<path d="M124.96 494.953H151.129V482.628H150.077V493.88H124.96V494.953Z" fill="#E6E6E6"/>
<path d="M237.13 477.003C235.387 477.003 233.974 475.562 233.974 473.784C233.974 472.006 235.387 470.564 237.13 470.564C238.872 470.564 240.285 472.006 240.285 473.784C240.285 475.562 238.872 477.003 237.13 477.003Z" fill="#E6E6E6"/>
<path d="M211.77 486.108H237.938V473.784H236.886V485.035H211.77V486.108Z" fill="#E6E6E6"/>
<path d="M131.698 461.534H257.389V462.607H131.698V461.534Z" fill="#E6E6E6"/>
</g>
<defs>
<clipPath id="clip0_612_634">
<rect width="287.605" height="241.415" fill="white" transform="translate(503.646 232.317)"/>
</clipPath>
<clipPath id="clip1_612_634">
<rect width="368.62" height="241.415" fill="white" transform="translate(201.188 161.962)"/>
</clipPath>
<clipPath id="clip2_612_634">
<rect width="297.056" height="241.415" fill="white" transform="matrix(-1 0 0 1 297.057 310.949)"/>
</clipPath>
</defs>
</svg>
