<svg width="179" height="97" viewBox="0 0 179 97" fill="none" xmlns="http://www.w3.org/2000/svg">
<path d="M1.88234 94.6295C29.8614 77.7775 58.7944 55.4228 67.67 22.2319C69.0541 17.0561 70.4923 4.19412 62.517 3.17688C55.5181 2.28418 44.8656 9.33566 42.7816 15.753C37.3577 32.4555 35.6992 55.4212 59.2475 56.6267C84.8832 57.9389 115.366 44.3348 137.555 32.3585C148.317 26.5495 160.815 18.7056 169.491 10.02C175.25 4.25421 168.982 7.24227 163.952 8.47473C156.799 10.2276 140.282 14.2751 156.118 10.3944C162.553 8.81755 169.34 6.08126 174.709 3.01706C180.449 -0.258992 172.875 9.29517 172.279 10.8687C170.401 15.8295 168.765 23.5077 170.049 28.7496" stroke="#1C1C1C" stroke-width="3.69026" stroke-linecap="round"/>
</svg>
