<svg width="16" height="17" viewBox="0 0 16 17" fill="none" xmlns="http://www.w3.org/2000/svg">
<path d="M9.72448 0.793945C9.85445 0.81214 9.89479 0.834758 9.98166 0.934403C10.0063 1.05586 10.0045 1.1763 10.004 1.29989C10.0045 1.33554 10.005 1.37119 10.0055 1.40792C10.0068 1.52177 10.0071 1.63559 10.0074 1.74945C10.0081 1.82665 10.0089 1.90384 10.0098 1.98103C10.0118 2.17025 10.0129 2.35945 10.0133 2.54867C10.0548 2.54976 10.0548 2.54976 10.0971 2.55086C10.3584 2.55771 10.6196 2.56468 10.8809 2.57179C11.0152 2.57544 11.1495 2.57905 11.2838 2.58254C11.4135 2.58592 11.5432 2.58942 11.6729 2.59301C11.7223 2.59435 11.7716 2.59565 11.821 2.59691C11.8904 2.59868 11.9598 2.60061 12.0292 2.60257C12.0883 2.60415 12.0883 2.60415 12.1487 2.60577C12.2614 2.61202 12.3708 2.626 12.4822 2.64363C12.4827 2.62615 12.4831 2.60866 12.4836 2.59065C12.5213 1.30346 12.5213 1.30346 12.8474 0.939719C12.961 0.839713 12.961 0.839713 13.0527 0.838827C13.1658 0.848789 13.2519 0.858346 13.3507 0.916598C13.5043 1.16863 13.472 1.50132 13.4694 1.78506C13.4693 1.82574 13.4693 1.86642 13.4693 1.90833C13.4682 2.15509 13.4539 2.39794 13.4318 2.64363C13.4688 2.64461 13.4688 2.64461 13.5065 2.64561C13.7403 2.65184 13.974 2.65833 14.2077 2.66511C14.3279 2.66859 14.448 2.67197 14.5681 2.67511C14.6843 2.67816 14.8005 2.68147 14.9166 2.68496C14.9607 2.68624 15.0048 2.68743 15.0489 2.68852C15.7212 2.70528 15.7212 2.70528 15.8868 2.86322C15.9916 2.99486 15.9996 3.07782 15.9996 3.24115C15.9997 3.29977 15.9997 3.29977 15.9998 3.35958C15.9998 3.40319 15.9997 3.4468 15.9996 3.4904C15.9997 3.53656 15.9997 3.58271 15.9998 3.62886C15.9999 3.75601 15.9998 3.88317 15.9997 4.01032C15.9997 4.14737 15.9998 4.28441 15.9999 4.42146C16 4.69025 16 4.95904 15.9999 5.22783C15.9998 5.44661 15.9998 5.66539 15.9998 5.88417C15.9998 5.9153 15.9999 5.94643 15.9999 5.9785C15.9999 6.04174 15.9999 6.10499 15.9999 6.16823C16 6.76216 15.9999 7.35609 15.9997 7.95002C15.9996 8.45837 15.9996 8.96672 15.9997 9.47507C15.9999 10.0658 16 10.6566 15.9999 11.2473C15.9999 11.3106 15.9999 11.3738 15.9998 11.437C15.9998 11.4681 15.9998 11.4992 15.9998 11.5312C15.9998 11.7491 15.9998 11.967 15.9999 12.1849C16 12.4514 16 12.7179 15.9998 12.9844C15.9997 13.12 15.9997 13.2557 15.9998 13.3914C16.0005 14.3241 16.0005 14.3241 15.982 14.7868C15.9808 14.8163 15.9797 14.8458 15.9785 14.8762C15.9525 15.4332 15.8449 15.9877 15.4575 16.4124C14.9721 16.8454 14.321 16.8338 13.7076 16.8311C13.6509 16.8311 13.5942 16.8311 13.5375 16.8312C13.3831 16.8312 13.2288 16.8308 13.0744 16.8304C12.9073 16.83 12.7403 16.83 12.5732 16.8299C12.2467 16.8296 11.9201 16.8291 11.5935 16.8283C11.3281 16.8277 11.0628 16.8273 10.7974 16.8268C10.0447 16.8256 9.29199 16.8242 8.53927 16.8224C8.49876 16.8223 8.45826 16.8222 8.41652 16.8221C8.37597 16.822 8.33541 16.8219 8.29362 16.8218C7.63512 16.8202 6.97662 16.8193 6.31812 16.8187C5.64159 16.818 4.96507 16.8169 4.28854 16.8152C3.90886 16.8143 3.52918 16.8136 3.1495 16.8134C2.82657 16.8132 2.50365 16.8126 2.18073 16.8114C2.01595 16.8108 1.85118 16.8105 1.68641 16.8106C1.53565 16.8108 1.38491 16.8103 1.23416 16.8094C1.17955 16.8092 1.12495 16.8092 1.07035 16.8094C0.99624 16.8097 0.922174 16.8092 0.848068 16.8085C0.806877 16.8084 0.765685 16.8083 0.723246 16.8082C0.560442 16.7847 0.432292 16.6973 0.327694 16.5707C0.223961 16.2595 0.256365 15.8886 0.247728 15.5621C0.246375 15.5132 0.245019 15.4642 0.243662 15.4153C0.239302 15.2555 0.235253 15.0958 0.231253 14.936C0.230553 14.9084 0.229853 14.8807 0.229132 14.8523C0.198073 13.6217 0.191225 12.3916 0.192945 11.1607C0.193186 10.968 0.193095 10.7753 0.192831 10.5826C0.191116 9.29601 0.197228 8.01202 0.264389 6.72678C0.26572 6.70112 0.267051 6.67546 0.268423 6.64902C0.284625 6.33975 0.304173 6.03077 0.325715 5.72182C0.331216 5.64046 0.33671 5.55911 0.342198 5.47775C0.449073 3.91272 0.449073 3.91272 0.517608 3.5932C0.484966 3.59124 0.452325 3.58928 0.418694 3.58727C0.279663 3.55811 0.195076 3.51191 0.106127 3.40329C0.00960547 3.23673 -0.0183025 3.05462 0.0111703 2.8652C0.0707954 2.6779 0.168603 2.56542 0.327694 2.45372C0.429091 2.41992 0.501208 2.41825 0.607766 2.41847C0.664789 2.41847 0.664789 2.41847 0.722964 2.41848C0.784541 2.41872 0.78454 2.41872 0.847361 2.41897C0.889804 2.41903 0.932247 2.41908 0.974691 2.41911C1.08631 2.41923 1.19792 2.41954 1.30954 2.41989C1.42347 2.42021 1.53741 2.42036 1.65134 2.42052C1.87483 2.42086 2.09831 2.4214 2.32179 2.42206C2.32343 2.39116 2.32508 2.36026 2.32677 2.32843C2.34015 2.1009 2.35591 1.87877 2.40884 1.65647C2.41435 1.63274 2.41986 1.60901 2.42553 1.58456C2.56149 1.02579 2.56149 1.02579 2.79658 0.871098C2.93501 0.868626 2.99875 0.887996 3.10914 0.97199C3.24118 1.14674 3.21289 1.36879 3.21201 1.57932C3.21214 1.60743 3.21226 1.63554 3.21238 1.66451C3.21201 1.92957 3.19304 2.18763 3.1764 2.45372C3.9598 2.45372 4.7432 2.45372 5.55033 2.45372C5.55033 2.32837 5.55033 2.20303 5.55033 2.07389C5.56021 1.98272 5.57109 1.89639 5.58792 1.80682C5.59206 1.78418 5.59621 1.76155 5.60048 1.73822C5.65647 1.45367 5.74602 1.16299 5.93016 0.934403C6.03251 0.883227 6.13603 0.884733 6.24668 0.90275C6.34066 0.964734 6.39409 1.00995 6.41813 1.12305C6.4339 1.29017 6.44086 1.45514 6.43969 1.62296C6.43962 1.6603 6.43962 1.6603 6.43955 1.69839C6.43938 1.77674 6.43898 1.85508 6.43857 1.93343C6.43842 1.98703 6.43827 2.04063 6.43814 2.09423C6.4378 2.22461 6.43725 2.35499 6.4366 2.48537C6.46637 2.4852 6.49614 2.48504 6.52681 2.48487C7.39399 2.48051 8.26016 2.49494 9.12705 2.51702C9.12953 2.49856 9.13201 2.48011 9.13457 2.46109C9.14616 2.3756 9.15799 2.29015 9.16983 2.2047C9.17373 2.17568 9.17762 2.14666 9.18164 2.11677C9.35852 0.849636 9.35852 0.849636 9.72448 0.793945ZM1.02405 5.46069C1.01985 5.97085 1.02462 6.48043 1.03591 6.99046C1.05359 7.80422 1.06298 8.61804 1.07152 9.43195C1.07185 9.4627 1.07217 9.49345 1.07251 9.52513C1.07757 10.0055 1.08248 10.4859 1.08735 10.9662C1.10601 12.9229 1.10601 12.9229 1.13483 14.8794C1.1354 14.9131 1.13597 14.9468 1.13655 14.9816C1.14339 15.4447 1.14339 15.4447 1.18231 15.906C1.32747 15.929 1.46701 15.9417 1.61394 15.9424C1.65502 15.9427 1.69609 15.9429 1.73841 15.9432C1.78347 15.9433 1.82852 15.9435 1.87357 15.9436C1.92152 15.9439 1.96947 15.9441 2.01743 15.9444C2.12091 15.945 2.22439 15.9455 2.32787 15.9459C2.49453 15.9465 2.66118 15.9474 2.82784 15.9483C3.12523 15.9499 3.42262 15.9513 3.72001 15.9526C4.21453 15.9549 4.70906 15.9573 5.20358 15.9599C5.26202 15.9602 5.32045 15.9605 5.37888 15.9608C6.21891 15.9651 7.05881 15.9731 7.89877 15.9846C9.16316 16.0019 10.4274 16.0069 11.6919 16.0068C11.9209 16.0068 12.1499 16.0072 12.3789 16.0076C12.6047 16.008 12.8304 16.0082 13.0562 16.0082C13.1888 16.0082 13.3215 16.0082 13.4542 16.0086C13.5768 16.0089 13.6995 16.0089 13.8221 16.0087C13.8667 16.0086 13.9113 16.0087 13.9559 16.0089C14.2925 16.0103 14.6203 16.0094 14.8878 15.7794C15.1428 15.4829 15.1278 15.1051 15.1093 14.7348C15.1045 14.681 15.0994 14.6273 15.0942 14.5735C15.0714 14.3025 15.0667 14.0312 15.0609 13.7594C15.0603 13.7303 15.0596 13.7012 15.059 13.6711C15.0421 12.9052 15.0361 12.1392 15.03 11.3731C15.0284 11.1709 15.0267 10.9688 15.025 10.7666C15.0221 10.429 15.0193 10.0914 15.0166 9.75386C15.0138 9.40699 15.0109 9.06012 15.008 8.71325C15.0079 8.69168 15.0077 8.6701 15.0075 8.64787C15.0066 8.53957 15.0057 8.43126 15.0048 8.32296C14.9973 7.43217 14.99 6.54139 14.9827 5.6506C14.9513 5.6505 14.9198 5.65039 14.8874 5.65029C7.67828 5.62615 7.67828 5.62615 4.94173 5.56207C4.71726 5.55683 4.49278 5.55188 4.2683 5.54708C4.23537 5.54638 4.20245 5.54568 4.16852 5.54495C4.11923 5.5439 4.11923 5.5439 4.06894 5.54282C1.98361 5.49826 1.98361 5.49826 1.02405 5.46069Z" fill="#3C6B76"/>
<path d="M5.59421 6.83211C5.69829 6.85887 5.76196 6.84545 5.86684 6.82172C5.91316 6.81181 5.95948 6.80192 6.00581 6.79205C6.08255 6.77533 6.15926 6.7585 6.23591 6.74136C7.0419 6.56688 7.9912 6.59539 8.70269 7.05046C9.09468 7.33937 9.33802 7.7325 9.4119 8.21443C9.50582 8.92687 9.3175 9.56835 9.09538 10.2402C9.05695 10.3574 9.01864 10.4746 8.98053 10.5919C8.95638 10.6661 8.93199 10.7402 8.9073 10.8142C8.74834 11.299 8.68492 11.7846 8.63163 12.2895C8.55461 13.0113 8.45069 13.8217 7.85846 14.3103C7.67106 14.4479 7.45139 14.4368 7.22789 14.4183C6.98945 14.3703 6.80881 14.2225 6.67002 14.0266C6.46754 13.6751 6.40954 13.2643 6.37328 12.8673C6.36607 12.7903 6.35875 12.7133 6.35117 12.6363C6.34633 12.5867 6.34177 12.5371 6.33758 12.4874C6.318 12.2814 6.26871 12.0856 6.21501 11.8861C6.20381 11.9329 6.20381 11.9329 6.19238 11.9807C5.67358 14.1394 5.67358 14.1394 5.08542 14.5014C4.85555 14.5977 4.56836 14.5786 4.33763 14.4954C3.91229 14.2964 3.6801 13.9509 3.51678 13.5239C3.35434 13.0494 3.30921 12.5389 3.23969 12.0444C3.14328 11.3665 2.95414 10.8241 2.61654 10.2303C2.27698 9.63281 2.09409 9.02199 2.27227 8.33774C2.32195 8.17075 2.39681 8.01868 2.48004 7.86625C2.49558 7.83708 2.51113 7.80791 2.52714 7.77785C2.85562 7.21301 3.39797 6.84193 4.02259 6.6715C4.54258 6.55996 5.10383 6.63624 5.59421 6.83211ZM3.54435 8.17882C3.36108 8.44463 3.26518 8.75449 3.31882 9.07695C3.39615 9.36834 3.56019 9.63371 3.72635 9.88211C4.12209 10.4779 4.29063 11.0854 4.34753 11.7911C4.3552 11.8813 4.36309 11.9715 4.37125 12.0616C4.37639 12.1184 4.38132 12.1753 4.38599 12.2322C4.3999 12.3882 4.42584 12.5283 4.47414 12.6774C4.48458 12.6774 4.49503 12.6774 4.50579 12.6774C4.61942 11.8206 4.71125 10.9949 4.53435 10.1394C4.47978 9.86733 4.44571 9.56515 4.60074 9.32226C4.76775 9.13385 4.99259 9.08031 5.24014 9.06463C5.4286 9.05924 5.61705 9.06326 5.80551 9.06706C6.42767 9.11177 6.42767 9.11177 6.97467 8.87913C7.06078 8.75968 7.07462 8.6821 7.0559 8.54022C7.05104 8.50198 7.05104 8.50198 7.04608 8.46297C7.04341 8.44362 7.04073 8.42428 7.03798 8.40434C6.88624 8.33992 6.73439 8.2758 6.58243 8.21192C6.53103 8.19027 6.47965 8.16854 6.42831 8.14673C4.90889 7.48936 4.90889 7.48936 3.54435 8.17882Z" fill="#3C6B76"/>
<path d="M0.929199 3.59326C1.38879 3.59326 1.84838 3.59326 2.3219 3.59326C2.34279 3.72905 2.36368 3.86484 2.38521 4.00474C2.45093 4.29513 2.54509 4.57186 2.78086 4.76638C2.87899 4.80317 2.94578 4.80907 3.04991 4.79605C3.14493 4.7508 3.19742 4.71932 3.25132 4.6279C3.38158 4.25908 3.33236 3.98905 3.27147 3.59326C4.02353 3.59326 4.77559 3.59326 5.55044 3.59326C5.58178 3.77083 5.61311 3.9484 5.6454 4.13135C5.78179 4.45991 5.78179 4.45991 6.05688 4.66944C6.25243 4.68429 6.25243 4.68429 6.43671 4.63779C6.47627 4.54547 6.47627 4.54547 6.50001 4.44788C6.51046 4.42698 6.5209 4.40609 6.53166 4.38457C6.53166 4.12344 6.53166 3.86231 6.53166 3.59326C7.37773 3.59326 8.2238 3.59326 9.0955 3.59326C9.11639 3.76039 9.13729 3.92751 9.15881 4.0997C9.25866 4.43817 9.25866 4.43817 9.4689 4.71259C9.61319 4.78272 9.72305 4.81768 9.88681 4.79605C9.98546 4.7544 10.0315 4.72752 10.0807 4.63189C10.1136 4.52594 10.1155 4.43751 10.1146 4.32658C10.1144 4.28568 10.1142 4.24477 10.1139 4.20263C10.1134 4.15975 10.1129 4.11686 10.1123 4.07398C10.112 4.03048 10.1117 3.98698 10.1115 3.94348C10.1107 3.83728 10.1097 3.7311 10.1084 3.62491C10.4091 3.62418 10.7098 3.62362 11.0105 3.62327C11.1502 3.62311 11.2898 3.62288 11.4294 3.62253C11.564 3.62218 11.6987 3.62199 11.8333 3.62191C11.8848 3.62185 11.9363 3.62174 11.9877 3.62157C12.0596 3.62134 12.1314 3.62131 12.2033 3.62132C12.2648 3.62122 12.2648 3.62122 12.3275 3.62111C12.419 3.62491 12.419 3.62491 12.4507 3.65657C12.4574 3.72338 12.464 3.79022 12.4695 3.85714C12.5002 4.22416 12.5496 4.53364 12.8305 4.79605C12.933 4.84731 13.0362 4.84521 13.147 4.8277C13.3017 4.72926 13.3564 4.57986 13.4092 4.41066C13.4557 4.16208 13.4408 3.90831 13.4319 3.65657C13.5591 3.65561 13.6864 3.65507 13.8137 3.65459C13.8657 3.65419 13.8657 3.65419 13.9187 3.65378C14.2856 3.65275 14.6464 3.67222 15.0145 3.68822C15.0145 4.33583 15.0145 4.98343 15.0145 5.65066C7.73267 5.66361 7.73267 5.66361 4.94148 5.59402C4.61763 5.58604 4.29375 5.57964 3.96986 5.57325C3.716 5.5682 3.46213 5.56287 3.20827 5.55755C3.12164 5.55576 3.03501 5.55401 2.94837 5.55228C1.07778 5.51437 1.07778 5.51437 0.992504 5.4291C0.987715 5.38551 0.984973 5.34169 0.983099 5.29788C0.981834 5.26995 0.980569 5.24203 0.979266 5.21326C0.978045 5.18277 0.976823 5.15228 0.975565 5.12086C0.974205 5.08949 0.972844 5.05811 0.971443 5.02579C0.96858 4.95903 0.965791 4.89227 0.963069 4.8255C0.95894 4.72449 0.954569 4.62349 0.950157 4.52249C0.947401 4.45752 0.94466 4.39255 0.941934 4.32757C0.940649 4.29778 0.939364 4.26799 0.938039 4.2373C0.929397 4.02207 0.929199 3.80912 0.929199 3.59326Z" fill="#86ACF2"/>
<path d="M8.27056 7.7931C8.46102 7.93214 8.5608 8.1156 8.62072 8.34108C8.63038 8.44277 8.631 8.54364 8.63061 8.64573C8.63112 8.67188 8.63163 8.69804 8.63215 8.72498C8.63244 9.09502 8.50189 9.43343 8.37881 9.77741C8.08678 10.5985 7.94606 11.3925 7.90854 12.266C7.88814 12.7238 7.77002 13.169 7.48123 13.5321C7.31468 13.2822 7.25793 13.0212 7.20785 12.7286C7.1884 12.6153 7.16762 12.5022 7.14703 12.3891C7.14306 12.3671 7.13908 12.3451 7.13499 12.3225C6.99593 11.4797 6.99593 11.4797 6.51386 10.81C6.29142 10.6805 6.08275 10.6349 5.82863 10.7018C5.53092 10.8306 5.36701 11.1057 5.2516 11.3953C5.1603 11.6503 5.08827 11.9121 5.01321 12.1722C4.95398 12.3773 4.89125 12.581 4.82639 12.7843C4.81281 12.8271 4.81281 12.8271 4.79895 12.8708C4.75817 12.9982 4.71644 13.1239 4.66417 13.2472C4.55569 13.1457 4.5023 13.0446 4.47426 12.899C4.46911 12.6672 4.49973 12.4374 4.52953 12.2079C4.61563 11.5391 4.65732 10.886 4.51981 10.2217C4.45871 9.92584 4.39656 9.58964 4.56922 9.3223C4.72855 9.12662 4.92809 9.07433 5.17061 9.03743C5.38194 9.02424 5.5941 9.03118 5.80564 9.03545C6.42763 9.08009 6.42763 9.08009 6.97479 8.84751C7.06047 8.71122 7.0442 8.56004 7.0381 8.40438C7.09374 8.38377 7.14938 8.36317 7.20502 8.34256C7.27724 8.29877 7.29424 8.26173 7.32297 8.18281C7.33958 8.0753 7.34073 7.97372 7.32297 7.86629C7.25108 7.77057 7.25108 7.77057 7.16471 7.70803C7.14904 7.67669 7.14904 7.67669 7.13306 7.64472C7.49095 7.53378 7.95386 7.60161 8.27056 7.7931Z" fill="#C5E8F5"/>
<path d="M13.7957 7.78924C13.9585 7.88713 14.053 8.02877 14.1082 8.20864C14.1533 8.43249 14.1216 8.65546 14.0112 8.85528C13.9189 8.9793 13.7981 9.05255 13.6532 9.10084C13.413 9.12089 13.184 9.13173 12.9885 8.97423C12.8363 8.81652 12.7772 8.64166 12.7571 8.42427C12.7752 8.21433 12.8321 8.01441 12.9885 7.86639C13.2154 7.69566 13.5371 7.6761 13.7957 7.78924Z" fill="#3C6B75"/>
<path d="M11.8116 12.4361C11.9982 12.5721 12.0469 12.7561 12.0836 12.9759C12.0967 13.1655 12.0314 13.2926 11.9125 13.4371C11.7831 13.5665 11.6483 13.6233 11.464 13.6292C11.2496 13.6167 11.0916 13.5389 10.9436 13.3837C10.8112 13.2052 10.8053 13.0192 10.8363 12.8041C10.8916 12.6165 10.9919 12.4999 11.1528 12.3926C11.3853 12.2961 11.5944 12.3127 11.8116 12.4361Z" fill="#3B6A75"/>
<path d="M11.6954 7.86269C11.8348 7.94609 11.9197 8.06736 11.9875 8.21235C12.0299 8.41996 12.026 8.57078 11.9229 8.75588C11.8089 8.91764 11.6646 9.02824 11.4692 9.06894C11.2816 9.08979 11.1455 9.05203 10.9944 8.94233C10.8566 8.79931 10.7407 8.63588 10.7415 8.43083C10.7553 8.25045 10.7863 8.09692 10.927 7.97174C11.1661 7.78663 11.4105 7.74214 11.6954 7.86269Z" fill="#3B6A75"/>
<path d="M13.8432 10.2719C13.9898 10.3951 14.0841 10.5137 14.1066 10.7077C14.1145 10.9166 14.0967 11.0826 13.9698 11.2531C13.8276 11.3917 13.6974 11.4459 13.501 11.4549C13.2964 11.4503 13.1524 11.3853 13.0084 11.2412C12.8853 11.0424 12.8617 10.8427 12.9072 10.6155C12.9611 10.4417 13.0591 10.3386 13.2102 10.2402C13.4343 10.1375 13.6281 10.1563 13.8432 10.2719Z" fill="#3B6A75"/>
<path d="M11.8651 10.252C11.9976 10.3753 12.0536 10.4922 12.0713 10.6744C12.0701 10.8454 12.0304 10.9978 11.9197 11.1302C11.753 11.2838 11.6096 11.3564 11.3804 11.3479C11.1678 11.3209 11.0107 11.2132 10.868 11.0571C10.7953 10.8527 10.7703 10.6271 10.8616 10.4253C10.9609 10.2725 11.1006 10.1514 11.2755 10.0957C11.4993 10.0571 11.6919 10.1061 11.8651 10.252Z" fill="#3B6A75"/>
</svg>
