<svg width="138" height="32" viewBox="0 0 138 32" fill="none" xmlns="http://www.w3.org/2000/svg">
<path d="M70.4832 10.9974L78.7868 7.73034C79.138 7.59216 79.5322 7.62734 79.8587 7.826L88.5137 13.0922" stroke="#FF9933" stroke-width="1.84452"/>
<path d="M69.3123 9.74847L78.832 6.16022C79.1573 6.03763 79.5184 6.06221 79.8281 6.22803L88.5917 10.9193" stroke="#FF5733" stroke-width="1.84452"/>
<path d="M17.666 10.1672V29.6559H14.4693V21.1313H5.29981V29.6559H2.1031V10.1672H5.29981V18.5235H14.4693V10.1672H17.666ZM34.6332 21.5519C34.6332 22.1315 34.5958 22.6549 34.521 23.1223H22.7156C22.8091 24.3561 23.2671 25.3469 24.0897 26.0946C24.9122 26.8424 25.9217 27.2163 27.1181 27.2163C28.838 27.2163 30.0531 26.4966 30.7635 25.0571H34.2126C33.7452 26.4779 32.8946 27.6463 31.6608 28.5623C30.4457 29.4596 28.9315 29.9083 27.1181 29.9083C25.6413 29.9083 24.314 29.5811 23.1363 28.9268C21.9772 28.2538 21.0612 27.3191 20.3882 26.1227C19.7339 24.9076 19.4068 23.5055 19.4068 21.9165C19.4068 20.3275 19.7246 18.9348 20.3602 17.7383C21.0145 16.5232 21.9211 15.5885 23.0802 14.9342C24.2579 14.2799 25.6039 13.9528 27.1181 13.9528C28.5763 13.9528 29.8755 14.2706 31.0159 14.9062C32.1562 15.5418 33.0442 16.4391 33.6798 17.5981C34.3154 18.7385 34.6332 20.0564 34.6332 21.5519ZM31.2963 20.5425C31.2776 19.3647 30.857 18.4207 30.0344 17.7103C29.2119 16.9999 28.193 16.6447 26.9779 16.6447C25.875 16.6447 24.9309 16.9999 24.1457 17.7103C23.3606 18.402 22.8932 19.346 22.7437 20.5425H31.2963ZM35.3114 21.8604C35.3114 20.3088 35.6292 18.9348 36.2648 17.7383C36.9191 16.5419 37.7978 15.6165 38.9007 14.9622C40.0224 14.2893 41.2562 13.9528 42.6022 13.9528C43.8173 13.9528 44.8735 14.1958 45.7708 14.6818C46.6869 15.1492 47.4159 15.7381 47.9581 16.4484V14.2051H51.1828V29.6559H47.9581V27.3565C47.4159 28.0856 46.6775 28.6931 45.7428 29.1792C44.8081 29.6652 43.7425 29.9083 42.5461 29.9083C41.2188 29.9083 40.0037 29.5718 38.9007 28.8988C37.7978 28.2071 36.9191 27.2537 36.2648 26.0386C35.6292 24.8047 35.3114 23.412 35.3114 21.8604ZM47.9581 21.9165C47.9581 20.8509 47.7337 19.9256 47.2851 19.1404C46.8551 18.3552 46.2849 17.757 45.5746 17.3458C44.8642 16.9345 44.0977 16.7288 43.2752 16.7288C42.4526 16.7288 41.6862 16.9345 40.9758 17.3458C40.2654 17.7383 39.6859 18.3272 39.2372 19.1124C38.8073 19.8788 38.5923 20.7948 38.5923 21.8604C38.5923 22.926 38.8073 23.8607 39.2372 24.6645C39.6859 25.4684 40.2654 26.0853 40.9758 26.5153C41.7049 26.9265 42.4713 27.1322 43.2752 27.1322C44.0977 27.1322 44.8642 26.9265 45.5746 26.5153C46.2849 26.104 46.8551 25.5058 47.2851 24.7206C47.7337 23.9168 47.9581 22.9821 47.9581 21.9165ZM57.1762 8.90532V29.6559H53.9795V8.90532H57.1762ZM63.7006 16.813V25.3656C63.7006 25.9451 63.8315 26.3657 64.0932 26.6274C64.3736 26.8704 64.841 26.992 65.4953 26.992H67.4582V29.6559H64.9344C63.495 29.6559 62.392 29.3194 61.6256 28.6464C60.8591 27.9734 60.4759 26.8798 60.4759 25.3656V16.813H58.6532V14.2051H60.4759V10.3635H63.7006V14.2051H67.4582V16.813H63.7006ZM76.9942 13.9528C78.1719 13.9528 79.2188 14.2051 80.1348 14.7099C81.0695 15.2146 81.7986 15.9624 82.322 16.9532C82.8642 17.944 83.1352 19.1404 83.1352 20.5425V29.6559H79.9666V21.0192C79.9666 19.6358 79.6207 18.5796 78.929 17.8505C78.2373 17.1027 77.2933 16.7288 76.0969 16.7288C74.9004 16.7288 73.947 17.1027 73.2366 17.8505C72.545 18.5796 72.1991 19.6358 72.1991 21.0192V29.6559H69.0024V8.90532H72.1991V15.9998C72.7412 15.3455 73.4236 14.8407 74.2461 14.4855C75.0874 14.1304 76.0034 13.9528 76.9942 13.9528ZM101.374 10.1672V29.6559H98.177V21.1313H89.0075V29.6559H85.8107V10.1672H89.0075V18.5235H98.177V10.1672H101.374ZM118.173 14.2051V29.6559H114.976V27.8332C114.471 28.4688 113.807 28.9735 112.985 29.3474C112.181 29.7026 111.321 29.8802 110.405 29.8802C109.19 29.8802 108.096 29.6278 107.124 29.1231C106.171 28.6184 105.414 27.8706 104.853 26.8798C104.311 25.889 104.04 24.6926 104.04 23.2905V14.2051H107.208V22.8138C107.208 24.1972 107.554 25.2627 108.246 26.0105C108.938 26.7396 109.882 27.1041 111.078 27.1041C112.275 27.1041 113.219 26.7396 113.91 26.0105C114.621 25.2627 114.976 24.1972 114.976 22.8138V14.2051H118.173ZM124.185 16.5045C124.727 15.7567 125.466 15.1492 126.4 14.6818C127.354 14.1958 128.41 13.9528 129.569 13.9528C130.934 13.9528 132.167 14.2799 133.27 14.9342C134.373 15.5885 135.243 16.5232 135.878 17.7383C136.514 18.9348 136.832 20.3088 136.832 21.8604C136.832 23.412 136.514 24.8047 135.878 26.0386C135.243 27.2537 134.364 28.2071 133.242 28.8988C132.139 29.5718 130.915 29.9083 129.569 29.9083C128.373 29.9083 127.307 29.6746 126.372 29.2072C125.456 28.7399 124.727 28.1417 124.185 27.4126V29.6559H120.988V8.90532H124.185V16.5045ZM133.579 21.8604C133.579 20.7948 133.355 19.8788 132.906 19.1124C132.476 18.3272 131.896 17.7383 131.167 17.3458C130.457 16.9345 129.69 16.7288 128.868 16.7288C128.064 16.7288 127.298 16.9345 126.569 17.3458C125.858 17.757 125.279 18.3552 124.83 19.1404C124.4 19.9256 124.185 20.8509 124.185 21.9165C124.185 22.9821 124.4 23.9168 124.83 24.7206C125.279 25.5058 125.858 26.104 126.569 26.5153C127.298 26.9265 128.064 27.1322 128.868 27.1322C129.69 27.1322 130.457 26.9265 131.167 26.5153C131.896 26.0853 132.476 25.4684 132.906 24.6645C133.355 23.8607 133.579 22.926 133.579 21.8604Z" fill="white"/>
</svg>
