<svg width="199" height="45" viewBox="0 0 199 45" fill="none" xmlns="http://www.w3.org/2000/svg">
<path d="M101.639 14.7399L113.613 10.0287C114.119 9.82945 114.688 9.88017 115.159 10.1667L127.639 17.7607" stroke="#FF9933" stroke-width="2.65985"/>
<path d="M99.9502 12.9389L113.678 7.76454C114.147 7.58776 114.668 7.6232 115.114 7.86232L127.752 14.6273" stroke="#FF5733" stroke-width="2.65985"/>
<path d="M25.4749 13.2599V41.3632H20.8652V29.0705H7.64247V41.3632H3.03273V13.2599H7.64247V25.3099H20.8652V13.2599H25.4749ZM49.9421 29.6771C49.9421 30.5127 49.8881 31.2675 49.7803 31.9415H32.7566C32.8914 33.7207 33.5519 35.1494 34.738 36.2277C35.9241 37.306 37.3798 37.8452 39.1051 37.8452C41.5852 37.8452 43.3375 36.8073 44.3618 34.7316H49.3355C48.6616 36.7804 47.435 38.4652 45.6558 39.7861C43.9036 41.0801 41.72 41.7271 39.1051 41.7271C36.9755 41.7271 35.0615 41.2553 33.3632 40.3118C31.6918 39.3413 30.3709 37.9935 29.4004 36.2682C28.4569 34.5159 27.9851 32.4941 27.9851 30.2027C27.9851 27.9113 28.4434 25.903 29.36 24.1777C30.3035 22.4255 31.6109 21.0776 33.2823 20.1341C34.9806 19.1906 36.9216 18.7188 39.1051 18.7188C41.2078 18.7188 43.0814 19.1771 44.7258 20.0936C46.3702 21.0102 47.6507 22.3042 48.5672 23.9755C49.4838 25.6199 49.9421 27.5204 49.9421 29.6771ZM45.1301 28.2213C45.1032 26.523 44.4966 25.1617 43.3105 24.1373C42.1244 23.1129 40.6552 22.6007 38.9029 22.6007C37.3124 22.6007 35.9511 23.1129 34.8189 24.1373C33.6866 25.1347 33.0127 26.4961 32.797 28.2213H45.1301ZM50.9201 30.1219C50.9201 27.8844 51.3784 25.903 52.295 24.1777C53.2385 22.4524 54.5055 21.118 56.096 20.1745C57.7134 19.204 59.4926 18.7188 61.4336 18.7188C63.1858 18.7188 64.7089 19.0692 66.0029 19.7701C67.3238 20.4441 68.3751 21.2932 69.1569 22.3176V19.0827H73.8071V41.3632H69.1569V38.0474C68.3751 39.0987 67.3103 39.9748 65.9624 40.6757C64.6146 41.3766 63.078 41.7271 61.3527 41.7271C59.4387 41.7271 57.6865 41.2419 56.096 40.2714C54.5055 39.2739 53.2385 37.8991 52.295 36.1469C51.3784 34.3677 50.9201 32.3593 50.9201 30.1219ZM69.1569 30.2027C69.1569 28.6661 68.8334 27.3317 68.1864 26.1995C67.5664 25.0673 66.7442 24.2047 65.7198 23.6116C64.6954 23.0185 63.5902 22.722 62.404 22.722C61.2179 22.722 60.1127 23.0185 59.0883 23.6116C58.0639 24.1777 57.2282 25.0269 56.5812 26.1591C55.9612 27.2643 55.6512 28.5853 55.6512 30.1219C55.6512 31.6584 55.9612 33.0063 56.5812 34.1655C57.2282 35.3247 58.0639 36.2143 59.0883 36.8343C60.1396 37.4274 61.2449 37.7239 62.404 37.7239C63.5902 37.7239 64.6954 37.4274 65.7198 36.8343C66.7442 36.2412 67.5664 35.3786 68.1864 34.2464C68.8334 33.0872 69.1569 31.7393 69.1569 30.2027ZM82.4497 11.4403V41.3632H77.84V11.4403H82.4497ZM91.8581 22.8433V35.1764C91.8581 36.0121 92.0468 36.6186 92.4243 36.996C92.8286 37.3465 93.5026 37.5217 94.4461 37.5217H97.2766V41.3632H93.6373C91.5616 41.3632 89.9711 40.8779 88.8659 39.9075C87.7606 38.937 87.208 37.36 87.208 35.1764V22.8433H84.5796V19.0827H87.208V13.5429H91.8581V19.0827H97.2766V22.8433H91.8581ZM111.028 18.7188C112.726 18.7188 114.236 19.0827 115.557 19.8106C116.905 20.5384 117.956 21.6167 118.711 23.0455C119.492 24.4742 119.883 26.1995 119.883 28.2213V41.3632H115.314V28.9088C115.314 26.9139 114.815 25.3908 113.818 24.3395C112.82 23.2611 111.459 22.722 109.734 22.722C108.009 22.722 106.634 23.2611 105.609 24.3395C104.612 25.3908 104.113 26.9139 104.113 28.9088V41.3632H99.5035V11.4403H104.113V21.6707C104.895 20.7271 105.879 19.9993 107.065 19.4871C108.278 18.9749 109.599 18.7188 111.028 18.7188ZM146.184 13.2599V41.3632H141.574V29.0705H128.351V41.3632H123.742V13.2599H128.351V25.3099H141.574V13.2599H146.184ZM170.408 19.0827V41.3632H165.799V38.7348C165.071 39.6514 164.114 40.3792 162.928 40.9184C161.768 41.4306 160.528 41.6867 159.207 41.6867C157.455 41.6867 155.878 41.3227 154.476 40.5949C153.102 39.867 152.01 38.7887 151.201 37.36C150.419 35.9312 150.028 34.2059 150.028 32.1841V19.0827H154.598V31.4967C154.598 33.4915 155.096 35.0281 156.094 36.1064C157.091 37.1578 158.453 37.6835 160.178 37.6835C161.903 37.6835 163.265 37.1578 164.262 36.1064C165.286 35.0281 165.799 33.4915 165.799 31.4967V19.0827H170.408ZM179.078 22.3985C179.86 21.3202 180.925 20.4441 182.273 19.7701C183.648 19.0692 185.171 18.7188 186.842 18.7188C188.81 18.7188 190.589 19.1906 192.18 20.1341C193.77 21.0776 195.024 22.4255 195.94 24.1777C196.857 25.903 197.315 27.8844 197.315 30.1219C197.315 32.3593 196.857 34.3677 195.94 36.1469C195.024 37.8991 193.757 39.2739 192.139 40.2714C190.549 41.2419 188.783 41.7271 186.842 41.7271C185.117 41.7271 183.58 41.3901 182.232 40.7162C180.912 40.0422 179.86 39.1796 179.078 38.1283V41.3632H174.469V11.4403H179.078V22.3985ZM192.625 30.1219C192.625 28.5853 192.301 27.2643 191.654 26.1591C191.034 25.0269 190.198 24.1777 189.147 23.6116C188.123 23.0185 187.017 22.722 185.831 22.722C184.672 22.722 183.567 23.0185 182.516 23.6116C181.491 24.2047 180.655 25.0673 180.008 26.1995C179.388 27.3317 179.078 28.6661 179.078 30.2027C179.078 31.7393 179.388 33.0872 180.008 34.2464C180.655 35.3786 181.491 36.2412 182.516 36.8343C183.567 37.4274 184.672 37.7239 185.831 37.7239C187.017 37.7239 188.123 37.4274 189.147 36.8343C190.198 36.2143 191.034 35.3247 191.654 34.1655C192.301 33.0063 192.625 31.6584 192.625 30.1219Z" fill="#4964DB"/>
</svg>
