<svg width="39" height="36" viewBox="0 0 39 36" fill="none" xmlns="http://www.w3.org/2000/svg">
<path d="M13.7699 0.384852C13.8218 0.400322 13.8737 0.415792 13.9272 0.431731C15.7806 1.01039 17.255 2.12325 18.6169 3.47535C18.6783 3.53626 18.6783 3.53626 18.741 3.59841C18.9991 3.85757 19.2362 4.1265 19.4667 4.41057C19.528 4.3437 19.5894 4.27682 19.6527 4.20792C19.7347 4.1188 19.8167 4.02969 19.8987 3.94059C19.9591 3.87472 19.9591 3.87472 20.0208 3.80751C20.2609 3.54674 20.5066 3.29343 20.7579 3.04335C20.799 2.99782 20.8402 2.95229 20.8825 2.90538C22.0665 1.6208 23.8037 0.765164 25.4673 0.308895C25.5565 0.283144 25.6457 0.257392 25.7376 0.230861C27.2656 -0.132324 29.131 -0.0565866 30.6323 0.384852C30.6879 0.40113 30.7435 0.417408 30.8007 0.434179C33.7012 1.31528 36.0963 3.3777 37.5302 6.03415C38.0598 7.05176 38.4345 8.15356 38.6838 9.27182C38.7178 9.41531 38.7178 9.41531 38.7526 9.5617C39.144 11.4192 39.0526 13.5902 38.6078 15.4243C38.5834 15.5256 38.5834 15.5256 38.5585 15.6288C37.6142 19.4158 35.4787 22.7024 32.8351 25.5266C32.7637 25.6047 32.6925 25.6829 32.6215 25.7613C32.0669 26.3727 31.5042 26.9685 30.8768 27.5062C30.7095 27.6523 30.5463 27.8023 30.3835 27.9534C29.9243 28.3793 29.4517 28.7825 28.9613 29.1725C28.9228 29.2034 28.8843 29.2343 28.8446 29.2661C26.5804 31.081 24.1596 32.6923 21.6476 34.1426C21.5087 34.2229 21.3701 34.3035 21.2317 34.3845C21.0286 34.5031 20.8246 34.62 20.6203 34.7364C20.5298 34.7895 20.5298 34.7895 20.4376 34.8437C20.0473 35.0625 19.6924 35.1998 19.2388 35.1731C18.9756 35.0877 18.9756 35.0877 18.7118 34.9453C18.6617 34.9185 18.6116 34.8918 18.56 34.8643C18.3798 34.7669 18.2017 34.6664 18.0235 34.5655C17.9504 34.5246 17.8773 34.4838 17.802 34.4417C16.6353 33.7877 15.4969 33.0945 14.3775 32.3627C14.3243 32.328 14.271 32.2933 14.2161 32.2575C12.7609 31.3069 11.3494 30.29 10.0118 29.1794C9.88346 29.0731 9.75407 28.968 9.6237 28.8643C9.09314 28.4403 8.59959 27.9836 8.10605 27.5178C7.91857 27.3412 7.72841 27.1696 7.53192 27.003C6.92808 26.4824 6.35977 25.9014 5.84425 25.2937C5.69871 25.1238 5.54715 24.9601 5.39563 24.7955C4.97153 24.3241 4.58193 23.8291 4.19931 23.3239C4.16011 23.2721 4.1209 23.2204 4.08051 23.1671C1.91303 20.2864 0.0427556 16.6597 0.00357667 12.9747C0.00282588 12.9164 0.00207508 12.8582 0.00130153 12.7981C-0.0240916 10.3127 0.3162 8.05707 1.54081 5.85375C1.5836 5.77395 1.62639 5.69415 1.67048 5.61194C3.01157 3.19671 5.35385 1.27674 7.99864 0.468226C8.09934 0.440146 8.20012 0.412363 8.30098 0.384852C8.35331 0.369957 8.40563 0.355062 8.45954 0.339715C10.1262 -0.118031 12.1131 -0.10933 13.7699 0.384852Z" fill="#0061FF"/>
<path d="M13.7699 0.384954C13.8218 0.400424 13.8737 0.415894 13.9272 0.431834C15.7807 1.01051 17.25 2.12444 18.6169 3.47071C18.6783 3.53066 18.6783 3.53066 18.741 3.59184C18.7805 3.63117 18.8199 3.67051 18.8605 3.71104C18.9123 3.76239 18.9123 3.76239 18.9652 3.81477C19.3814 4.29416 19.5232 4.5635 19.5098 5.19544C19.5098 5.26442 19.5099 5.3334 19.5099 5.40446C19.5097 5.63096 19.5067 5.85733 19.5037 6.0838C19.503 6.24142 19.5025 6.39904 19.5021 6.55665C19.5007 6.97037 19.4969 7.38404 19.4927 7.79774C19.4888 8.22034 19.4871 8.64295 19.4852 9.06556C19.4811 9.89394 19.4747 10.7223 19.4667 11.5506C19.534 11.5585 19.6014 11.5663 19.6708 11.5744C20.0019 11.6431 20.2155 11.7414 20.4234 12.0124C20.4573 12.0724 20.4912 12.1325 20.5261 12.1943C20.5644 12.262 20.6028 12.3296 20.6423 12.3993C20.8347 12.7567 21.0202 13.117 21.2012 13.4804C21.2609 13.5996 21.2609 13.5996 21.3219 13.7213C21.4051 13.8877 21.4882 14.0541 21.5712 14.2207C21.6987 14.4766 21.8269 14.7321 21.9551 14.9877C22.0362 15.1499 22.1172 15.3121 22.1981 15.4743C22.2366 15.5509 22.275 15.6274 22.3146 15.7063C22.3497 15.7769 22.3847 15.8474 22.4208 15.9201C22.4518 15.9822 22.4828 16.0444 22.5148 16.1084C22.5809 16.26 22.5809 16.26 22.5809 16.4119C22.6429 16.4115 22.6429 16.4115 22.7061 16.411C23.7136 16.4043 24.721 16.3993 25.7284 16.3961C26.2157 16.3945 26.7028 16.3924 27.19 16.389C27.6604 16.3856 28.1307 16.3838 28.6011 16.383C28.7803 16.3825 28.9596 16.3814 29.1389 16.3797C29.3903 16.3775 29.6418 16.3772 29.8932 16.3774C29.967 16.3763 30.0409 16.3752 30.1169 16.3741C30.5794 16.3769 30.9306 16.4504 31.3159 16.7157C31.579 16.9923 31.6858 17.1913 31.7147 17.575C31.6908 17.9275 31.6111 18.1656 31.3593 18.4209C31.0467 18.6922 30.8195 18.7758 30.4139 18.7772C30.2993 18.7779 30.2994 18.7779 30.1825 18.7785C30.0988 18.7786 30.0151 18.7787 29.9289 18.7788C29.8407 18.7792 29.7525 18.7795 29.6616 18.7799C29.3691 18.781 29.0766 18.7815 28.7841 18.782C28.6325 18.7823 28.4808 18.7826 28.3291 18.783C27.9065 18.7838 27.4838 18.7844 27.0612 18.7847C26.515 18.785 25.9688 18.7864 25.4226 18.7886C25.0001 18.7902 24.5777 18.791 24.1552 18.7911C23.903 18.7911 23.6508 18.7917 23.3987 18.7929C23.1172 18.7942 22.8357 18.7941 22.5542 18.7936C22.4294 18.7947 22.4294 18.7947 22.302 18.7957C21.8828 18.7934 21.5725 18.7812 21.2137 18.5387C20.9033 18.219 20.7092 17.8767 20.5143 17.4788C20.4862 17.4225 20.4581 17.3662 20.4291 17.3082C20.3703 17.1901 20.3118 17.0719 20.2535 16.9535C20.1641 16.7718 20.0737 16.5906 19.9831 16.4095C19.9259 16.2944 19.8688 16.1793 19.8117 16.0641C19.7711 15.9827 19.7711 15.9827 19.7297 15.8997C19.5426 15.518 19.5426 15.518 19.5426 15.3485C19.4925 15.3485 19.4424 15.3485 19.3907 15.3485C19.3727 15.4089 19.3547 15.4694 19.3362 15.5317C19.2138 15.8742 19.057 16.1927 18.8953 16.5181C18.8606 16.5885 18.8258 16.659 18.7901 16.7316C18.6754 16.9638 18.5603 17.1958 18.4451 17.4278C18.4057 17.5073 18.3663 17.5867 18.3256 17.6686C18.1171 18.0889 17.9081 18.509 17.6988 18.929C17.4831 19.3622 17.2688 19.796 17.0548 20.23C16.8896 20.5643 16.7234 20.8981 16.5568 21.2317C16.4773 21.3914 16.3983 21.5513 16.3196 21.7114C16.2094 21.9356 16.0976 22.159 15.9855 22.3822C15.9535 22.448 15.9216 22.5139 15.8887 22.5817C15.6562 23.0387 15.3759 23.3944 14.9092 23.6278C14.4941 23.6603 14.2116 23.6 13.8458 23.3999C13.5364 23.0721 13.3566 22.6799 13.1589 22.2798C13.1218 22.2056 13.0847 22.1315 13.0465 22.0551C12.9244 21.8108 12.803 21.5661 12.6816 21.3215C12.5969 21.1517 12.5122 20.982 12.4274 20.8122C12.2275 20.4116 12.028 20.0107 11.8286 19.6098C11.5793 19.1083 11.3293 18.6071 11.0793 18.1059C10.6338 17.2123 10.1888 16.3185 9.74417 15.4244C9.53652 15.6919 9.38771 15.972 9.24154 16.2763C9.18866 16.3843 9.13575 16.4924 9.08281 16.6004C9.00033 16.7696 8.91809 16.9389 8.83635 17.1084C8.7569 17.2729 8.67647 17.4369 8.59591 17.6008C8.572 17.651 8.54809 17.7013 8.52346 17.7531C8.27578 18.2539 7.98111 18.5526 7.46546 18.7665C7.25831 18.7866 7.06941 18.7955 6.86288 18.7924C6.80429 18.7924 6.7457 18.7925 6.68533 18.7925C6.49297 18.7923 6.30067 18.7906 6.10832 18.7888C5.97444 18.7884 5.84055 18.788 5.70667 18.7878C5.35527 18.7869 5.0039 18.7847 4.65251 18.7822C4.29356 18.7798 3.93459 18.7788 3.57563 18.7777C2.87203 18.7752 2.16845 18.7713 1.46486 18.7665C1.37941 18.5604 1.29409 18.3543 1.20886 18.1481C1.18482 18.0902 1.16078 18.0322 1.13601 17.9726C0.957321 17.5399 0.793534 17.1054 0.653068 16.6587C0.631221 16.5897 0.609374 16.5207 0.586865 16.4497C0.244607 15.3307 0.0160396 14.147 0.00357667 12.9748C0.00282588 12.9165 0.00207508 12.8583 0.00130153 12.7982C-0.0240916 10.3128 0.3162 8.05717 1.54081 5.85385C1.5836 5.77406 1.62639 5.69426 1.67048 5.61204C3.01157 3.19681 5.35385 1.27684 7.99864 0.468328C8.09934 0.440249 8.20013 0.412465 8.30098 0.384954C8.35331 0.370059 8.40563 0.355164 8.45954 0.339817C10.1262 -0.117929 12.1131 -0.109228 13.7699 0.384954Z" fill="#90B3EC"/>
<path d="M9.66841 15.2725C9.826 15.4733 9.95243 15.6704 10.0653 15.8991C10.097 15.963 10.1287 16.0269 10.1614 16.0927C10.1955 16.1622 10.2296 16.2317 10.2648 16.3032C10.3012 16.3769 10.3377 16.4505 10.3753 16.5264C10.4543 16.6861 10.5333 16.8459 10.6121 17.0058C10.7369 17.2588 10.8622 17.5116 10.9877 17.7642C11.3443 18.4826 11.7005 19.2013 12.0554 19.9205C12.2725 20.3606 12.4906 20.8002 12.7092 21.2395C12.7924 21.407 12.8751 21.5746 12.9576 21.7425C13.0729 21.9771 13.1893 22.2111 13.306 22.4451C13.3567 22.5492 13.3567 22.5492 13.4084 22.6555C13.6065 23.0493 13.7868 23.361 14.2163 23.5328C14.5684 23.5742 14.8204 23.5945 15.1468 23.4378C15.6087 23.0362 15.8544 22.4431 16.1228 21.9019C16.1762 21.7951 16.1762 21.7951 16.2307 21.6861C16.3473 21.4529 16.4634 21.2194 16.5796 20.9858C16.6608 20.8232 16.742 20.6606 16.8232 20.498C17.0361 20.0716 17.2487 19.645 17.4612 19.2183C17.6784 18.7824 17.8959 18.3466 18.1134 17.9108C18.5396 17.0568 18.9654 16.2027 19.3909 15.3484C19.4661 15.386 19.4661 15.386 19.5428 15.4244C19.5177 21.9415 19.4927 28.4586 19.4669 35.1732C19.0609 35.1055 18.7918 35.0047 18.4414 34.8124C18.3859 34.7824 18.3304 34.7524 18.2733 34.7215C15.3742 33.1383 12.5553 31.2912 10.012 29.1794C9.88366 29.0731 9.75427 28.9681 9.6239 28.8643C9.09334 28.4403 8.59979 27.9836 8.10625 27.5178C7.91877 27.3413 7.72861 27.1696 7.53212 27.0031C6.92828 26.4825 6.35997 25.9015 5.84445 25.2937C5.69891 25.1238 5.54736 24.9602 5.39583 24.7956C4.97173 24.3242 4.58213 23.8292 4.19951 23.3239C4.16031 23.2722 4.1211 23.2205 4.08072 23.1672C3.2391 22.0486 2.52221 20.8697 1.86383 19.6352C1.83111 19.5742 1.79839 19.5132 1.76468 19.4503C1.73513 19.3937 1.70557 19.3372 1.67513 19.2789C1.64911 19.2293 1.62309 19.1797 1.59628 19.1286C1.54102 18.9944 1.54102 18.9944 1.54102 18.7665C1.61389 18.7662 1.68677 18.7659 1.76185 18.7656C2.45024 18.7628 3.1386 18.7584 3.82696 18.7525C4.18082 18.7495 4.53467 18.7471 4.88854 18.7459C5.23035 18.7447 5.57212 18.7421 5.91392 18.7385C6.044 18.7374 6.1741 18.7368 6.30419 18.7367C7.23965 18.7575 7.23965 18.7575 8.07331 18.3867C8.22117 18.2197 8.22117 18.2197 8.30801 18.0229C8.36158 17.9165 8.36158 17.9165 8.41623 17.808C8.4519 17.7326 8.48756 17.6573 8.52431 17.5797C8.56262 17.5025 8.60093 17.4253 8.64039 17.3458C8.71861 17.1879 8.79607 17.0297 8.87275 16.871C9.00953 16.5886 9.15066 16.3086 9.29206 16.0285C9.41874 15.7771 9.54364 15.5248 9.66841 15.2725Z" fill="#90B3EC"/>
<path d="M19.5709 11.5694C19.6564 11.5771 19.6564 11.5771 19.7436 11.5849C20.0325 11.6521 20.2418 11.7759 20.4232 12.0122C20.4571 12.0723 20.491 12.1323 20.5259 12.1942C20.5642 12.2618 20.6026 12.3294 20.6421 12.3991C20.8345 12.7565 21.02 13.1168 21.201 13.4802C21.2408 13.5597 21.2806 13.6392 21.3217 13.7211C21.4049 13.8875 21.488 14.054 21.571 14.2205C21.6985 14.4764 21.8267 14.732 21.9549 14.9875C22.036 15.1497 22.117 15.3119 22.1979 15.4741C22.2364 15.5507 22.2748 15.6273 22.3144 15.7062C22.3495 15.7767 22.3845 15.8472 22.4206 15.9199C22.4516 15.982 22.4826 16.0442 22.5145 16.1082C22.5807 16.2598 22.5807 16.2598 22.5807 16.4117C22.6427 16.4113 22.6427 16.4113 22.7059 16.4108C23.7134 16.4041 24.7208 16.3991 25.7282 16.396C26.2155 16.3944 26.7026 16.3922 27.1898 16.3888C27.6602 16.3855 28.1305 16.3837 28.6008 16.3829C28.7801 16.3823 28.9594 16.3812 29.1387 16.3796C29.3901 16.3774 29.6415 16.3771 29.893 16.3772C29.9668 16.3761 30.0407 16.375 30.1167 16.3739C30.5792 16.3767 30.9304 16.4502 31.3157 16.7155C31.5788 16.9921 31.6856 17.1912 31.7145 17.5748C31.6906 17.9273 31.6109 18.1654 31.3591 18.4207C31.0465 18.6921 30.8193 18.7756 30.4137 18.777C30.2991 18.7777 30.2991 18.7777 30.1823 18.7783C30.0986 18.7784 30.0149 18.7785 29.9287 18.7786C29.8405 18.779 29.7523 18.7794 29.6614 18.7797C29.3689 18.7809 29.0764 18.7814 28.7839 18.7818C28.6323 18.7821 28.4806 18.7824 28.3289 18.7828C27.9063 18.7837 27.4836 18.7842 27.061 18.7845C26.5148 18.7848 25.9686 18.7862 25.4224 18.7884C24.9999 18.79 24.5775 18.7908 24.155 18.7909C23.9028 18.791 23.6506 18.7915 23.3985 18.7928C23.117 18.7941 22.8355 18.7939 22.554 18.7934C22.4708 18.7941 22.3876 18.7948 22.3018 18.7956C21.8826 18.7933 21.5723 18.781 21.2135 18.5385C20.9031 18.2188 20.709 17.8765 20.5141 17.4787C20.486 17.4223 20.4579 17.366 20.4289 17.308C20.3701 17.1899 20.3116 17.0717 20.2533 16.9533C20.1639 16.7716 20.0735 16.5905 19.9829 16.4093C19.9257 16.2942 19.8686 16.1791 19.8115 16.064C19.7845 16.0097 19.7574 15.9554 19.7295 15.8995C19.5424 15.5178 19.5424 15.5178 19.5424 15.3483C19.4923 15.3483 19.4421 15.3483 19.3905 15.3483C19.3725 15.4088 19.3545 15.4692 19.336 15.5315C19.2135 15.8741 19.0568 16.1925 18.8951 16.5179C18.843 16.6236 18.843 16.6236 18.7898 16.7314C18.6752 16.9637 18.5601 17.1957 18.4449 17.4276C18.4055 17.5071 18.366 17.5865 18.3254 17.6684C18.1169 18.0887 17.9079 18.5088 17.6986 18.9288C17.4829 19.362 17.2686 19.7958 17.0546 20.2299C16.8894 20.5642 16.7231 20.8979 16.5566 21.2315C16.4771 21.3912 16.3981 21.5511 16.3194 21.7112C16.2092 21.9354 16.0974 22.1588 15.9853 22.382C15.9533 22.4479 15.9214 22.5137 15.8885 22.5815C15.656 23.0385 15.3757 23.3943 14.909 23.6276C14.4939 23.6602 14.2114 23.5998 13.8456 23.3997C13.5362 23.0719 13.3564 22.6797 13.1587 22.2796C13.1216 22.2054 13.0845 22.1313 13.0463 22.0549C12.9242 21.8106 12.8028 21.5659 12.6814 21.3213C12.5967 21.1515 12.512 20.9818 12.4272 20.812C12.2273 20.4114 12.0278 20.0106 11.8284 19.6096C11.5791 19.1081 11.3291 18.6069 11.0791 18.1057C10.6336 17.2122 10.1886 16.3183 9.74396 15.4243C9.53631 15.6917 9.3875 15.9719 9.24133 16.2761C9.18845 16.3842 9.13554 16.4922 9.0826 16.6003C9.00012 16.7694 8.91789 16.9387 8.83614 17.1083C8.75669 17.2727 8.67626 17.4367 8.5957 17.6006C8.57179 17.6509 8.54788 17.7011 8.52325 17.7529C8.27557 18.2537 7.9809 18.5524 7.46525 18.7664C7.2581 18.7864 7.06921 18.7953 6.86267 18.7922C6.80408 18.7923 6.74549 18.7923 6.68512 18.7923C6.49276 18.7922 6.30046 18.7904 6.10811 18.7886C5.97423 18.7882 5.84034 18.7879 5.70646 18.7876C5.35506 18.7868 5.00369 18.7845 4.6523 18.782C4.29335 18.7797 3.93438 18.7786 3.57542 18.7775C2.87182 18.775 2.16824 18.7712 1.46465 18.7664C1.379 18.5596 1.29346 18.3528 1.208 18.1459C1.18387 18.0877 1.15974 18.0295 1.13489 17.9696C0.705078 16.9285 0.705078 16.9285 0.705078 16.4877C2.63514 16.4626 4.56521 16.4375 6.55376 16.4117C7.26259 14.976 7.26259 14.976 7.96941 13.5393C8.05872 13.3594 8.14811 13.1795 8.23758 12.9996C8.26028 12.953 8.28297 12.9064 8.30636 12.8584C8.37378 12.7202 8.44247 12.5826 8.5112 12.4451C8.54948 12.3675 8.58777 12.2899 8.62722 12.21C8.79875 11.9396 9.00257 11.7692 9.28821 11.6264C9.4698 11.6083 9.4698 11.6083 9.68699 11.6027C9.75788 11.5998 9.82877 11.597 9.9018 11.5941C10.202 11.6378 10.3423 11.7395 10.5795 11.9302C10.7231 12.1339 10.8306 12.3513 10.9397 12.5749C10.9719 12.6387 11.0042 12.7024 11.0374 12.768C11.1391 12.9693 11.2391 13.1713 11.3391 13.3734C11.4021 13.4985 11.4652 13.6235 11.5285 13.7484C11.6894 14.0668 11.8489 14.3859 12.0079 14.7053C12.1115 14.9135 12.2153 15.1217 12.3192 15.3298C12.5386 15.7695 12.7577 16.2093 12.9769 16.6491C13.2335 17.164 13.4902 17.679 13.7471 18.1938C13.8494 18.3989 13.9516 18.6042 14.0537 18.8094C14.1158 18.9337 14.1778 19.0581 14.2398 19.1824C14.2682 19.2395 14.2966 19.2966 14.3258 19.3555C14.4407 19.6093 14.4407 19.6093 14.6052 19.8298C14.6247 19.7902 14.6442 19.7507 14.6642 19.71C15.139 18.7469 15.6152 17.7845 16.0929 16.8229C16.3239 16.3578 16.5544 15.8925 16.7838 15.4267C17.0053 14.9769 17.2281 14.5279 17.4517 14.0792C17.5367 13.9081 17.6212 13.7367 17.7054 13.5652C17.8235 13.3246 17.9431 13.0848 18.063 12.8451C18.0974 12.7743 18.1317 12.7035 18.167 12.6305C18.4634 12.0451 18.8494 11.4956 19.5709 11.5694Z" fill="#E7EEED"/>
<path d="M19.4666 11.6265C20.0064 11.6265 20.0064 11.6265 20.3021 11.8543C20.4233 12.0123 20.4233 12.0123 20.526 12.1942C20.5644 12.2618 20.6027 12.3295 20.6422 12.3991C20.8347 12.7566 21.0202 13.1169 21.2011 13.4803C21.2609 13.5995 21.2609 13.5995 21.3218 13.7212C21.405 13.8876 21.4881 14.054 21.5711 14.2206C21.6986 14.4765 21.8268 14.732 21.9551 14.9876C22.0361 15.1497 22.1171 15.3119 22.1981 15.4742C22.2557 15.589 22.2557 15.589 22.3146 15.7062C22.3496 15.7768 22.3846 15.8473 22.4207 15.92C22.4517 15.9821 22.4827 16.0442 22.5147 16.1083C22.5808 16.2598 22.5808 16.2598 22.5808 16.4118C22.6428 16.4113 22.6428 16.4113 22.706 16.4109C23.7135 16.4042 24.7209 16.3992 25.7284 16.396C26.2156 16.3944 26.7028 16.3923 27.19 16.3888C27.6603 16.3855 28.1306 16.3837 28.601 16.3829C28.7803 16.3824 28.9595 16.3813 29.1388 16.3796C29.3903 16.3774 29.6417 16.3771 29.8932 16.3773C29.967 16.3762 30.0408 16.3751 30.1168 16.374C30.5793 16.3767 30.9306 16.4502 31.3159 16.7156C31.5789 16.9921 31.6857 17.1912 31.7146 17.5748C31.6907 17.9274 31.6111 18.1654 31.3592 18.4208C31.0466 18.6921 30.8195 18.7757 30.4138 18.7771C30.3375 18.7775 30.2611 18.778 30.1824 18.7784C30.0987 18.7785 30.015 18.7786 29.9288 18.7787C29.8406 18.779 29.7524 18.7794 29.6615 18.7798C29.369 18.7809 29.0766 18.7814 28.7841 18.7818C28.6324 18.7822 28.4807 18.7825 28.3291 18.7828C27.9064 18.7837 27.4838 18.7843 27.0611 18.7846C26.5149 18.7849 25.9687 18.7862 25.4225 18.7884C25.0001 18.7901 24.5776 18.7908 24.1551 18.7909C23.9029 18.791 23.6508 18.7916 23.3986 18.7928C23.1171 18.7941 22.8357 18.794 22.5542 18.7935C22.4709 18.7942 22.3877 18.7949 22.3019 18.7956C21.8828 18.7933 21.5724 18.7811 21.2136 18.5385C20.9033 18.2189 20.7091 17.8766 20.5143 17.4787C20.4861 17.4224 20.458 17.3661 20.429 17.3081C20.3702 17.19 20.3117 17.0718 20.2535 16.9534C20.164 16.7717 20.0736 16.5905 19.983 16.4094C19.9258 16.2943 19.8687 16.1792 19.8117 16.064C19.7846 16.0097 19.7575 15.9555 19.7297 15.8995C19.5425 15.5179 19.5425 15.5179 19.5425 15.3484C19.4924 15.3233 19.4423 15.2982 19.3906 15.2724C19.4157 14.0692 19.4408 12.8661 19.4666 11.6265Z" fill="#C6DEE4"/>
</svg>
