<svg width="136" height="81" viewBox="0 0 136 81" fill="none" xmlns="http://www.w3.org/2000/svg">
<path d="M67.3897 34.3031C68.3721 34.5125 69.1612 35.0037 69.7571 35.7768C70.353 36.5337 70.651 37.4034 70.651 38.3858C70.651 39.8031 70.1517 40.9305 69.1532 41.7679C68.1708 42.5893 66.7938 43 65.0222 43H57.1225V26.0411H64.7565C66.4797 26.0411 67.8245 26.4357 68.7908 27.2249C69.7732 28.014 70.2645 29.085 70.2645 30.4379C70.2645 31.4364 69.9987 32.2658 69.4672 32.9261C68.9519 33.5865 68.2593 34.0455 67.3897 34.3031ZM61.2536 32.902H63.9592C64.6357 32.902 65.151 32.757 65.5053 32.4671C65.8758 32.1611 66.061 31.7182 66.061 31.1385C66.061 30.5587 65.8758 30.1158 65.5053 29.8098C65.151 29.5038 64.6357 29.3508 63.9592 29.3508H61.2536V32.902ZM64.2975 39.6662C64.99 39.6662 65.5215 39.5132 65.8919 39.2072C66.2784 38.8851 66.4717 38.4261 66.4717 37.8302C66.4717 37.2343 66.2703 36.7673 65.8677 36.429C65.4812 36.0908 64.9417 35.9217 64.2491 35.9217H61.2536V39.6662H64.2975ZM76.4532 25.1231V43H72.3222V25.1231H76.4532ZM84.8583 43.1933C83.5377 43.1933 82.3459 42.9114 81.2829 42.3477C80.2361 41.7841 79.4067 40.9788 78.7947 39.9319C78.1988 38.8851 77.9008 37.6611 77.9008 36.2599C77.9008 34.8749 78.2068 33.6589 78.8188 32.6121C79.4308 31.5491 80.2683 30.7358 81.3312 30.1721C82.3942 29.6085 83.586 29.3266 84.9066 29.3266C86.2272 29.3266 87.419 29.6085 88.482 30.1721C89.5449 30.7358 90.3824 31.5491 90.9944 32.6121C91.6064 33.6589 91.9124 34.8749 91.9124 36.2599C91.9124 37.645 91.5984 38.869 90.9703 39.9319C90.3582 40.9788 89.5127 41.7841 88.4337 42.3477C87.3707 42.9114 86.1789 43.1933 84.8583 43.1933ZM84.8583 39.6179C85.6475 39.6179 86.3158 39.328 86.8634 38.7482C87.4271 38.1684 87.7089 37.339 87.7089 36.2599C87.7089 35.1809 87.4351 34.3515 86.8876 33.7717C86.3561 33.1919 85.6958 32.902 84.9066 32.902C84.1013 32.902 83.433 33.1919 82.9015 33.7717C82.37 34.3354 82.1043 35.1648 82.1043 36.2599C82.1043 37.339 82.362 38.1684 82.8773 38.7482C83.4088 39.328 84.0691 39.6179 84.8583 39.6179ZM106.69 29.5199V43H102.559V41.164C102.141 41.7599 101.569 42.2431 100.844 42.6135C100.135 42.9678 99.3463 43.1449 98.4766 43.1449C97.4458 43.1449 96.5359 42.9195 95.7467 42.4685C94.9576 42.0015 94.3456 41.3331 93.9107 40.4634C93.4759 39.5937 93.2585 38.571 93.2585 37.3954V29.5199H97.3653V36.8397C97.3653 37.7416 97.5988 38.4422 98.0659 38.9415C98.5329 39.4407 99.161 39.6904 99.9502 39.6904C100.755 39.6904 101.392 39.4407 101.859 38.9415C102.326 38.4422 102.559 37.7416 102.559 36.8397V29.5199H106.69ZM112.798 39.5937H118.644V43H108.184V39.7145L113.789 32.9261H108.232V29.5199H118.523V32.8054L112.798 39.5937ZM119.371 36.2358C119.371 34.8507 119.629 33.6348 120.144 32.5879C120.676 31.5411 121.392 30.7358 122.294 30.1721C123.196 29.6085 124.203 29.3266 125.314 29.3266C126.264 29.3266 127.094 29.5199 127.802 29.9064C128.527 30.2929 129.083 30.8002 129.469 31.4284V29.5199H133.6V43H129.469V41.0915C129.067 41.7196 128.503 42.2269 127.778 42.6135C127.07 43 126.24 43.1933 125.29 43.1933C124.195 43.1933 123.196 42.9114 122.294 42.3477C121.392 41.7679 120.676 40.9546 120.144 39.9078C119.629 38.8448 119.371 37.6208 119.371 36.2358ZM129.469 36.2599C129.469 35.2292 129.179 34.4159 128.6 33.82C128.036 33.2241 127.343 32.9261 126.522 32.9261C125.701 32.9261 125 33.2241 124.42 33.82C123.857 34.3998 123.575 35.205 123.575 36.2358C123.575 37.2665 123.857 38.0879 124.42 38.6999C125 39.2958 125.701 39.5937 126.522 39.5937C127.343 39.5937 128.036 39.2958 128.6 38.6999C129.179 38.104 129.469 37.2907 129.469 36.2599Z" fill="#1F75FD"/>
<path d="M110.632 47.5308V48.6628H108.38V55.9907H106.992V48.6628H104.728V47.5308H110.632ZM118.428 52.4728C118.428 52.7244 118.412 52.9516 118.379 53.1545H113.255C113.295 53.6901 113.494 54.1202 113.851 54.4448C114.208 54.7694 114.646 54.9317 115.166 54.9317C115.912 54.9317 116.44 54.6193 116.748 53.9944H118.245C118.043 54.6112 117.673 55.1184 117.138 55.516C116.61 55.9055 115.953 56.1003 115.166 56.1003C114.525 56.1003 113.949 55.9583 113.437 55.6742C112.934 55.3821 112.537 54.9763 112.244 54.457C111.96 53.9295 111.818 53.3209 111.818 52.6311C111.818 51.9413 111.956 51.3367 112.232 50.8174C112.516 50.2899 112.91 49.8841 113.413 49.6001C113.924 49.3161 114.509 49.1741 115.166 49.1741C115.799 49.1741 116.363 49.312 116.858 49.5879C117.353 49.8638 117.738 50.2534 118.014 50.7565C118.29 51.2515 118.428 51.8236 118.428 52.4728ZM116.98 52.0346C116.971 51.5234 116.789 51.1136 116.432 50.8052C116.075 50.4968 115.632 50.3426 115.105 50.3426C114.626 50.3426 114.216 50.4968 113.876 50.8052C113.535 51.1055 113.332 51.5153 113.267 52.0346H116.98ZM119.575 52.6311C119.575 51.9413 119.713 51.3367 119.988 50.8174C120.272 50.2899 120.662 49.8841 121.157 49.6001C121.652 49.3161 122.22 49.1741 122.861 49.1741C123.673 49.1741 124.342 49.3688 124.87 49.7584C125.405 50.1398 125.766 50.6875 125.953 51.4017H124.456C124.334 51.0689 124.139 50.8093 123.872 50.6226C123.604 50.436 123.267 50.3426 122.861 50.3426C122.293 50.3426 121.839 50.5455 121.498 50.9513C121.165 51.3489 120.999 51.9088 120.999 52.6311C120.999 53.3533 121.165 53.9173 121.498 54.3231C121.839 54.7288 122.293 54.9317 122.861 54.9317C123.665 54.9317 124.196 54.5787 124.456 53.8727H125.953C125.758 54.5544 125.393 55.0981 124.857 55.5038C124.322 55.9015 123.656 56.1003 122.861 56.1003C122.22 56.1003 121.652 55.9583 121.157 55.6742C120.662 55.3821 120.272 54.9763 119.988 54.457C119.713 53.9295 119.575 53.3209 119.575 52.6311ZM131.049 49.1741C131.56 49.1741 132.014 49.2836 132.412 49.5027C132.818 49.7218 133.134 50.0464 133.361 50.4765C133.597 50.9066 133.714 51.426 133.714 52.0346V55.9907H132.339V52.2416C132.339 51.641 132.189 51.1825 131.889 50.8661C131.588 50.5415 131.178 50.3792 130.659 50.3792C130.14 50.3792 129.726 50.5415 129.417 50.8661C129.117 51.1825 128.967 51.641 128.967 52.2416V55.9907H127.579V46.983H128.967V50.0627C129.202 49.7786 129.499 49.5595 129.856 49.4053C130.221 49.2512 130.618 49.1741 131.049 49.1741Z" fill="#1F75FD"/>
<path d="M4.32711 56.8266L14.5733 40.8799C15.2013 39.9025 16.6204 39.8751 17.2856 40.8276L28.1135 56.331" stroke="#1F75FD" stroke-width="2.37499"/>
<path d="M22.2362 37.1971L25.1506 42.4316C25.4969 43.0537 26.418 42.9653 26.6397 42.2887L27.5474 39.5185C27.7805 38.8072 28.7683 38.7584 29.0703 39.4434L30.4672 42.6122C30.7594 43.275 31.7059 43.2573 31.9731 42.584L34.1112 37.1971" stroke="#1F75FD" stroke-width="2.15234"/>
<path d="M18.4511 41.8728L26.8456 29.6482C27.4995 28.6959 28.9084 28.7052 29.5497 29.6661L47.1568 56.0478" stroke="#1F75FD" stroke-width="2.37499"/>
<path d="M0.999978 57.6052L10.7297 55.3813C10.8491 55.354 10.973 55.3539 11.0923 55.381L20.7365 57.5698C20.8397 57.5932 20.9464 57.5963 21.0508 57.579L34.3845 55.3683C34.4974 55.3496 34.6129 55.3548 34.7236 55.3836L43.0304 57.5447C43.1824 57.5842 43.3425 57.5791 43.4917 57.5299L50.1301 55.3399" stroke="#1F75FD" stroke-width="1.69902" stroke-linecap="round"/>
<path d="M40.6381 13.0856C40.4344 13.0856 40.2754 13.0285 40.1613 12.9144C40.0554 12.8003 40.0024 12.6414 40.0024 12.4377V5.02948C40.0024 4.81759 40.0595 4.65867 40.1736 4.55272C40.2877 4.43862 40.4466 4.38157 40.6503 4.38157H43.572C44.5011 4.38157 45.2183 4.61384 45.7236 5.07838C46.2289 5.53477 46.4815 6.17861 46.4815 7.00989C46.4815 7.84932 46.2289 8.5013 45.7236 8.96584C45.2183 9.42223 44.5011 9.65043 43.572 9.65043H41.2738V12.4377C41.2738 12.6414 41.2208 12.8003 41.1149 12.9144C41.0089 13.0285 40.85 13.0856 40.6381 13.0856ZM41.2738 8.63578H43.3887C43.9999 8.63578 44.4604 8.5013 44.7701 8.23236C45.0879 7.95527 45.2468 7.54778 45.2468 7.00989C45.2468 6.48015 45.0879 6.08081 44.7701 5.81187C44.4604 5.53477 43.9999 5.39622 43.3887 5.39622H41.2738V8.63578ZM50.0165 13.11C49.4134 13.11 48.8918 12.9837 48.4517 12.7311C48.0198 12.4784 47.6816 12.1198 47.4371 11.6553C47.1926 11.1907 47.0703 10.6447 47.0703 10.0172C47.0703 9.53633 47.1396 9.10846 47.2781 8.73357C47.4167 8.35868 47.6123 8.03676 47.8649 7.76782C48.1257 7.49073 48.4354 7.28291 48.794 7.14436C49.1607 6.99766 49.5682 6.92431 50.0165 6.92431C50.6114 6.92431 51.1249 7.05064 51.5568 7.30328C51.9969 7.55592 52.3392 7.91452 52.5837 8.37906C52.8282 8.83545 52.9504 9.38148 52.9504 10.0172C52.9504 10.4899 52.8811 10.9177 52.7426 11.3008C52.604 11.6838 52.4044 12.0098 52.1436 12.2787C51.8909 12.5477 51.5812 12.7555 51.2145 12.9022C50.8559 13.0407 50.4566 13.11 50.0165 13.11ZM50.0165 12.1565C50.3506 12.1565 50.644 12.075 50.8967 11.912C51.1493 11.749 51.3449 11.5086 51.4834 11.1907C51.6301 10.8729 51.7035 10.4817 51.7035 10.0172C51.7035 9.31628 51.5486 8.78655 51.2389 8.42795C50.9293 8.06936 50.5218 7.89007 50.0165 7.89007C49.6742 7.89007 49.3767 7.97157 49.1241 8.13456C48.8714 8.28941 48.6718 8.52575 48.5251 8.8436C48.3865 9.16144 48.3172 9.55263 48.3172 10.0172C48.3172 10.7099 48.4721 11.2396 48.7818 11.6064C49.0915 11.9731 49.503 12.1565 50.0165 12.1565ZM56.4056 13.0856C56.2345 13.0856 56.0837 13.0448 55.9533 12.9633C55.8311 12.8737 55.7333 12.7351 55.6599 12.5477L53.8629 7.79227C53.7977 7.62927 53.7773 7.48665 53.8017 7.3644C53.8262 7.23401 53.8873 7.13213 53.9851 7.05879C54.0911 6.98544 54.2255 6.94876 54.3885 6.94876C54.5352 6.94876 54.6534 6.98544 54.7431 7.05879C54.8408 7.12398 54.9223 7.25438 54.9875 7.44998L56.589 11.9609H56.2956L57.9582 7.40108C58.0152 7.24623 58.0926 7.13213 58.1904 7.05879C58.2882 6.98544 58.4145 6.94876 58.5694 6.94876C58.7242 6.94876 58.8506 6.98544 58.9484 7.05879C59.0543 7.13213 59.1317 7.24623 59.1806 7.40108L60.8065 11.9609H60.5376L62.1635 7.42553C62.2287 7.23808 62.3102 7.11176 62.4079 7.04656C62.5139 6.98136 62.6321 6.94876 62.7625 6.94876C62.9255 6.94876 63.0477 6.98951 63.1292 7.07101C63.2189 7.15251 63.2678 7.25846 63.2759 7.38885C63.2922 7.5111 63.2718 7.64557 63.2148 7.79227L61.4177 12.5477C61.3444 12.727 61.2425 12.8615 61.1121 12.9511C60.9899 13.0407 60.8473 13.0856 60.6843 13.0856C60.5131 13.0856 60.3623 13.0407 60.2319 12.9511C60.1097 12.8615 60.0119 12.727 59.9386 12.5477L58.2271 7.91452H58.8383L57.1391 12.5477C57.0739 12.727 56.9761 12.8615 56.8457 12.9511C56.7235 13.0407 56.5768 13.0856 56.4056 13.0856ZM67.2601 13.11C66.6081 13.11 66.0458 12.9878 65.5731 12.7433C65.1086 12.4906 64.7459 12.1361 64.4851 11.6797C64.2325 11.2152 64.1061 10.6651 64.1061 10.0294C64.1061 9.41001 64.2325 8.86804 64.4851 8.40351C64.7377 7.93897 65.0841 7.5763 65.5242 7.31551C65.9643 7.05471 66.4655 6.92431 67.0278 6.92431C67.4435 6.92431 67.8143 6.99359 68.1403 7.13213C68.4663 7.26253 68.7434 7.45813 68.9716 7.71892C69.2079 7.97157 69.3831 8.28126 69.4972 8.648C69.6195 9.01474 69.6806 9.42631 69.6806 9.8827C69.6806 10.0212 69.6399 10.1272 69.5584 10.2005C69.4769 10.2657 69.3546 10.2983 69.1916 10.2983H65.0841V9.5404H68.8493L68.6415 9.71155C68.6415 9.30406 68.5804 8.95769 68.4581 8.67245C68.344 8.38721 68.1688 8.17124 67.9325 8.02454C67.7043 7.86969 67.419 7.79227 67.0767 7.79227C66.6937 7.79227 66.3677 7.88192 66.0988 8.06121C65.838 8.24051 65.6383 8.48908 65.4998 8.80692C65.3612 9.12476 65.2919 9.49558 65.2919 9.91937V9.99272C65.2919 10.7099 65.459 11.2519 65.7931 11.6186C66.1354 11.9772 66.6285 12.1565 67.2723 12.1565C67.5168 12.1565 67.7736 12.1239 68.0425 12.0587C68.3196 11.9935 68.5804 11.8835 68.8249 11.7286C68.9634 11.6471 69.0857 11.6105 69.1916 11.6186C69.3057 11.6268 69.3954 11.6634 69.4606 11.7286C69.5339 11.7938 69.5787 11.8753 69.595 11.9731C69.6113 12.0709 69.595 12.1728 69.5461 12.2787C69.4972 12.3765 69.4117 12.4662 69.2894 12.5477C69.0123 12.7351 68.6904 12.8778 68.3237 12.9756C67.9569 13.0652 67.6024 13.11 67.2601 13.11ZM71.6501 13.0856C71.4464 13.0856 71.2915 13.0326 71.1856 12.9267C71.0796 12.8126 71.0267 12.6577 71.0267 12.4621V7.57222C71.0267 7.36848 71.0796 7.21363 71.1856 7.10769C71.2915 7.00174 71.4382 6.94876 71.6257 6.94876C71.8213 6.94876 71.968 7.00174 72.0658 7.10769C72.1717 7.21363 72.2247 7.36848 72.2247 7.57222V8.46463H72.1024C72.2328 7.97564 72.4733 7.60482 72.8237 7.35218C73.1741 7.09954 73.6224 6.95284 74.1684 6.91209C74.3151 6.90394 74.4292 6.94061 74.5107 7.02211C74.6004 7.10361 74.6493 7.22993 74.6574 7.40108C74.6737 7.57222 74.637 7.71077 74.5474 7.81672C74.4577 7.91452 74.3192 7.97157 74.1317 7.98786L73.8995 8.01231C73.3697 8.06121 72.9663 8.22828 72.6892 8.51353C72.4121 8.79877 72.2736 9.18996 72.2736 9.6871V12.4621C72.2736 12.6577 72.2206 12.8126 72.1147 12.9267C72.0169 13.0326 71.862 13.0856 71.6501 13.0856ZM78.3029 13.11C77.651 13.11 77.0886 12.9878 76.6159 12.7433C76.1514 12.4906 75.7887 12.1361 75.5279 11.6797C75.2753 11.2152 75.149 10.6651 75.149 10.0294C75.149 9.41001 75.2753 8.86804 75.5279 8.40351C75.7806 7.93897 76.1269 7.5763 76.567 7.31551C77.0071 7.05471 77.5083 6.92431 78.0707 6.92431C78.4863 6.92431 78.8571 6.99359 79.1831 7.13213C79.5091 7.26253 79.7862 7.45813 80.0144 7.71892C80.2508 7.97157 80.426 8.28126 80.5401 8.648C80.6623 9.01474 80.7234 9.42631 80.7234 9.8827C80.7234 10.0212 80.6827 10.1272 80.6012 10.2005C80.5197 10.2657 80.3975 10.2983 80.2345 10.2983H76.1269V9.5404H79.8922L79.6843 9.71155C79.6843 9.30406 79.6232 8.95769 79.501 8.67245C79.3869 8.38721 79.2117 8.17124 78.9753 8.02454C78.7471 7.86969 78.4619 7.79227 78.1196 7.79227C77.7365 7.79227 77.4105 7.88192 77.1416 8.06121C76.8808 8.24051 76.6811 8.48908 76.5426 8.80692C76.404 9.12476 76.3348 9.49558 76.3348 9.91937V9.99272C76.3348 10.7099 76.5018 11.2519 76.836 11.6186C77.1783 11.9772 77.6713 12.1565 78.3152 12.1565C78.5597 12.1565 78.8164 12.1239 79.0853 12.0587C79.3624 11.9935 79.6232 11.8835 79.8677 11.7286C80.0063 11.6471 80.1285 11.6105 80.2345 11.6186C80.3486 11.6268 80.4382 11.6634 80.5034 11.7286C80.5767 11.7938 80.6216 11.8753 80.6379 11.9731C80.6542 12.0709 80.6379 12.1728 80.589 12.2787C80.5401 12.3765 80.4545 12.4662 80.3323 12.5477C80.0552 12.7351 79.7332 12.8778 79.3665 12.9756C78.9998 13.0652 78.6452 13.11 78.3029 13.11ZM84.3433 13.11C83.8217 13.11 83.3612 12.9878 82.9619 12.7433C82.5707 12.4906 82.2651 12.132 82.0451 11.6675C81.825 11.1948 81.715 10.6447 81.715 10.0172C81.715 9.37333 81.825 8.82322 82.0451 8.36683C82.2651 7.91044 82.5707 7.55592 82.9619 7.30328C83.3612 7.05064 83.8217 6.92431 84.3433 6.92431C84.8649 6.92431 85.3131 7.05471 85.688 7.31551C86.0711 7.56815 86.3278 7.91044 86.4582 8.34238H86.3237V4.91946C86.3237 4.71571 86.3767 4.56087 86.4826 4.45492C86.5886 4.34897 86.7393 4.296 86.9349 4.296C87.1305 4.296 87.2813 4.34897 87.3873 4.45492C87.5014 4.56087 87.5584 4.71571 87.5584 4.91946V12.4621C87.5584 12.6577 87.5054 12.8126 87.3995 12.9267C87.2935 13.0326 87.1428 13.0856 86.9472 13.0856C86.7516 13.0856 86.6008 13.0326 86.4948 12.9267C86.3889 12.8126 86.3359 12.6577 86.3359 12.4621V11.3863L86.4704 11.6553C86.34 12.0954 86.0833 12.4499 85.7002 12.7188C85.3254 12.9796 84.873 13.11 84.3433 13.11ZM84.6611 12.1565C84.9953 12.1565 85.2887 12.075 85.5413 11.912C85.794 11.749 85.9896 11.5086 86.1281 11.1907C86.2748 10.8729 86.3482 10.4817 86.3482 10.0172C86.3482 9.31628 86.1933 8.78655 85.8836 8.42795C85.5739 8.06936 85.1664 7.89007 84.6611 7.89007C84.3188 7.89007 84.0214 7.97157 83.7687 8.13456C83.5161 8.28941 83.3164 8.52575 83.1697 8.8436C83.0312 9.16144 82.9619 9.55263 82.9619 10.0172C82.9619 10.7099 83.1168 11.2396 83.4264 11.6064C83.7361 11.9731 84.1477 12.1565 84.6611 12.1565ZM93.3345 13C93.1144 13 92.9433 12.943 92.821 12.8289C92.7069 12.7066 92.6499 12.5355 92.6499 12.3154V5.06616C92.6499 4.84611 92.7069 4.67904 92.821 4.56494C92.9433 4.4427 93.1144 4.38157 93.3345 4.38157H96.244C96.8389 4.38157 97.3442 4.47122 97.7598 4.65052C98.1836 4.82981 98.5055 5.08653 98.7256 5.42067C98.9538 5.75482 99.0679 6.15823 99.0679 6.63092C99.0679 7.15251 98.913 7.5926 98.6033 7.95119C98.2936 8.30978 97.8739 8.5502 97.3442 8.67245V8.48908C97.9473 8.57058 98.42 8.79877 98.7623 9.17366C99.1046 9.5404 99.2757 10.0212 99.2757 10.6162C99.2757 11.3823 99.0231 11.9731 98.5178 12.3888C98.0125 12.7963 97.3034 13 96.3907 13H93.3345ZM93.8724 12.022H96.244C96.8552 12.022 97.3075 11.9039 97.6009 11.6675C97.8943 11.423 98.041 11.0563 98.041 10.5673C98.041 10.0783 97.8943 9.71563 97.6009 9.47928C97.3075 9.24294 96.8552 9.12476 96.244 9.12476H93.8724V12.022ZM93.8724 8.14679H96.0484C96.6352 8.14679 97.0793 8.02861 97.3809 7.79227C97.6824 7.55592 97.8332 7.20956 97.8332 6.75317C97.8332 6.29678 97.6824 5.95041 97.3809 5.71407C97.0793 5.47772 96.6352 5.35955 96.0484 5.35955H93.8724V8.14679ZM102.254 15.286C102.107 15.286 101.985 15.2453 101.887 15.1638C101.798 15.0904 101.745 14.9886 101.728 14.8582C101.72 14.7359 101.745 14.6014 101.802 14.4547L102.633 12.5844V13.11L100.347 7.79227C100.29 7.64557 100.27 7.50703 100.286 7.37663C100.302 7.24623 100.363 7.14436 100.469 7.07101C100.575 6.98951 100.718 6.94876 100.897 6.94876C101.052 6.94876 101.174 6.98544 101.264 7.05879C101.354 7.13213 101.435 7.25846 101.508 7.43775L103.354 11.9976H103.012L104.882 7.43775C104.956 7.25031 105.041 7.12398 105.139 7.05879C105.237 6.98544 105.371 6.94876 105.543 6.94876C105.689 6.94876 105.803 6.98951 105.885 7.07101C105.975 7.14436 106.027 7.24623 106.044 7.37663C106.068 7.49888 106.048 7.63335 105.983 7.78004L102.926 14.8093C102.845 14.9967 102.751 15.123 102.645 15.1882C102.548 15.2534 102.417 15.286 102.254 15.286Z" fill="#1F75FD"/>
</svg>
